<svg xmlns="http://www.w3.org/2000/svg" viewBox="0 0 24 24" width="24" height="24">
  <defs>
    <filter id="glow" x="-40%" y="-40%" width="180%" height="180%">
      <feDropShadow dx="0" dy="0" stdDeviation="1.5" flood-color="#aaaaaa" flood-opacity="0.9"/>
    </filter>
  </defs>
  <g filter="url(#glow)">
    <!-- Wrench -->
    <path d="M14.5,2.5 Q17.5,2 18.5,5 Q19.5,8 17,10 L8,19 Q7,21 5,21 Q3,21 3,19 Q3,17 5,16 L14,7 Q12,4.5 14.5,2.5 Z"
          fill="none" stroke="#aaaaaa" stroke-width="1.8" stroke-linejoin="round"/>
    <circle cx="5.5" cy="18.5" r="1.2" fill="#aaaaaa"/>
    <!-- Small gear top right -->
    <circle cx="19" cy="17" r="3" fill="none" stroke="#aaaaaa" stroke-width="1.5"/>
    <circle cx="19" cy="17" r="1.2" fill="#aaaaaa"/>
    <g stroke="#aaaaaa" stroke-width="1.5" stroke-linecap="round">
      <line x1="19" y1="13" x2="19" y2="14.5"/>
      <line x1="19" y1="19.5" x2="19" y2="21"/>
      <line x1="15" y1="17" x2="16.5" y2="17"/>
      <line x1="21.5" y1="17" x2="23" y2="17"/>
    </g>
  </g>
</svg>
