<?xml version="1.0" encoding="utf-8"?>
<svg xmlns="http://www.w3.org/2000/svg" width="256" height="256" viewBox="21.044 43.62 217.747 200.581" xmlns:bx="https://boxy-svg.com" preserveAspectRatio="none"><defs><linearGradient id="folderBack" x1="0%" y1="0%" x2="15%" y2="100%"><stop offset="0" stop-color="#1a3860"/><stop offset="0.4" stop-color="#0e2440"/><stop offset="1" stop-color="#061420"/></linearGradient><linearGradient id="folderFront" x1="0%" y1="0%" x2="5%" y2="100%"><stop offset="0" style="stop-color: rgb(30, 68, 115);"/><stop offset="0.35" style="stop-color: rgb(18, 44, 78);"/><stop offset="1" stop-color="#0a1e38"/></linearGradient><linearGradient id="folderFrontHighlight" x1="0%" y1="0%" x2="0%" y2="100%"><stop offset="0" stop-color="#d0e8ff" stop-opacity="0.45"/><stop offset="0.15" stop-color="#fff" stop-opacity="0"/></linearGradient><linearGradient id="tabHighlight" x1="0%" y1="0%" x2="0%" y2="100%"><stop offset="0" stop-color="#5599cc" stop-opacity="0.7"/><stop offset="1" stop-color="#1a3860" stop-opacity="0"/></linearGradient><linearGradient id="page1grad" x1="0%" y1="0%" x2="0%" y2="100%"><stop offset="0" stop-color="#f2f0ea"/><stop offset="1" stop-color="#ddd9cc"/></linearGradient><linearGradient id="page2grad" x1="0%" y1="0%" x2="0%" y2="100%"><stop offset="0" stop-color="#ccc9bf"/><stop offset="1" stop-color="#b8b4a8"/></linearGradient><linearGradient id="pageEdge" x1="0%" y1="0%" x2="0%" y2="100%"><stop offset="0" stop-color="#fff" stop-opacity="0.6"/><stop offset="1" stop-color="#fff" stop-opacity="0"/></linearGradient><linearGradient id="innerShadow" x1="0%" y1="0%" x2="0%" y2="100%"><stop offset="0" stop-color="#000" stop-opacity="0.25"/><stop offset="0.12" stop-color="#000" stop-opacity="0"/></linearGradient><filter id="fShadow" x="-10%" y="-10%" width="130%" height="140%"><feDropShadow dx="0" dy="6" stdDeviation="6" flood-color="#000" flood-opacity="0.5"/></filter><filter id="pShadow" x="-5%" y="-15%" width="115%" height="140%"><feDropShadow dx="0" dy="2" stdDeviation="2.5" flood-color="#000" flood-opacity="0.3"/></filter>
    <linearGradient id="waveBack" x1="0%" y1="0%" x2="0%" y2="100%">
      <stop offset="0%" stop-color="#f5f0e8"/><stop offset="40%" stop-color="#d4e8f5"/><stop offset="100%" stop-color="#5588cc"/>
    </linearGradient>
    <linearGradient id="waveG1" x1="0%" y1="0%" x2="100%" y2="100%">
      <stop offset="0%" stop-color="#1a3a6a"/><stop offset="100%" stop-color="#0a1a3a"/>
    </linearGradient>
    <filter id="waveGlow" x="-10%" y="-10%" width="120%" height="120%">
      <feDropShadow dx="0" dy="0" stdDeviation="2" flood-color="#2255aa" flood-opacity="0.6"/>
    </filter>
    <linearGradient id="stripG" x1="0%" y1="0%" x2="100%" y2="0%"><stop offset="0%" stop-color="#2255aa"/><stop offset="100%" stop-color="#4488cc"/></linearGradient>
    <clipPath id="frontClip"><path d="M22,98 L238,98 L238,232 Q238,244 226,244 L34,244 Q22,244 22,232 Z"/></clipPath>
  </defs><g filter="url(#fShadow)" style=""><path d="M22,60 Q22,44 32,44 L102,44 Q112,44 118,56 L134,78 L234,78 Q238,78 238,82 L238,232 Q238,244 226,244 L34,244 Q22,244 22,232 Z" fill="url(#folderBack)"/><line x1="30" y1="100" x2="230" y2="100" stroke="#000" stroke-opacity="0.06" stroke-width="0.5" style=""/><line x1="30" y1="140" x2="230" y2="140" stroke="#000" stroke-opacity="0.04" stroke-width="0.5" style=""/><line x1="30" y1="180" x2="230" y2="180" stroke="#000" stroke-opacity="0.03" stroke-width="0.5" style=""/></g><g filter="url(#pShadow)" transform="matrix(1, 0, 0, 1, -1.701021, 0.340202)" style=""><rect x="38" y="56" width="184" height="22" rx="2" ry="2" fill="url(#page2grad)"/><line x1="58" y1="63" x2="170" y2="63" stroke="#a8a498" stroke-width="1" stroke-opacity="0.5"/><line x1="58" y1="69" x2="145" y2="69" stroke="#a8a498" stroke-width="1" stroke-opacity="0.35"/></g><g filter="url(#pShadow)" transform="matrix(1, 0, 0, 1, -0.1701, 3.402037)" style=""><rect x="28" y="68" width="200" height="26" rx="2" ry="2" fill="url(#page1grad)"/><rect x="28" y="68" width="200" height="4" rx="2" ry="2" fill="url(#pageEdge)"/><line x1="48" y1="76" x2="185" y2="76" stroke="#b0ad9f" stroke-width="1.2" stroke-opacity="0.6"/><line x1="48" y1="82" x2="160" y2="82" stroke="#b0ad9f" stroke-width="1.2" stroke-opacity="0.45"/><line x1="48" y1="88" x2="120" y2="88" stroke="#b0ad9f" stroke-width="1.2" stroke-opacity="0.3"/><path d="M216,68 L228,68 L228,80 Z" fill="#c8c4b4" opacity="0.5"/><path d="M216,68 L228,80 L216,80 Z" fill="#e8e4d8" opacity="0.6"/></g>
  <!-- Colored strip at fold line -->
  <rect x="22" y="98" width="216" height="28" fill="url(#stripG)"/>
  <rect x="22" y="98" width="216" height="10" fill="#fff" opacity="0.12"/>
  
  <!-- Theme scene -->
  <g clip-path="url(#frontClip)">
    <g transform="translate(22, 98) scale(2.5116, 2.9200) translate(-7, -48)">
      
    <!-- Sky -->
    <rect x="7" y="48" width="86" height="50" fill="#f0ece0"/>
    <!-- Mt Fuji -->
    <polygon points="50,52 38,78 62,78" fill="#ddd8cc"/>
    <polygon points="50,52 46,62 54,62" fill="#f5f5f5"/>
    <!-- Horizon water -->
    <rect x="7" y="78" width="86" height="20" fill="#4477aa"/>
    <!-- Wave body -->
    <g filter="url(#waveGlow)">
      <path d="M7,70 Q15,55 25,60 Q32,63 35,58 Q40,50 50,55 Q55,58 58,54 Q64,48 72,53 Q78,57 82,52 Q88,47 93,53 L93,72 Q80,65 72,70 Q62,75 55,68 Q48,62 40,68 Q30,74 22,68 Q14,62 7,68 Z" fill="url(#waveG1)"/>
      <!-- Wave crest white caps -->
      <path d="M25,60 Q30,55 35,58" fill="none" stroke="#f0ece0" stroke-width="2" stroke-linecap="round"/>
      <path d="M55,56 Q60,51 65,54" fill="none" stroke="#f0ece0" stroke-width="2" stroke-linecap="round"/>
      <path d="M80,53 Q85,48 90,52" fill="none" stroke="#f0ece0" stroke-width="2" stroke-linecap="round"/>
      <!-- Foam fingers at top of wave -->
      <path d="M22,62 Q18,56 22,54 Q24,58 26,54 Q28,58 30,56 Q28,62 22,62 Z" fill="#f0ece0" opacity="0.9"/>
      <path d="M52,58 Q48,52 52,50 Q54,54 56,50 Q58,54 60,52 Q58,58 52,58 Z" fill="#f0ece0" opacity="0.9"/>
    </g>
    <!-- Small boat in distance -->
    <path d="M60,76 L56,76 L57,72 L63,72 L64,76 Z" fill="#1a0a00" opacity="0.6"/>
    <line x1="60" y1="72" x2="60" y2="68" stroke="#1a0a00" stroke-width="0.8" opacity="0.5"/>
    <path d="M60,68 L57,72" fill="none" stroke="#1a0a00" stroke-width="0.6" opacity="0.4"/>
    <!-- Stippled water texture -->
    <g fill="#2255aa" opacity="0.3">
      <circle cx="15" cy="84" r="0.8"/><circle cx="22" cy="87" r="0.8"/>
      <circle cx="30" cy="83" r="0.8"/><circle cx="40" cy="86" r="0.8"/>
      <circle cx="50" cy="82" r="0.8"/><circle cx="62" cy="85" r="0.8"/>
      <circle cx="72" cy="81" r="0.8"/><circle cx="82" cy="84" r="0.8"/>
      <circle cx="90" cy="88" r="0.8"/>
    </g>
  
    </g>
  </g>
  
  <path d="M22,98 L238,98 L238,232 Q238,244 226,244 L34,244 Q22,244 22,232 Z" fill="none" stroke="#5599cc" stroke-width="1.5" opacity="0.25"/>
  <rect x="22" y="126" width="216" height="20" fill="#fff" opacity="0.03"/>
  <rect x="22" y="230" width="216" height="14" rx="5" fill="#000" opacity="0.15"/>

</svg>