<?xml version="1.0" encoding="utf-8"?>
<svg xmlns="http://www.w3.org/2000/svg" width="256" height="256" viewBox="21.044 43.62 217.747 200.581" xmlns:bx="https://boxy-svg.com" preserveAspectRatio="none"><defs><linearGradient id="folderBack" x1="0%" y1="0%" x2="15%" y2="100%"><stop offset="0" stop-color="#0a2040"/><stop offset="0.4" stop-color="#061530"/><stop offset="1" stop-color="#020810"/></linearGradient><linearGradient id="folderFront" x1="0%" y1="0%" x2="5%" y2="100%"><stop offset="0" style="stop-color: rgb(12, 40, 80);"/><stop offset="0.35" style="stop-color: rgb(6, 25, 55);"/><stop offset="1" stop-color="#021020"/></linearGradient><linearGradient id="folderFrontHighlight" x1="0%" y1="0%" x2="0%" y2="100%"><stop offset="0" stop-color="#c0f0ff" stop-opacity="0.45"/><stop offset="0.15" stop-color="#fff" stop-opacity="0"/></linearGradient><linearGradient id="tabHighlight" x1="0%" y1="0%" x2="0%" y2="100%"><stop offset="0" stop-color="#44ddcc" stop-opacity="0.7"/><stop offset="1" stop-color="#0a2040" stop-opacity="0"/></linearGradient><linearGradient id="page1grad" x1="0%" y1="0%" x2="0%" y2="100%"><stop offset="0" stop-color="#f2f0ea"/><stop offset="1" stop-color="#ddd9cc"/></linearGradient><linearGradient id="page2grad" x1="0%" y1="0%" x2="0%" y2="100%"><stop offset="0" stop-color="#ccc9bf"/><stop offset="1" stop-color="#b8b4a8"/></linearGradient><linearGradient id="pageEdge" x1="0%" y1="0%" x2="0%" y2="100%"><stop offset="0" stop-color="#fff" stop-opacity="0.6"/><stop offset="1" stop-color="#fff" stop-opacity="0"/></linearGradient><linearGradient id="innerShadow" x1="0%" y1="0%" x2="0%" y2="100%"><stop offset="0" stop-color="#000" stop-opacity="0.25"/><stop offset="0.12" stop-color="#000" stop-opacity="0"/></linearGradient><filter id="fShadow" x="-10%" y="-10%" width="130%" height="140%"><feDropShadow dx="0" dy="6" stdDeviation="6" flood-color="#000" flood-opacity="0.5"/></filter><filter id="pShadow" x="-5%" y="-15%" width="115%" height="140%"><feDropShadow dx="0" dy="2" stdDeviation="2.5" flood-color="#000" flood-opacity="0.3"/></filter>
    <linearGradient id="dnaBack" x1="0%" y1="0%" x2="0%" y2="100%">
      <stop offset="0%" stop-color="#050a1a"/><stop offset="100%" stop-color="#020508"/>
    </linearGradient>
    <filter id="dnaGlow" x="-30%" y="-20%" width="160%" height="140%">
      <feDropShadow dx="0" dy="0" stdDeviation="2.5" flood-color="#00ffcc" flood-opacity="0.9"/>
    </filter>
    <filter id="dnaGlow2" x="-30%" y="-20%" width="160%" height="140%">
      <feDropShadow dx="0" dy="0" stdDeviation="2.5" flood-color="#ff44aa" flood-opacity="0.9"/>
    </filter>
    <linearGradient id="stripG" x1="0%" y1="0%" x2="100%" y2="0%"><stop offset="0%" stop-color="#00ffcc"/><stop offset="100%" stop-color="#0044ff"/></linearGradient>
    <clipPath id="frontClip"><path d="M22,98 L238,98 L238,232 Q238,244 226,244 L34,244 Q22,244 22,232 Z"/></clipPath>
  </defs><g filter="url(#fShadow)" style=""><path d="M22,60 Q22,44 32,44 L102,44 Q112,44 118,56 L134,78 L234,78 Q238,78 238,82 L238,232 Q238,244 226,244 L34,244 Q22,244 22,232 Z" fill="url(#folderBack)"/><line x1="30" y1="100" x2="230" y2="100" stroke="#000" stroke-opacity="0.06" stroke-width="0.5" style=""/><line x1="30" y1="140" x2="230" y2="140" stroke="#000" stroke-opacity="0.04" stroke-width="0.5" style=""/><line x1="30" y1="180" x2="230" y2="180" stroke="#000" stroke-opacity="0.03" stroke-width="0.5" style=""/></g><g filter="url(#pShadow)" transform="matrix(1, 0, 0, 1, -1.701021, 0.340202)" style=""><rect x="38" y="56" width="184" height="22" rx="2" ry="2" fill="url(#page2grad)"/><line x1="58" y1="63" x2="170" y2="63" stroke="#a8a498" stroke-width="1" stroke-opacity="0.5"/><line x1="58" y1="69" x2="145" y2="69" stroke="#a8a498" stroke-width="1" stroke-opacity="0.35"/></g><g filter="url(#pShadow)" transform="matrix(1, 0, 0, 1, -0.1701, 3.402037)" style=""><rect x="28" y="68" width="200" height="26" rx="2" ry="2" fill="url(#page1grad)"/><rect x="28" y="68" width="200" height="4" rx="2" ry="2" fill="url(#pageEdge)"/><line x1="48" y1="76" x2="185" y2="76" stroke="#b0ad9f" stroke-width="1.2" stroke-opacity="0.6"/><line x1="48" y1="82" x2="160" y2="82" stroke="#b0ad9f" stroke-width="1.2" stroke-opacity="0.45"/><line x1="48" y1="88" x2="120" y2="88" stroke="#b0ad9f" stroke-width="1.2" stroke-opacity="0.3"/><path d="M216,68 L228,68 L228,80 Z" fill="#c8c4b4" opacity="0.5"/><path d="M216,68 L228,80 L216,80 Z" fill="#e8e4d8" opacity="0.6"/></g>
  <!-- Colored strip at fold line -->
  <rect x="22" y="98" width="216" height="28" fill="url(#stripG)"/>
  <rect x="22" y="98" width="216" height="10" fill="#fff" opacity="0.12"/>
  
  <!-- Theme scene -->
  <g clip-path="url(#frontClip)">
    <g transform="translate(22, 98) scale(2.5116, 2.9200) translate(-7, -48)">
      
    <rect x="7" y="48" width="86" height="50" fill="url(#dnaBack)"/>
    <!-- Left helix strand -->
    <g filter="url(#dnaGlow)">
      <path d="M35,50 Q25,58 35,66 Q45,74 35,82 Q25,90 35,98" fill="none" stroke="#00ffcc" stroke-width="2" stroke-linecap="round"/>
    </g>
    <!-- Right helix strand -->
    <g filter="url(#dnaGlow2)">
      <path d="M65,50 Q75,58 65,66 Q55,74 65,82 Q75,90 65,98" fill="none" stroke="#ff44aa" stroke-width="2" stroke-linecap="round"/>
    </g>
    <!-- Rungs connecting -->
    <g opacity="0.8">
      <line x1="35" y1="52" x2="65" y2="52" stroke="#44ffdd" stroke-width="1.5" stroke-linecap="round"/>
      <line x1="30" y1="57" x2="70" y2="57" stroke="#88aaff" stroke-width="1.2" stroke-linecap="round"/>
      <line x1="29" y1="62" x2="71" y2="62" stroke="#ff88cc" stroke-width="1.2" stroke-linecap="round"/>
      <line x1="31" y1="67" x2="69" y2="67" stroke="#44ffdd" stroke-width="1.5" stroke-linecap="round"/>
      <line x1="36" y1="72" x2="64" y2="72" stroke="#88aaff" stroke-width="1.2" stroke-linecap="round"/>
      <line x1="40" y1="77" x2="60" y2="77" stroke="#ff88cc" stroke-width="1.2" stroke-linecap="round"/>
      <line x1="37" y1="82" x2="63" y2="82" stroke="#44ffdd" stroke-width="1.5" stroke-linecap="round"/>
      <line x1="31" y1="87" x2="69" y2="87" stroke="#88aaff" stroke-width="1.2" stroke-linecap="round"/>
      <line x1="29" y1="92" x2="71" y2="92" stroke="#ff88cc" stroke-width="1.2" stroke-linecap="round"/>
      <line x1="31" y1="97" x2="69" y2="97" stroke="#44ffdd" stroke-width="1.5" stroke-linecap="round"/>
    </g>
    <!-- Floating particle dots -->
    <g filter="url(#dnaGlow)">
      <circle cx="18" cy="60" r="1.5" fill="#00ffcc" opacity="0.7"/>
      <circle cx="14" cy="75" r="1"   fill="#00ffcc" opacity="0.5"/>
      <circle cx="20" cy="88" r="1.5" fill="#00ffcc" opacity="0.6"/>
    </g>
    <g filter="url(#dnaGlow2)">
      <circle cx="82" cy="58" r="1.5" fill="#ff44aa" opacity="0.7"/>
      <circle cx="86" cy="73" r="1"   fill="#ff44aa" opacity="0.5"/>
      <circle cx="80" cy="86" r="1.5" fill="#ff44aa" opacity="0.6"/>
    </g>
  
    </g>
  </g>
  
  <path d="M22,98 L238,98 L238,232 Q238,244 226,244 L34,244 Q22,244 22,232 Z" fill="none" stroke="#44ddcc" stroke-width="1.5" opacity="0.25"/>
  <rect x="22" y="126" width="216" height="20" fill="#fff" opacity="0.03"/>
  <rect x="22" y="230" width="216" height="14" rx="5" fill="#000" opacity="0.15"/>

</svg>