<?xml version="1.0" encoding="utf-8"?>
<svg xmlns="http://www.w3.org/2000/svg" width="256" height="256" viewBox="21.044 43.62 217.747 200.581" xmlns:bx="https://boxy-svg.com" preserveAspectRatio="none"><defs><linearGradient id="folderBack" x1="0%" y1="0%" x2="15%" y2="100%"><stop offset="0" stop-color="#1a4060"/><stop offset="0.4" stop-color="#0e2840"/><stop offset="1" stop-color="#051420"/></linearGradient><linearGradient id="folderFront" x1="0%" y1="0%" x2="5%" y2="100%"><stop offset="0" style="stop-color: rgb(30, 80, 120);"/><stop offset="0.35" style="stop-color: rgb(16, 52, 82);"/><stop offset="1" stop-color="#082030"/></linearGradient><linearGradient id="folderFrontHighlight" x1="0%" y1="0%" x2="0%" y2="100%"><stop offset="0" stop-color="#d8f0ff" stop-opacity="0.45"/><stop offset="0.15" stop-color="#fff" stop-opacity="0"/></linearGradient><linearGradient id="tabHighlight" x1="0%" y1="0%" x2="0%" y2="100%"><stop offset="0" stop-color="#66ccee" stop-opacity="0.7"/><stop offset="1" stop-color="#1a4060" stop-opacity="0"/></linearGradient><linearGradient id="page1grad" x1="0%" y1="0%" x2="0%" y2="100%"><stop offset="0" stop-color="#f2f0ea"/><stop offset="1" stop-color="#ddd9cc"/></linearGradient><linearGradient id="page2grad" x1="0%" y1="0%" x2="0%" y2="100%"><stop offset="0" stop-color="#ccc9bf"/><stop offset="1" stop-color="#b8b4a8"/></linearGradient><linearGradient id="pageEdge" x1="0%" y1="0%" x2="0%" y2="100%"><stop offset="0" stop-color="#fff" stop-opacity="0.6"/><stop offset="1" stop-color="#fff" stop-opacity="0"/></linearGradient><linearGradient id="innerShadow" x1="0%" y1="0%" x2="0%" y2="100%"><stop offset="0" stop-color="#000" stop-opacity="0.25"/><stop offset="0.12" stop-color="#000" stop-opacity="0"/></linearGradient><filter id="fShadow" x="-10%" y="-10%" width="130%" height="140%"><feDropShadow dx="0" dy="6" stdDeviation="6" flood-color="#000" flood-opacity="0.5"/></filter><filter id="pShadow" x="-5%" y="-15%" width="115%" height="140%"><feDropShadow dx="0" dy="2" stdDeviation="2.5" flood-color="#000" flood-opacity="0.3"/></filter>
    <linearGradient id="crystalBack" x1="0%" y1="0%" x2="100%" y2="100%">
      <stop offset="0%" stop-color="#0a1a2a"/><stop offset="100%" stop-color="#050a15"/>
    </linearGradient>
    <linearGradient id="gem1" x1="0%" y1="0%" x2="100%" y2="100%">
      <stop offset="0%" stop-color="#88eeff"/><stop offset="100%" stop-color="#2244aa"/>
    </linearGradient>
    <linearGradient id="gem2" x1="0%" y1="0%" x2="100%" y2="100%">
      <stop offset="0%" stop-color="#cc88ff"/><stop offset="100%" stop-color="#440088"/>
    </linearGradient>
    <linearGradient id="gem3" x1="0%" y1="0%" x2="100%" y2="100%">
      <stop offset="0%" stop-color="#88ffcc"/><stop offset="100%" stop-color="#004433"/>
    </linearGradient>
    <filter id="crystalGlow" x="-30%" y="-30%" width="160%" height="160%">
      <feDropShadow dx="0" dy="0" stdDeviation="3" flood-color="#88eeff" flood-opacity="0.8"/>
    </filter>
    <linearGradient id="stripG" x1="0%" y1="0%" x2="100%" y2="0%"><stop offset="0%" stop-color="#44ddff"/><stop offset="100%" stop-color="#aa88ff"/></linearGradient>
    <clipPath id="frontClip"><path d="M22,98 L238,98 L238,232 Q238,244 226,244 L34,244 Q22,244 22,232 Z"/></clipPath>
  </defs><g filter="url(#fShadow)" style=""><path d="M22,60 Q22,44 32,44 L102,44 Q112,44 118,56 L134,78 L234,78 Q238,78 238,82 L238,232 Q238,244 226,244 L34,244 Q22,244 22,232 Z" fill="url(#folderBack)"/><line x1="30" y1="100" x2="230" y2="100" stroke="#000" stroke-opacity="0.06" stroke-width="0.5" style=""/><line x1="30" y1="140" x2="230" y2="140" stroke="#000" stroke-opacity="0.04" stroke-width="0.5" style=""/><line x1="30" y1="180" x2="230" y2="180" stroke="#000" stroke-opacity="0.03" stroke-width="0.5" style=""/></g><g filter="url(#pShadow)" transform="matrix(1, 0, 0, 1, -1.701021, 0.340202)" style=""><rect x="38" y="56" width="184" height="22" rx="2" ry="2" fill="url(#page2grad)"/><line x1="58" y1="63" x2="170" y2="63" stroke="#a8a498" stroke-width="1" stroke-opacity="0.5"/><line x1="58" y1="69" x2="145" y2="69" stroke="#a8a498" stroke-width="1" stroke-opacity="0.35"/></g><g filter="url(#pShadow)" transform="matrix(1, 0, 0, 1, -0.1701, 3.402037)" style=""><rect x="28" y="68" width="200" height="26" rx="2" ry="2" fill="url(#page1grad)"/><rect x="28" y="68" width="200" height="4" rx="2" ry="2" fill="url(#pageEdge)"/><line x1="48" y1="76" x2="185" y2="76" stroke="#b0ad9f" stroke-width="1.2" stroke-opacity="0.6"/><line x1="48" y1="82" x2="160" y2="82" stroke="#b0ad9f" stroke-width="1.2" stroke-opacity="0.45"/><line x1="48" y1="88" x2="120" y2="88" stroke="#b0ad9f" stroke-width="1.2" stroke-opacity="0.3"/><path d="M216,68 L228,68 L228,80 Z" fill="#c8c4b4" opacity="0.5"/><path d="M216,68 L228,80 L216,80 Z" fill="#e8e4d8" opacity="0.6"/></g>
  <!-- Colored strip at fold line -->
  <rect x="22" y="98" width="216" height="28" fill="url(#stripG)"/>
  <rect x="22" y="98" width="216" height="10" fill="#fff" opacity="0.12"/>
  
  <!-- Theme scene -->
  <g clip-path="url(#frontClip)">
    <g transform="translate(22, 98) scale(2.5116, 2.9200) translate(-7, -48)">
      
    <rect x="7" y="48" width="86" height="50" fill="url(#crystalBack)"/>
    <g filter="url(#crystalGlow)">
      <!-- Big center gem diamond -->
      <polygon points="50,52 62,65 50,78 38,65" fill="url(#gem1)" stroke="#88eeff" stroke-width="1" opacity="0.95"/>
      <polygon points="50,52 62,65 50,60" fill="#ccf8ff" opacity="0.4"/>
      <polygon points="50,78 62,65 50,70" fill="#0033aa" opacity="0.4"/>
      <!-- Left gem -->
      <polygon points="22,62 30,70 22,78 14,70" fill="url(#gem2)" stroke="#cc88ff" stroke-width="1" opacity="0.85"/>
      <polygon points="22,62 30,70 22,67" fill="#eeccff" opacity="0.4"/>
      <!-- Right gem -->
      <polygon points="78,62 86,70 78,78 70,70" fill="url(#gem3)" stroke="#88ffcc" stroke-width="1" opacity="0.85"/>
      <polygon points="78,62 86,70 78,67" fill="#ccffee" opacity="0.4"/>
      <!-- Small gems -->
      <polygon points="50,82 55,88 50,94 45,88" fill="url(#gem2)" stroke="#cc88ff" stroke-width="0.8" opacity="0.7"/>
      <polygon points="32,52 36,57 32,62 28,57" fill="url(#gem3)" stroke="#88ffcc" stroke-width="0.8" opacity="0.7"/>
      <polygon points="68,52 72,57 68,62 64,57" fill="url(#gem1)" stroke="#88eeff" stroke-width="0.8" opacity="0.7"/>
      <!-- Sparkle lines -->
      <line x1="50" y1="48" x2="50" y2="52" stroke="#fff" stroke-width="1.5" stroke-linecap="round" opacity="0.8"/>
      <line x1="46" y1="50" x2="54" y2="50" stroke="#fff" stroke-width="1.5" stroke-linecap="round" opacity="0.8"/>
    </g>
  
    </g>
  </g>
  
  <path d="M22,98 L238,98 L238,232 Q238,244 226,244 L34,244 Q22,244 22,232 Z" fill="none" stroke="#66ccee" stroke-width="1.5" opacity="0.25"/>
  <rect x="22" y="126" width="216" height="20" fill="#fff" opacity="0.03"/>
  <rect x="22" y="230" width="216" height="14" rx="5" fill="#000" opacity="0.15"/>

</svg>