<?xml version="1.0" encoding="utf-8"?>
<svg xmlns="http://www.w3.org/2000/svg" width="256" height="256" viewBox="21.044 43.62 217.747 200.581" xmlns:bx="https://boxy-svg.com" preserveAspectRatio="none"><defs><linearGradient id="folderBack" x1="0%" y1="0%" x2="15%" y2="100%"><stop offset="0" stop-color="#660066"/><stop offset="0.4" stop-color="#330033"/><stop offset="1" stop-color="#0a0014"/></linearGradient><linearGradient id="folderFront" x1="0%" y1="0%" x2="5%" y2="100%"><stop offset="0" style="stop-color: rgb(120, 0, 120);"/><stop offset="0.35" style="stop-color: rgb(80, 0, 80);"/><stop offset="1" stop-color="#2a0030"/></linearGradient><linearGradient id="folderFrontHighlight" x1="0%" y1="0%" x2="0%" y2="100%"><stop offset="0" stop-color="#ffd0ff" stop-opacity="0.45"/><stop offset="0.15" stop-color="#fff" stop-opacity="0"/></linearGradient><linearGradient id="tabHighlight" x1="0%" y1="0%" x2="0%" y2="100%"><stop offset="0" stop-color="#ff66ff" stop-opacity="0.7"/><stop offset="1" stop-color="#660066" stop-opacity="0"/></linearGradient><linearGradient id="page1grad" x1="0%" y1="0%" x2="0%" y2="100%"><stop offset="0" stop-color="#f2f0ea"/><stop offset="1" stop-color="#ddd9cc"/></linearGradient><linearGradient id="page2grad" x1="0%" y1="0%" x2="0%" y2="100%"><stop offset="0" stop-color="#ccc9bf"/><stop offset="1" stop-color="#b8b4a8"/></linearGradient><linearGradient id="pageEdge" x1="0%" y1="0%" x2="0%" y2="100%"><stop offset="0" stop-color="#fff" stop-opacity="0.6"/><stop offset="1" stop-color="#fff" stop-opacity="0"/></linearGradient><linearGradient id="innerShadow" x1="0%" y1="0%" x2="0%" y2="100%"><stop offset="0" stop-color="#000" stop-opacity="0.25"/><stop offset="0.12" stop-color="#000" stop-opacity="0"/></linearGradient><filter id="fShadow" x="-10%" y="-10%" width="130%" height="140%"><feDropShadow dx="0" dy="6" stdDeviation="6" flood-color="#000" flood-opacity="0.5"/></filter><filter id="pShadow" x="-5%" y="-15%" width="115%" height="140%"><feDropShadow dx="0" dy="2" stdDeviation="2.5" flood-color="#000" flood-opacity="0.3"/></filter><linearGradient id="arcBack" x1="0%" y1="0%" x2="0%" y2="100%">
      <stop offset="0%" stop-color="#050010"/><stop offset="100%" stop-color="#020008"/>
    </linearGradient>
    <linearGradient id="stripG" x1="0%" y1="0%" x2="100%" y2="0%">
      <stop offset="0%" stop-color="#ff00ff"/><stop offset="50%" stop-color="#ff4400"/><stop offset="100%" stop-color="#ffff00"/>
    </linearGradient>
    <filter id="neonA" x="-20%" y="-20%" width="140%" height="140%">
      <feDropShadow dx="0" dy="0" stdDeviation="2" flood-color="#ff00ff" flood-opacity="0.9"/>
    </filter>
    <filter id="neonB" x="-20%" y="-20%" width="140%" height="140%">
      <feDropShadow dx="0" dy="0" stdDeviation="2" flood-color="#00ffff" flood-opacity="0.9"/>
    </filter>
    <filter id="neonC" x="-20%" y="-20%" width="140%" height="140%">
      <feDropShadow dx="0" dy="0" stdDeviation="2" flood-color="#ffff00" flood-opacity="0.9"/>
    </filter>
    <linearGradient id="stripG" x1="0%" y1="0%" x2="100%" y2="0%"><stop offset="0%" stop-color="#ff00ff"/><stop offset="50%" stop-color="#ff4400"/><stop offset="100%" stop-color="#ffff00"/></linearGradient>
    <clipPath id="frontClip"><path d="M22,98 L238,98 L238,232 Q238,244 226,244 L34,244 Q22,244 22,232 Z"/></clipPath>
  </defs><g filter="url(#fShadow)" style=""><path d="M22,60 Q22,44 32,44 L102,44 Q112,44 118,56 L134,78 L234,78 Q238,78 238,82 L238,232 Q238,244 226,244 L34,244 Q22,244 22,232 Z" fill="url(#folderBack)"/><line x1="30" y1="100" x2="230" y2="100" stroke="#000" stroke-opacity="0.06" stroke-width="0.5" style=""/><line x1="30" y1="140" x2="230" y2="140" stroke="#000" stroke-opacity="0.04" stroke-width="0.5" style=""/><line x1="30" y1="180" x2="230" y2="180" stroke="#000" stroke-opacity="0.03" stroke-width="0.5" style=""/></g><g filter="url(#pShadow)" transform="matrix(1, 0, 0, 1, -1.701021, 0.340202)" style=""><rect x="38" y="56" width="184" height="22" rx="2" ry="2" fill="url(#page2grad)"/><line x1="58" y1="63" x2="170" y2="63" stroke="#a8a498" stroke-width="1" stroke-opacity="0.5"/><line x1="58" y1="69" x2="145" y2="69" stroke="#a8a498" stroke-width="1" stroke-opacity="0.35"/></g><g filter="url(#pShadow)" transform="matrix(1, 0, 0, 1, -0.1701, 3.402037)" style=""><rect x="28" y="68" width="200" height="26" rx="2" ry="2" fill="url(#page1grad)"/><rect x="28" y="68" width="200" height="4" rx="2" ry="2" fill="url(#pageEdge)"/><line x1="48" y1="76" x2="185" y2="76" stroke="#b0ad9f" stroke-width="1.2" stroke-opacity="0.6"/><line x1="48" y1="82" x2="160" y2="82" stroke="#b0ad9f" stroke-width="1.2" stroke-opacity="0.45"/><line x1="48" y1="88" x2="120" y2="88" stroke="#b0ad9f" stroke-width="1.2" stroke-opacity="0.3"/><path d="M216,68 L228,68 L228,80 Z" fill="#c8c4b4" opacity="0.5"/><path d="M216,68 L228,80 L216,80 Z" fill="#e8e4d8" opacity="0.6"/></g>
  <!-- Colored strip at fold line -->
  <rect x="22" y="98" width="216" height="28" fill="url(#stripG)"/>
  <rect x="22" y="98" width="216" height="10" fill="#fff" opacity="0.12"/>
  
  <!-- Theme scene content -->
  <g clip-path="url(#frontClip)">
    <g transform="translate(22, 98) scale(2.5116, 2.9200) translate(-7, -48)">
      
    <rect x="7" y="48" width="86" height="50" fill="url(#arcBack)"/>
    <!-- Scanlines -->
    <g opacity="0.08" fill="#fff">
      <rect x="7" y="49" width="86" height="1"/><rect x="7" y="52" width="86" height="1"/>
      <rect x="7" y="55" width="86" height="1"/><rect x="7" y="58" width="86" height="1"/>
      <rect x="7" y="61" width="86" height="1"/><rect x="7" y="64" width="86" height="1"/>
      <rect x="7" y="67" width="86" height="1"/><rect x="7" y="70" width="86" height="1"/>
      <rect x="7" y="73" width="86" height="1"/><rect x="7" y="76" width="86" height="1"/>
      <rect x="7" y="79" width="86" height="1"/><rect x="7" y="82" width="86" height="1"/>
      <rect x="7" y="85" width="86" height="1"/><rect x="7" y="88" width="86" height="1"/>
      <rect x="7" y="91" width="86" height="1"/><rect x="7" y="94" width="86" height="1"/>
    </g>
    <!-- Pixel space invader -->
    <g filter="url(#neonA)">
      <rect x="38" y="52" width="4" height="4" fill="#ff00ff"/>
      <rect x="58" y="52" width="4" height="4" fill="#ff00ff"/>
      <rect x="34" y="56" width="4" height="4" fill="#ff00ff"/>
      <rect x="38" y="56" width="4" height="4" fill="#ff00ff"/>
      <rect x="42" y="56" width="4" height="4" fill="#ff00ff"/>
      <rect x="46" y="56" width="4" height="4" fill="#ff00ff"/>
      <rect x="50" y="56" width="4" height="4" fill="#ff00ff"/>
      <rect x="54" y="56" width="4" height="4" fill="#ff00ff"/>
      <rect x="58" y="56" width="4" height="4" fill="#ff00ff"/>
      <rect x="62" y="56" width="4" height="4" fill="#ff00ff"/>
      <rect x="30" y="60" width="4" height="4" fill="#ff00ff"/>
      <rect x="38" y="60" width="4" height="4" fill="#ff00ff"/>
      <rect x="46" y="60" width="4" height="4" fill="#ff00ff"/>
      <rect x="50" y="60" width="4" height="4" fill="#ff00ff"/>
      <rect x="58" y="60" width="4" height="4" fill="#ff00ff"/>
      <rect x="66" y="60" width="4" height="4" fill="#ff00ff"/>
      <rect x="30" y="64" width="40" height="4" fill="#ff00ff"/>
      <rect x="34" y="68" width="4" height="4" fill="#ff00ff"/>
      <rect x="58" y="68" width="4" height="4" fill="#ff00ff"/>
      <rect x="26" y="68" width="4" height="4" fill="#ff00ff"/>
      <rect x="66" y="68" width="4" height="4" fill="#ff00ff"/>
    </g>
    <!-- Score display -->
    <g filter="url(#neonB)">
      <text x="10" y="57" font-family="monospace" font-size="5" fill="#00ffff">SCORE</text>
      <text x="10" y="64" font-family="monospace" font-size="6" fill="#00ffff">09480</text>
    </g>
    <!-- Lives -->
    <g filter="url(#neonC)">
      <text x="10" y="72" font-family="monospace" font-size="4" fill="#ffff00">LIVES</text>
      <text x="10" y="78" font-family="monospace" font-size="5" fill="#ffff00">♥ ♥ ♥</text>
    </g>
    <!-- Ground bunkers pixel style -->
    <g filter="url(#neonA)" opacity="0.7">
      <rect x="15" y="88" width="12" height="8" rx="1" fill="#ff00ff" opacity="0.3" stroke="#ff00ff" stroke-width="0.8"/>
      <rect x="17" y="93" width="3" height="3" fill="#050010"/>
      <rect x="22" y="93" width="3" height="3" fill="#050010"/>
      <rect x="44" y="88" width="12" height="8" rx="1" fill="#ff00ff" opacity="0.3" stroke="#ff00ff" stroke-width="0.8"/>
      <rect x="46" y="93" width="3" height="3" fill="#050010"/>
      <rect x="51" y="93" width="3" height="3" fill="#050010"/>
      <rect x="73" y="88" width="12" height="8" rx="1" fill="#ff00ff" opacity="0.3" stroke="#ff00ff" stroke-width="0.8"/>
      <rect x="75" y="93" width="3" height="3" fill="#050010"/>
      <rect x="80" y="93" width="3" height="3" fill="#050010"/>
    </g>
    <!-- Missile -->
    <g filter="url(#neonC)">
      <rect x="49" y="78" width="2" height="8" rx="1" fill="#ffff00"/>
    </g>
    <!-- INSERT COIN blink -->
    <g filter="url(#neonB)" opacity="0.8">
      <text x="22" y="86" font-family="monospace" font-size="4" fill="#00ffff">INSERT COIN</text>
    </g>
  
    </g>
  </g>
  
  <!-- Scene border -->
  <path d="M22,98 L238,98 L238,232 Q238,244 226,244 L34,244 Q22,244 22,232 Z" fill="none" stroke="#ff66ff" stroke-width="1.5" opacity="0.25"/>
  <!-- Top highlight on scene -->  
  <rect x="22" y="126" width="216" height="20" fill="#fff" opacity="0.03"/>
  <!-- Bottom shadow on scene -->
  <rect x="22" y="230" width="216" height="14" rx="5" fill="#000" opacity="0.15"/>

</svg>