<?xml version="1.0" encoding="utf-8"?>
<svg xmlns="http://www.w3.org/2000/svg" width="256" height="256" viewBox="21.044 43.62 217.747 200.581" xmlns:bx="https://boxy-svg.com" preserveAspectRatio="none"><defs><linearGradient id="folderBack" x1="0%" y1="0%" x2="15%" y2="100%"><stop offset="0" stop-color="#6a1800"/><stop offset="0.4" stop-color="#400e00"/><stop offset="1" stop-color="#1a0500"/></linearGradient><linearGradient id="folderFront" x1="0%" y1="0%" x2="5%" y2="100%"><stop offset="0" style="stop-color: rgb(130, 30, 0);"/><stop offset="0.35" style="stop-color: rgb(85, 18, 0);"/><stop offset="1" stop-color="#2a0a00"/></linearGradient><linearGradient id="folderFrontHighlight" x1="0%" y1="0%" x2="0%" y2="100%"><stop offset="0" stop-color="#ffe0c0" stop-opacity="0.45"/><stop offset="0.15" stop-color="#fff" stop-opacity="0"/></linearGradient><linearGradient id="tabHighlight" x1="0%" y1="0%" x2="0%" y2="100%"><stop offset="0" stop-color="#ff6630" stop-opacity="0.7"/><stop offset="1" stop-color="#6a1800" stop-opacity="0"/></linearGradient><linearGradient id="page1grad" x1="0%" y1="0%" x2="0%" y2="100%"><stop offset="0" stop-color="#f2f0ea"/><stop offset="1" stop-color="#ddd9cc"/></linearGradient><linearGradient id="page2grad" x1="0%" y1="0%" x2="0%" y2="100%"><stop offset="0" stop-color="#ccc9bf"/><stop offset="1" stop-color="#b8b4a8"/></linearGradient><linearGradient id="pageEdge" x1="0%" y1="0%" x2="0%" y2="100%"><stop offset="0" stop-color="#fff" stop-opacity="0.6"/><stop offset="1" stop-color="#fff" stop-opacity="0"/></linearGradient><linearGradient id="innerShadow" x1="0%" y1="0%" x2="0%" y2="100%"><stop offset="0" stop-color="#000" stop-opacity="0.25"/><stop offset="0.12" stop-color="#000" stop-opacity="0"/></linearGradient><filter id="fShadow" x="-10%" y="-10%" width="130%" height="140%"><feDropShadow dx="0" dy="6" stdDeviation="6" flood-color="#000" flood-opacity="0.5"/></filter><filter id="pShadow" x="-5%" y="-15%" width="115%" height="140%"><feDropShadow dx="0" dy="2" stdDeviation="2.5" flood-color="#000" flood-opacity="0.3"/></filter>
    <linearGradient id="lavaBack" x1="0%" y1="0%" x2="0%" y2="100%">
      <stop offset="0%" stop-color="#1a0500"/><stop offset="100%" stop-color="#0a0200"/>
    </linearGradient>
    <radialGradient id="lavaCrack" cx="50%" cy="50%" r="50%">
      <stop offset="0%" stop-color="#ff6600"/><stop offset="40%" stop-color="#ff2200"/><stop offset="100%" stop-color="#660000"/>
    </radialGradient>
    <filter id="lavaGlow" x="-20%" y="-20%" width="140%" height="140%">
      <feDropShadow dx="0" dy="0" stdDeviation="3" flood-color="#ff4400" flood-opacity="0.9"/>
    </filter>
    <linearGradient id="stripG" x1="0%" y1="0%" x2="100%" y2="0%"><stop offset="0%" stop-color="#ff4400"/><stop offset="100%" stop-color="#ff8800"/></linearGradient>
    <clipPath id="frontClip"><path d="M22,98 L238,98 L238,232 Q238,244 226,244 L34,244 Q22,244 22,232 Z"/></clipPath>
  </defs><g filter="url(#fShadow)" style=""><path d="M22,60 Q22,44 32,44 L102,44 Q112,44 118,56 L134,78 L234,78 Q238,78 238,82 L238,232 Q238,244 226,244 L34,244 Q22,244 22,232 Z" fill="url(#folderBack)"/><line x1="30" y1="100" x2="230" y2="100" stroke="#000" stroke-opacity="0.06" stroke-width="0.5" style=""/><line x1="30" y1="140" x2="230" y2="140" stroke="#000" stroke-opacity="0.04" stroke-width="0.5" style=""/><line x1="30" y1="180" x2="230" y2="180" stroke="#000" stroke-opacity="0.03" stroke-width="0.5" style=""/></g><g filter="url(#pShadow)" transform="matrix(1, 0, 0, 1, -1.701021, 0.340202)" style=""><rect x="38" y="56" width="184" height="22" rx="2" ry="2" fill="url(#page2grad)"/><line x1="58" y1="63" x2="170" y2="63" stroke="#a8a498" stroke-width="1" stroke-opacity="0.5"/><line x1="58" y1="69" x2="145" y2="69" stroke="#a8a498" stroke-width="1" stroke-opacity="0.35"/></g><g filter="url(#pShadow)" transform="matrix(1, 0, 0, 1, -0.1701, 3.402037)" style=""><rect x="28" y="68" width="200" height="26" rx="2" ry="2" fill="url(#page1grad)"/><rect x="28" y="68" width="200" height="4" rx="2" ry="2" fill="url(#pageEdge)"/><line x1="48" y1="76" x2="185" y2="76" stroke="#b0ad9f" stroke-width="1.2" stroke-opacity="0.6"/><line x1="48" y1="82" x2="160" y2="82" stroke="#b0ad9f" stroke-width="1.2" stroke-opacity="0.45"/><line x1="48" y1="88" x2="120" y2="88" stroke="#b0ad9f" stroke-width="1.2" stroke-opacity="0.3"/><path d="M216,68 L228,68 L228,80 Z" fill="#c8c4b4" opacity="0.5"/><path d="M216,68 L228,80 L216,80 Z" fill="#e8e4d8" opacity="0.6"/></g>
  <!-- Colored strip at fold line -->
  <rect x="22" y="98" width="216" height="28" fill="url(#stripG)"/>
  <rect x="22" y="98" width="216" height="10" fill="#fff" opacity="0.12"/>
  
  <!-- Theme scene -->
  <g clip-path="url(#frontClip)">
    <g transform="translate(22, 98) scale(2.5116, 2.9200) translate(-7, -48)">
      
    <rect x="7" y="48" width="86" height="50" fill="#0f0300"/>
    <g filter="url(#lavaGlow)">
      <path d="M7,80 Q20,65 30,75 Q40,85 50,68 Q60,52 70,70 Q80,88 93,72 L93,98 L7,98 Z" fill="url(#lavaCrack)" opacity="0.9"/>
      <!-- Cracks -->
      <path d="M30,48 Q33,58 28,65 Q25,72 30,80" fill="none" stroke="#ff6600" stroke-width="1.5" stroke-linecap="round" opacity="0.8"/>
      <path d="M50,48 Q55,62 48,72 Q44,80 50,90" fill="none" stroke="#ff4400" stroke-width="2" stroke-linecap="round" opacity="0.9"/>
      <path d="M70,48 Q66,60 72,70 Q76,78 70,88" fill="none" stroke="#ff6600" stroke-width="1.5" stroke-linecap="round" opacity="0.8"/>
      <path d="M50,70 Q40,74 35,80" fill="none" stroke="#ff8800" stroke-width="1.2" stroke-linecap="round" opacity="0.7"/>
      <path d="M50,70 Q62,68 68,76" fill="none" stroke="#ff8800" stroke-width="1.2" stroke-linecap="round" opacity="0.7"/>
      <!-- Lava pools -->
      <ellipse cx="30" cy="82" rx="8" ry="5" fill="#ff5500" opacity="0.7"/>
      <ellipse cx="65" cy="78" rx="6" ry="4" fill="#ff6600" opacity="0.6"/>
    </g>
  
    </g>
  </g>
  
  <path d="M22,98 L238,98 L238,232 Q238,244 226,244 L34,244 Q22,244 22,232 Z" fill="none" stroke="#ff6630" stroke-width="1.5" opacity="0.25"/>
  <rect x="22" y="126" width="216" height="20" fill="#fff" opacity="0.03"/>
  <rect x="22" y="230" width="216" height="14" rx="5" fill="#000" opacity="0.15"/>

</svg>