<?xml version="1.0" encoding="utf-8"?>
<svg xmlns="http://www.w3.org/2000/svg" width="256" height="256" viewBox="21.044 43.62 217.747 200.581" xmlns:bx="https://boxy-svg.com" preserveAspectRatio="none"><defs><linearGradient id="folderBack" x1="0%" y1="0%" x2="15%" y2="100%"><stop offset="0" stop-color="#006644"/><stop offset="0.4" stop-color="#004430"/><stop offset="1" stop-color="#001a10"/></linearGradient><linearGradient id="folderFront" x1="0%" y1="0%" x2="5%" y2="100%"><stop offset="0" style="stop-color: rgb(0, 130, 90);"/><stop offset="0.35" style="stop-color: rgb(0, 90, 60);"/><stop offset="1" stop-color="#002a18"/></linearGradient><linearGradient id="folderFrontHighlight" x1="0%" y1="0%" x2="0%" y2="100%"><stop offset="0" stop-color="#c0ffe8" stop-opacity="0.45"/><stop offset="0.15" stop-color="#fff" stop-opacity="0"/></linearGradient><linearGradient id="tabHighlight" x1="0%" y1="0%" x2="0%" y2="100%"><stop offset="0" stop-color="#44ffaa" stop-opacity="0.7"/><stop offset="1" stop-color="#006644" stop-opacity="0"/></linearGradient><linearGradient id="page1grad" x1="0%" y1="0%" x2="0%" y2="100%"><stop offset="0" stop-color="#f2f0ea"/><stop offset="1" stop-color="#ddd9cc"/></linearGradient><linearGradient id="page2grad" x1="0%" y1="0%" x2="0%" y2="100%"><stop offset="0" stop-color="#ccc9bf"/><stop offset="1" stop-color="#b8b4a8"/></linearGradient><linearGradient id="pageEdge" x1="0%" y1="0%" x2="0%" y2="100%"><stop offset="0" stop-color="#fff" stop-opacity="0.6"/><stop offset="1" stop-color="#fff" stop-opacity="0"/></linearGradient><linearGradient id="innerShadow" x1="0%" y1="0%" x2="0%" y2="100%"><stop offset="0" stop-color="#000" stop-opacity="0.25"/><stop offset="0.12" stop-color="#000" stop-opacity="0"/></linearGradient><filter id="fShadow" x="-10%" y="-10%" width="130%" height="140%"><feDropShadow dx="0" dy="6" stdDeviation="6" flood-color="#000" flood-opacity="0.5"/></filter><filter id="pShadow" x="-5%" y="-15%" width="115%" height="140%"><feDropShadow dx="0" dy="2" stdDeviation="2.5" flood-color="#000" flood-opacity="0.3"/></filter><linearGradient id="skyBack" x1="0%" y1="0%" x2="0%" y2="100%">
      <stop offset="0%" stop-color="#000d1a"/><stop offset="100%" stop-color="#000508"/>
    </linearGradient>
    <linearGradient id="stripG" x1="0%" y1="0%" x2="100%" y2="0%">
      <stop offset="0%" stop-color="#00ffaa"/><stop offset="50%" stop-color="#00aaff"/><stop offset="100%" stop-color="#aa00ff"/>
    </linearGradient>
    <filter id="auroraGlow" x="-20%" y="-20%" width="140%" height="140%">
      <feGaussianBlur stdDeviation="2.5" result="blur"/>
      <feComposite in="SourceGraphic" in2="blur" operator="over"/>
    </filter>
    <filter id="starGlow" x="-80%" y="-80%" width="260%" height="260%">
      <feDropShadow dx="0" dy="0" stdDeviation="1" flood-color="#fff" flood-opacity="1"/>
    </filter>
    <linearGradient id="stripG" x1="0%" y1="0%" x2="100%" y2="0%"><stop offset="0%" stop-color="#00ffaa"/><stop offset="50%" stop-color="#00aaff"/><stop offset="100%" stop-color="#aa00ff"/></linearGradient>
    <clipPath id="frontClip"><path d="M22,98 L238,98 L238,232 Q238,244 226,244 L34,244 Q22,244 22,232 Z"/></clipPath>
  </defs><g filter="url(#fShadow)" style=""><path d="M22,60 Q22,44 32,44 L102,44 Q112,44 118,56 L134,78 L234,78 Q238,78 238,82 L238,232 Q238,244 226,244 L34,244 Q22,244 22,232 Z" fill="url(#folderBack)"/><line x1="30" y1="100" x2="230" y2="100" stroke="#000" stroke-opacity="0.06" stroke-width="0.5" style=""/><line x1="30" y1="140" x2="230" y2="140" stroke="#000" stroke-opacity="0.04" stroke-width="0.5" style=""/><line x1="30" y1="180" x2="230" y2="180" stroke="#000" stroke-opacity="0.03" stroke-width="0.5" style=""/></g><g filter="url(#pShadow)" transform="matrix(1, 0, 0, 1, -1.701021, 0.340202)" style=""><rect x="38" y="56" width="184" height="22" rx="2" ry="2" fill="url(#page2grad)"/><line x1="58" y1="63" x2="170" y2="63" stroke="#a8a498" stroke-width="1" stroke-opacity="0.5"/><line x1="58" y1="69" x2="145" y2="69" stroke="#a8a498" stroke-width="1" stroke-opacity="0.35"/></g><g filter="url(#pShadow)" transform="matrix(1, 0, 0, 1, -0.1701, 3.402037)" style=""><rect x="28" y="68" width="200" height="26" rx="2" ry="2" fill="url(#page1grad)"/><rect x="28" y="68" width="200" height="4" rx="2" ry="2" fill="url(#pageEdge)"/><line x1="48" y1="76" x2="185" y2="76" stroke="#b0ad9f" stroke-width="1.2" stroke-opacity="0.6"/><line x1="48" y1="82" x2="160" y2="82" stroke="#b0ad9f" stroke-width="1.2" stroke-opacity="0.45"/><line x1="48" y1="88" x2="120" y2="88" stroke="#b0ad9f" stroke-width="1.2" stroke-opacity="0.3"/><path d="M216,68 L228,68 L228,80 Z" fill="#c8c4b4" opacity="0.5"/><path d="M216,68 L228,80 L216,80 Z" fill="#e8e4d8" opacity="0.6"/></g>
  <!-- Colored strip at fold line -->
  <rect x="22" y="98" width="216" height="28" fill="url(#stripG)"/>
  <rect x="22" y="98" width="216" height="10" fill="#fff" opacity="0.12"/>
  
  <!-- Theme scene content -->
  <g clip-path="url(#frontClip)">
    <g transform="translate(22, 98) scale(2.5116, 2.9200) translate(-7, -48)">
      
    <rect x="7" y="48" width="86" height="50" fill="url(#skyBack)"/>
    <!-- Aurora curtains -->
    <g filter="url(#auroraGlow)" opacity="0.85">
      <path d="M10,50 Q15,58 12,70 Q10,80 14,98" fill="none" stroke="#00ffaa" stroke-width="6" stroke-linecap="round" opacity="0.5"/>
      <path d="M22,48 Q28,60 24,72 Q21,83 25,98" fill="none" stroke="#00ddff" stroke-width="8" stroke-linecap="round" opacity="0.45"/>
      <path d="M36,48 Q44,63 38,76 Q34,86 38,98" fill="none" stroke="#00ffcc" stroke-width="10" stroke-linecap="round" opacity="0.4"/>
      <path d="M52,48 Q58,62 54,75 Q51,85 55,98" fill="none" stroke="#aa44ff" stroke-width="8" stroke-linecap="round" opacity="0.4"/>
      <path d="M66,50 Q70,62 67,74 Q65,84 68,98" fill="none" stroke="#00aaff" stroke-width="7" stroke-linecap="round" opacity="0.45"/>
      <path d="M78,50 Q83,61 80,73 Q78,83 81,98" fill="none" stroke="#00ffaa" stroke-width="6" stroke-linecap="round" opacity="0.5"/>
    </g>
    <!-- Stars -->
    <g filter="url(#starGlow)">
      <circle cx="15" cy="52" r="0.8" fill="#fff" opacity="0.9"/>
      <circle cx="33" cy="50" r="1"   fill="#fff" opacity="0.8"/>
      <circle cx="58" cy="51" r="0.8" fill="#fff" opacity="0.9"/>
      <circle cx="72" cy="49" r="1"   fill="#fff" opacity="0.7"/>
      <circle cx="86" cy="53" r="0.8" fill="#fff" opacity="0.8"/>
      <circle cx="44" cy="54" r="0.6" fill="#fff" opacity="0.6"/>
    </g>
    <!-- Snow ground -->
    <path d="M7,88 Q20,84 35,87 Q50,90 65,86 Q78,83 93,87 L93,98 L7,98 Z" fill="#cce8ff" opacity="0.15"/>
    <!-- Pine trees silhouette -->
    <polygon points="18,88 23,72 28,88" fill="#001a0a" opacity="0.8"/>
    <polygon points="75,88 80,70 85,88" fill="#001a0a" opacity="0.8"/>
    <polygon points="70,88 74,75 78,88" fill="#001a0a" opacity="0.7"/>
  
    </g>
  </g>
  
  <!-- Scene border -->
  <path d="M22,98 L238,98 L238,232 Q238,244 226,244 L34,244 Q22,244 22,232 Z" fill="none" stroke="#44ffaa" stroke-width="1.5" opacity="0.25"/>
  <!-- Top highlight on scene -->  
  <rect x="22" y="126" width="216" height="20" fill="#fff" opacity="0.03"/>
  <!-- Bottom shadow on scene -->
  <rect x="22" y="230" width="216" height="14" rx="5" fill="#000" opacity="0.15"/>

</svg>