<?xml version="1.0" encoding="utf-8"?>
<svg xmlns="http://www.w3.org/2000/svg" width="256" height="256" viewBox="21.044 43.62 217.747 200.581" xmlns:bx="https://boxy-svg.com" preserveAspectRatio="none"><defs><linearGradient id="folderBack" x1="0%" y1="0%" x2="15%" y2="100%"><stop offset="0" stop-color="#704a00"/><stop offset="0.4" stop-color="#4a2e00"/><stop offset="1" stop-color="#1a0e00"/></linearGradient><linearGradient id="folderFront" x1="0%" y1="0%" x2="5%" y2="100%"><stop offset="0" style="stop-color: rgb(140, 95, 10);"/><stop offset="0.35" style="stop-color: rgb(100, 65, 5);"/><stop offset="1" stop-color="#3a2200"/></linearGradient><linearGradient id="folderFrontHighlight" x1="0%" y1="0%" x2="0%" y2="100%"><stop offset="0" stop-color="#ffe8c0" stop-opacity="0.45"/><stop offset="0.15" stop-color="#fff" stop-opacity="0"/></linearGradient><linearGradient id="tabHighlight" x1="0%" y1="0%" x2="0%" y2="100%"><stop offset="0" stop-color="#daa520" stop-opacity="0.7"/><stop offset="1" stop-color="#704a00" stop-opacity="0"/></linearGradient><linearGradient id="page1grad" x1="0%" y1="0%" x2="0%" y2="100%"><stop offset="0" stop-color="#f2f0ea"/><stop offset="1" stop-color="#ddd9cc"/></linearGradient><linearGradient id="page2grad" x1="0%" y1="0%" x2="0%" y2="100%"><stop offset="0" stop-color="#ccc9bf"/><stop offset="1" stop-color="#b8b4a8"/></linearGradient><linearGradient id="pageEdge" x1="0%" y1="0%" x2="0%" y2="100%"><stop offset="0" stop-color="#fff" stop-opacity="0.6"/><stop offset="1" stop-color="#fff" stop-opacity="0"/></linearGradient><linearGradient id="innerShadow" x1="0%" y1="0%" x2="0%" y2="100%"><stop offset="0" stop-color="#000" stop-opacity="0.25"/><stop offset="0.12" stop-color="#000" stop-opacity="0"/></linearGradient><filter id="fShadow" x="-10%" y="-10%" width="130%" height="140%"><feDropShadow dx="0" dy="6" stdDeviation="6" flood-color="#000" flood-opacity="0.5"/></filter><filter id="pShadow" x="-5%" y="-15%" width="115%" height="140%"><feDropShadow dx="0" dy="2" stdDeviation="2.5" flood-color="#000" flood-opacity="0.3"/></filter><linearGradient id="alchBack" x1="0%" y1="0%" x2="0%" y2="100%">
      <stop offset="0%" stop-color="#0f0a05"/><stop offset="100%" stop-color="#070502"/>
    </linearGradient>
    <linearGradient id="stripG" x1="0%" y1="0%" x2="100%" y2="0%">
      <stop offset="0%" stop-color="#aa6600"/><stop offset="100%" stop-color="#ff9900"/>
    </linearGradient>
    <linearGradient id="potion1" x1="0%" y1="0%" x2="0%" y2="100%">
      <stop offset="0%" stop-color="#44ffcc"/><stop offset="100%" stop-color="#00aa88"/>
    </linearGradient>
    <linearGradient id="potion2" x1="0%" y1="0%" x2="0%" y2="100%">
      <stop offset="0%" stop-color="#ff44aa"/><stop offset="100%" stop-color="#aa0066"/>
    </linearGradient>
    <linearGradient id="potion3" x1="0%" y1="0%" x2="0%" y2="100%">
      <stop offset="0%" stop-color="#aa88ff"/><stop offset="100%" stop-color="#440088"/>
    </linearGradient>
    <filter id="potionGlow1" x="-40%" y="-40%" width="180%" height="180%">
      <feDropShadow dx="0" dy="0" stdDeviation="3" flood-color="#00ffcc" flood-opacity="0.9"/>
    </filter>
    <filter id="potionGlow2" x="-40%" y="-40%" width="180%" height="180%">
      <feDropShadow dx="0" dy="0" stdDeviation="3" flood-color="#ff44aa" flood-opacity="0.9"/>
    </filter>
    <filter id="potionGlow3" x="-40%" y="-40%" width="180%" height="180%">
      <feDropShadow dx="0" dy="0" stdDeviation="3" flood-color="#aa88ff" flood-opacity="0.9"/>
    </filter>
    <filter id="smokeG" x="-20%" y="-20%" width="140%" height="140%">
      <feGaussianBlur stdDeviation="1.5"/>
    </filter>
    <linearGradient id="stripG" x1="0%" y1="0%" x2="100%" y2="0%"><stop offset="0%" stop-color="#aa6600"/><stop offset="100%" stop-color="#ff9900"/></linearGradient>
    <clipPath id="frontClip"><path d="M22,98 L238,98 L238,232 Q238,244 226,244 L34,244 Q22,244 22,232 Z"/></clipPath>
  </defs><g filter="url(#fShadow)" style=""><path d="M22,60 Q22,44 32,44 L102,44 Q112,44 118,56 L134,78 L234,78 Q238,78 238,82 L238,232 Q238,244 226,244 L34,244 Q22,244 22,232 Z" fill="url(#folderBack)"/><line x1="30" y1="100" x2="230" y2="100" stroke="#000" stroke-opacity="0.06" stroke-width="0.5" style=""/><line x1="30" y1="140" x2="230" y2="140" stroke="#000" stroke-opacity="0.04" stroke-width="0.5" style=""/><line x1="30" y1="180" x2="230" y2="180" stroke="#000" stroke-opacity="0.03" stroke-width="0.5" style=""/></g><g filter="url(#pShadow)" transform="matrix(1, 0, 0, 1, -1.701021, 0.340202)" style=""><rect x="38" y="56" width="184" height="22" rx="2" ry="2" fill="url(#page2grad)"/><line x1="58" y1="63" x2="170" y2="63" stroke="#a8a498" stroke-width="1" stroke-opacity="0.5"/><line x1="58" y1="69" x2="145" y2="69" stroke="#a8a498" stroke-width="1" stroke-opacity="0.35"/></g><g filter="url(#pShadow)" transform="matrix(1, 0, 0, 1, -0.1701, 3.402037)" style=""><rect x="28" y="68" width="200" height="26" rx="2" ry="2" fill="url(#page1grad)"/><rect x="28" y="68" width="200" height="4" rx="2" ry="2" fill="url(#pageEdge)"/><line x1="48" y1="76" x2="185" y2="76" stroke="#b0ad9f" stroke-width="1.2" stroke-opacity="0.6"/><line x1="48" y1="82" x2="160" y2="82" stroke="#b0ad9f" stroke-width="1.2" stroke-opacity="0.45"/><line x1="48" y1="88" x2="120" y2="88" stroke="#b0ad9f" stroke-width="1.2" stroke-opacity="0.3"/><path d="M216,68 L228,68 L228,80 Z" fill="#c8c4b4" opacity="0.5"/><path d="M216,68 L228,80 L216,80 Z" fill="#e8e4d8" opacity="0.6"/></g>
  <!-- Colored strip at fold line -->
  <rect x="22" y="98" width="216" height="28" fill="url(#stripG)"/>
  <rect x="22" y="98" width="216" height="10" fill="#fff" opacity="0.12"/>
  
  <!-- Theme scene content -->
  <g clip-path="url(#frontClip)">
    <g transform="translate(22, 98) scale(2.5116, 2.9200) translate(-7, -48)">
      
    <rect x="7" y="48" width="86" height="50" fill="url(#alchBack)"/>
    <!-- Shelf -->
    <rect x="7" y="82" width="86" height="3" rx="1" fill="#2a1a0a"/>
    <!-- Arcane symbols on back wall -->
    <g font-family="serif" fill="#3a2a0a" opacity="0.4" font-size="8">
      <text x="12" y="65">☽</text><text x="25" y="62">✦</text>
      <text x="60" y="63">☿</text><text x="75" y="66">⊕</text>
      <text x="40" y="60">△</text>
    </g>
    <!-- Potion 1 - teal -->
    <g filter="url(#potionGlow1)">
      <path d="M22,82 Q18,76 18,72 Q18,65 22,65 L30,65 Q34,65 34,72 Q34,76 30,82 Z" fill="url(#potion1)"/>
      <rect x="23" y="62" width="6" height="4" rx="1" fill="#2a3a30"/>
      <ellipse cx="26" cy="70" rx="4" ry="3" fill="#88ffee" opacity="0.4"/>
    </g>
    <!-- Smoke from potion 1 -->
    <g filter="url(#smokeG)" opacity="0.5">
      <path d="M26,62 Q24,56 26,52 Q28,48 26,44" fill="none" stroke="#44ffcc" stroke-width="2.5" stroke-linecap="round"/>
      <path d="M26,60 Q29,55 27,51" fill="none" stroke="#44ffcc" stroke-width="1.5" stroke-linecap="round"/>
    </g>
    <!-- Potion 2 - pink -->
    <g filter="url(#potionGlow2)">
      <path d="M46,82 Q41,75 41,70 Q41,62 46,62 L56,62 Q61,62 61,70 Q61,75 56,82 Z" fill="url(#potion2)"/>
      <rect x="47" y="58" width="8" height="5" rx="1" fill="#2a1020"/>
      <ellipse cx="51" cy="68" rx="5" ry="3.5" fill="#ff88cc" opacity="0.35"/>
      <!-- Bubbles -->
      <circle cx="48" cy="72" r="1.5" fill="#ffaadd" opacity="0.6"/>
      <circle cx="54" cy="68" r="1"   fill="#ffaadd" opacity="0.5"/>
    </g>
    <!-- Smoke from potion 2 -->
    <g filter="url(#smokeG)" opacity="0.5">
      <path d="M51,58 Q49,52 51,48 Q53,44 51,40" fill="none" stroke="#ff44aa" stroke-width="2.5" stroke-linecap="round"/>
    </g>
    <!-- Potion 3 - purple -->
    <g filter="url(#potionGlow3)">
      <path d="M70,82 Q66,76 66,72 Q66,65 70,65 L78,65 Q82,65 82,72 Q82,76 78,82 Z" fill="url(#potion3)"/>
      <rect x="71" y="62" width="6" height="4" rx="1" fill="#1a1030"/>
      <ellipse cx="74" cy="70" rx="4" ry="3" fill="#ddbbff" opacity="0.35"/>
    </g>
    <!-- Book on shelf -->
    <rect x="82" y="68" width="7" height="14" rx="1" fill="#3a1a00" stroke="#6a3a00" stroke-width="0.8"/>
    <line x1="85" y1="68" x2="85" y2="82" stroke="#6a3a00" stroke-width="0.8"/>
    <!-- Arcane circle on floor -->
    <circle cx="50" cy="96" r="8" fill="none" stroke="#3a2a0a" stroke-width="0.8" opacity="0.5"/>
    <circle cx="50" cy="96" r="5" fill="none" stroke="#3a2a0a" stroke-width="0.8" opacity="0.4"/>
  
    </g>
  </g>
  
  <!-- Scene border -->
  <path d="M22,98 L238,98 L238,232 Q238,244 226,244 L34,244 Q22,244 22,232 Z" fill="none" stroke="#daa520" stroke-width="1.5" opacity="0.25"/>
  <!-- Top highlight on scene -->  
  <rect x="22" y="126" width="216" height="20" fill="#fff" opacity="0.03"/>
  <!-- Bottom shadow on scene -->
  <rect x="22" y="230" width="216" height="14" rx="5" fill="#000" opacity="0.15"/>

</svg>