<svg xmlns="http://www.w3.org/2000/svg" viewBox="0 0 100 100" width="256" height="256">
  <defs>
    
    <linearGradient id="skyG" x1="0%" y1="0%" x2="0%" y2="100%">
      <stop offset="0%" stop-color="#1a0a18"/><stop offset="100%" stop-color="#0d0510"/>
    </linearGradient>
    <linearGradient id="stripG" x1="0%" y1="0%" x2="100%" y2="0%">
      <stop offset="0%" stop-color="#ff88bb"/><stop offset="100%" stop-color="#cc4488"/>
    </linearGradient>
    <filter id="petalGlow" x="-30%" y="-30%" width="160%" height="160%">
      <feDropShadow dx="0" dy="0" stdDeviation="2" flood-color="#ff88cc" flood-opacity="0.8"/>
    </filter>
    <filter id="moonGlow" x="-50%" y="-50%" width="200%" height="200%">
      <feDropShadow dx="0" dy="0" stdDeviation="3" flood-color="#ffeecc" flood-opacity="0.8"/>
    </filter>
    <linearGradient id="page1grad" x1="0%" y1="0%" x2="0%" y2="100%">
      <stop offset="0%" stop-color="#f0ece0"/><stop offset="100%" stop-color="#d8d4c8"/>
    </linearGradient>
    <linearGradient id="page2grad" x1="0%" y1="0%" x2="0%" y2="100%">
      <stop offset="0%" stop-color="#e4e0d4"/><stop offset="100%" stop-color="#c8c4b8"/>
    </linearGradient>
    <filter id="fShadow">
      <feDropShadow dx="0" dy="3" stdDeviation="3.5" flood-color="#000" flood-opacity="0.7"/>
    </filter>
    <filter id="pShadow">
      <feDropShadow dx="0" dy="1" stdDeviation="1.5" flood-color="#000" flood-opacity="0.35"/>
    </filter>
  </defs>
  <g filter="url(#fShadow)">
    <path d="M7,22 Q7,17 12,17 L40,17 Q45,17 47,22 L53,30 L93,30 L93,93 Q93,98 88,98 L12,98 Q7,98 7,93 Z" fill="#1a0a18"/>
  </g>
  <g filter="url(#pShadow)">
    <rect x="14" y="27" width="72" height="5" rx="1.5" fill="url(#page2grad)"/>
  </g>
  <g filter="url(#pShadow)">
    <rect x="14" y="31" width="72" height="5" rx="1.5" fill="url(#page1grad)"/>
  </g>
  <rect x="7" y="36" width="86" height="12" fill="url(#stripG)"/><rect x="7" y="36" width="86" height="4.5" fill="#fff" opacity="0.15"/>
  <clipPath id="bodyClip"><rect x="7" y="48" width="86" height="50" rx="5"/></clipPath>
  <rect x="7" y="48" width="86" height="50" rx="5" fill="#0d0510"/>
  
  <g clip-path="url(#bodyClip)">
    <rect x="7" y="48" width="86" height="50" fill="url(#skyG)"/>
    <g filter="url(#moonGlow)">
      <circle cx="75" cy="58" r="9" fill="#fff8ee"/>
      <circle cx="79" cy="55" r="7" fill="#0d0510"/>
    </g>
    <!-- Branch -->
    <path d="M7,98 Q20,80 30,70 Q38,62 50,58" fill="none" stroke="#3a1a28" stroke-width="3.5" stroke-linecap="round"/>
    <path d="M30,70 Q35,60 32,52" fill="none" stroke="#3a1a28" stroke-width="2" stroke-linecap="round"/>
    <path d="M40,64 Q48,56 46,50" fill="none" stroke="#3a1a28" stroke-width="1.8" stroke-linecap="round"/>
    <!-- Blossoms on branch -->
    <g filter="url(#petalGlow)">
      <circle cx="32" cy="52" r="4" fill="#ff99cc" opacity="0.9"/>
      <circle cx="30" cy="50" r="2.5" fill="#ffbbdd"/>
      <circle cx="34" cy="50" r="2.5" fill="#ff88bb"/>
      <circle cx="31" cy="54" r="2"   fill="#ffbbdd"/>
      <circle cx="35" cy="53" r="2"   fill="#ff99cc"/>
      <circle cx="46" cy="50" r="3.5" fill="#ff99cc" opacity="0.9"/>
      <circle cx="44" cy="49" r="2.2" fill="#ffbbdd"/>
      <circle cx="48" cy="49" r="2.2" fill="#ff88bb"/>
      <circle cx="50" cy="58" r="3"   fill="#ff99cc" opacity="0.8"/>
    </g>
    <!-- Falling petals -->
    <g filter="url(#petalGlow)" opacity="0.8">
      <ellipse cx="20" cy="65" rx="2.5" ry="1.5" fill="#ffaad4" transform="rotate(-30,20,65)"/>
      <ellipse cx="55" cy="62" rx="2"   ry="1.2" fill="#ffbbdd" transform="rotate(20,55,62)"/>
      <ellipse cx="65" cy="72" rx="2.5" ry="1.5" fill="#ff99cc" transform="rotate(-15,65,72)"/>
      <ellipse cx="40" cy="80" rx="2"   ry="1.2" fill="#ffaad4" transform="rotate(40,40,80)"/>
      <ellipse cx="78" cy="78" rx="2.5" ry="1.5" fill="#ffbbdd" transform="rotate(-25,78,78)"/>
      <ellipse cx="18" cy="85" rx="2"   ry="1.2" fill="#ff99cc" transform="rotate(15,18,85)"/>
      <ellipse cx="60" cy="88" rx="2.5" ry="1.5" fill="#ffaad4" transform="rotate(-10,60,88)"/>
      <ellipse cx="85" cy="65" rx="2"   ry="1.2" fill="#ffbbdd" transform="rotate(35,85,65)"/>
    </g>
    <!-- Reflection pond -->
    <ellipse cx="50" cy="96" rx="30" ry="4" fill="#2a0a22" opacity="0.6"/>
    <path d="M30,95 Q40,93 50,95 Q60,97 70,95" fill="none" stroke="#ff88bb" stroke-width="0.8" opacity="0.3"/>
  </g>
  <rect x="7" y="48" width="86" height="50" rx="5" fill="none" stroke="#ff88bb" stroke-width="1.2" opacity="0.3"/>
  <rect x="7" y="48" width="86" height="12" rx="5" fill="#fff" opacity="0.04"/>
  <rect x="7" y="90" width="86" height="8" rx="5" fill="#000" opacity="0.2"/>
</svg>