<svg xmlns="http://www.w3.org/2000/svg" viewBox="0 0 100 100" width="256" height="256">
  <defs>
    
    <linearGradient id="parchment" x1="0%" y1="0%" x2="100%" y2="100%">
      <stop offset="0%" stop-color="#2a1f0a"/><stop offset="100%" stop-color="#1a1205"/>
    </linearGradient>
    <linearGradient id="stripG" x1="0%" y1="0%" x2="100%" y2="0%">
      <stop offset="0%" stop-color="#c8860a"/><stop offset="100%" stop-color="#7a4a00"/>
    </linearGradient>
    <filter id="goldGlow" x="-20%" y="-20%" width="140%" height="140%">
      <feDropShadow dx="0" dy="0" stdDeviation="2.5" flood-color="#ffaa00" flood-opacity="0.9"/>
    </filter>
    <filter id="redGlow" x="-40%" y="-40%" width="180%" height="180%">
      <feDropShadow dx="0" dy="0" stdDeviation="3" flood-color="#ff2200" flood-opacity="0.9"/>
    </filter>
    <linearGradient id="page1grad" x1="0%" y1="0%" x2="0%" y2="100%">
      <stop offset="0%" stop-color="#f0ece0"/><stop offset="100%" stop-color="#d8d4c8"/>
    </linearGradient>
    <linearGradient id="page2grad" x1="0%" y1="0%" x2="0%" y2="100%">
      <stop offset="0%" stop-color="#e4e0d4"/><stop offset="100%" stop-color="#c8c4b8"/>
    </linearGradient>
    <filter id="fShadow">
      <feDropShadow dx="0" dy="3" stdDeviation="3.5" flood-color="#000" flood-opacity="0.7"/>
    </filter>
    <filter id="pShadow">
      <feDropShadow dx="0" dy="1" stdDeviation="1.5" flood-color="#000" flood-opacity="0.35"/>
    </filter>
  </defs>
  <g filter="url(#fShadow)">
    <path d="M7,22 Q7,17 12,17 L40,17 Q45,17 47,22 L53,30 L93,30 L93,93 Q93,98 88,98 L12,98 Q7,98 7,93 Z"
          fill="#2a1f0a"/>
  </g>
  <g filter="url(#pShadow)">
    <rect x="14" y="27" width="72" height="5" rx="1.5" fill="url(#page2grad)"/>
  </g>
  <g filter="url(#pShadow)">
    <rect x="14" y="31" width="72" height="5" rx="1.5" fill="url(#page1grad)"/>
  </g>
  <rect x="7" y="36" width="86" height="12" fill="url(#stripG)"/><rect x="7" y="36" width="86" height="4.5" fill="#fff" opacity="0.1"/>
  <clipPath id="bodyClip"><rect x="7" y="48" width="86" height="50" rx="5"/></clipPath>
  <rect x="7" y="48" width="86" height="50" rx="5" fill="#1a1205"/>
  
  <g clip-path="url(#bodyClip)">
    <rect x="7" y="48" width="86" height="50" fill="url(#parchment)"/>
    <!-- Map texture lines -->
    <g stroke="#3a2a0a" stroke-width="0.6" opacity="0.5">
      <line x1="7" y1="55" x2="93" y2="55"/>
      <line x1="7" y1="62" x2="93" y2="62"/>
      <line x1="7" y1="69" x2="93" y2="69"/>
      <line x1="7" y1="76" x2="93" y2="76"/>
      <line x1="7" y1="83" x2="93" y2="83"/>
      <line x1="7" y1="90" x2="93" y2="90"/>
    </g>
    <!-- Coastline shape -->
    <g filter="url(#goldGlow)">
      <path d="M15,55 Q20,58 18,65 Q16,72 22,75 Q28,78 25,85 Q22,90 28,95 L15,95 Z"
            fill="#c8860a" opacity="0.25" stroke="#c8860a" stroke-width="1.2"/>
      <path d="M35,55 Q50,52 60,56 Q68,60 65,68 Q62,76 70,78 Q78,80 75,90 Q72,96 80,98 L35,98 Z"
            fill="#c8860a" opacity="0.2" stroke="#c8860a" stroke-width="1"/>
    </g>
    <!-- Compass rose -->
    <g filter="url(#goldGlow)">
      <circle cx="78" cy="62" r="8" fill="none" stroke="#c8860a" stroke-width="1"/>
      <line x1="78" y1="54" x2="78" y2="70" stroke="#c8860a" stroke-width="1.5" stroke-linecap="round"/>
      <line x1="70" y1="62" x2="86" y2="62" stroke="#c8860a" stroke-width="1.5" stroke-linecap="round"/>
      <polygon points="78,54 76,59 78,58 80,59" fill="#ffcc44"/>
      <text x="76" y="53" font-family="serif" font-size="4" fill="#ffcc44">N</text>
    </g>
    <!-- X marks the spot -->
    <g filter="url(#redGlow)">
      <line x1="44" y1="72" x2="54" y2="82" stroke="#ff3300" stroke-width="3" stroke-linecap="round"/>
      <line x1="54" y1="72" x2="44" y2="82" stroke="#ff3300" stroke-width="3" stroke-linecap="round"/>
      <circle cx="49" cy="77" r="6" fill="none" stroke="#ff3300" stroke-width="1.2" opacity="0.5"/>
    </g>
    <!-- Dotted trail -->
    <path d="M20,80 Q30,70 42,74" fill="none" stroke="#c8860a" stroke-width="1.2" stroke-dasharray="2,2" opacity="0.6"/>
  </g>
  <rect x="7" y="48" width="86" height="50" rx="5" fill="none" stroke="#c8860a" stroke-width="1.2" opacity="0.3"/>
  <rect x="7" y="48" width="86" height="12" rx="5" fill="#fff" opacity="0.04"/>
  <rect x="7" y="90" width="86" height="8" rx="5" fill="#000" opacity="0.2"/>
</svg>