<?xml version="1.0" encoding="utf-8"?>
<svg xmlns="http://www.w3.org/2000/svg" width="256" height="256" viewBox="21.044 43.62 217.747 200.581" xmlns:bx="https://boxy-svg.com" preserveAspectRatio="none"><defs><linearGradient id="folderBack" x1="0%" y1="0%" x2="15%" y2="100%"><stop offset="0" stop-color="#1a5028"/><stop offset="0.4" stop-color="#0e3418"/><stop offset="1" stop-color="#051a0a"/></linearGradient><linearGradient id="folderFront" x1="0%" y1="0%" x2="5%" y2="100%"><stop offset="0" style="stop-color: rgb(32, 98, 48);"/><stop offset="0.35" style="stop-color: rgb(18, 65, 30);"/><stop offset="1" stop-color="#0a2a12"/></linearGradient><linearGradient id="folderFrontHighlight" x1="0%" y1="0%" x2="0%" y2="100%"><stop offset="0" stop-color="#d0ffd8" stop-opacity="0.45"/><stop offset="0.15" stop-color="#fff" stop-opacity="0"/></linearGradient><linearGradient id="tabHighlight" x1="0%" y1="0%" x2="0%" y2="100%"><stop offset="0" stop-color="#55bb66" stop-opacity="0.7"/><stop offset="1" stop-color="#1a5028" stop-opacity="0"/></linearGradient><linearGradient id="page1grad" x1="0%" y1="0%" x2="0%" y2="100%"><stop offset="0" stop-color="#f2f0ea"/><stop offset="1" stop-color="#ddd9cc"/></linearGradient><linearGradient id="page2grad" x1="0%" y1="0%" x2="0%" y2="100%"><stop offset="0" stop-color="#ccc9bf"/><stop offset="1" stop-color="#b8b4a8"/></linearGradient><linearGradient id="pageEdge" x1="0%" y1="0%" x2="0%" y2="100%"><stop offset="0" stop-color="#fff" stop-opacity="0.6"/><stop offset="1" stop-color="#fff" stop-opacity="0"/></linearGradient><linearGradient id="innerShadow" x1="0%" y1="0%" x2="0%" y2="100%"><stop offset="0" stop-color="#000" stop-opacity="0.25"/><stop offset="0.12" stop-color="#000" stop-opacity="0"/></linearGradient><filter id="fShadow" x="-10%" y="-10%" width="130%" height="140%"><feDropShadow dx="0" dy="6" stdDeviation="6" flood-color="#000" flood-opacity="0.5"/></filter><filter id="pShadow" x="-5%" y="-15%" width="115%" height="140%"><feDropShadow dx="0" dy="2" stdDeviation="2.5" flood-color="#000" flood-opacity="0.3"/></filter>
    <linearGradient id="stripG" x1="0%" y1="0%" x2="100%" y2="0%"><stop offset="0%" stop-color="#44bb55"/><stop offset="100%" stop-color="#228833"/></linearGradient>
    <linearGradient id="picBg" x1="0%" y1="0%" x2="0%" y2="100%"><stop offset="0%" stop-color="#0a2010"/><stop offset="100%" stop-color="#051008"/></linearGradient>
    <filter id="picGlow" x="-20%" y="-20%" width="140%" height="140%"><feDropShadow dx="0" dy="0" stdDeviation="2" flood-color="#55bb66" flood-opacity="0.5"/></filter>
    
<clipPath id="frontClip"><path d="M22,98 L238,98 L238,232 Q238,244 226,244 L34,244 Q22,244 22,232 Z"/></clipPath>
  </defs><g filter="url(#fShadow)" style=""><path d="M22,60 Q22,44 32,44 L102,44 Q112,44 118,56 L134,78 L234,78 Q238,78 238,82 L238,232 Q238,244 226,244 L34,244 Q22,244 22,232 Z" fill="url(#folderBack)"/><line x1="30" y1="100" x2="230" y2="100" stroke="#000" stroke-opacity="0.06" stroke-width="0.5" style=""/><line x1="30" y1="140" x2="230" y2="140" stroke="#000" stroke-opacity="0.04" stroke-width="0.5" style=""/><line x1="30" y1="180" x2="230" y2="180" stroke="#000" stroke-opacity="0.03" stroke-width="0.5" style=""/></g><g filter="url(#pShadow)" transform="matrix(1, 0, 0, 1, -1.701021, 0.340202)" style=""><rect x="38" y="56" width="184" height="22" rx="2" ry="2" fill="url(#page2grad)"/><line x1="58" y1="63" x2="170" y2="63" stroke="#a8a498" stroke-width="1" stroke-opacity="0.5"/><line x1="58" y1="69" x2="145" y2="69" stroke="#a8a498" stroke-width="1" stroke-opacity="0.35"/></g><g filter="url(#pShadow)" transform="matrix(1, 0, 0, 1, -0.1701, 3.402037)" style=""><rect x="28" y="68" width="200" height="26" rx="2" ry="2" fill="url(#page1grad)"/><rect x="28" y="68" width="200" height="4" rx="2" ry="2" fill="url(#pageEdge)"/><line x1="48" y1="76" x2="185" y2="76" stroke="#b0ad9f" stroke-width="1.2" stroke-opacity="0.6"/><line x1="48" y1="82" x2="160" y2="82" stroke="#b0ad9f" stroke-width="1.2" stroke-opacity="0.45"/><line x1="48" y1="88" x2="120" y2="88" stroke="#b0ad9f" stroke-width="1.2" stroke-opacity="0.3"/><path d="M216,68 L228,68 L228,80 Z" fill="#c8c4b4" opacity="0.5"/><path d="M216,68 L228,80 L216,80 Z" fill="#e8e4d8" opacity="0.6"/></g>
  <!-- Colored strip -->
  <rect x="22" y="98" width="216" height="28" fill="url(#stripG)"/>
  <rect x="22" y="98" width="216" height="10" fill="#fff" opacity="0.12"/>
  <!-- Scene -->
  <g clip-path="url(#frontClip)">
    
    <rect x="22" y="98" width="216" height="146" fill="url(#picBg)"/>
    <!-- Back polaroid tilted -->
    <g transform="rotate(12, 160, 170)" filter="url(#picGlow)">
      <rect x="130" y="120" width="80" height="95" rx="3" fill="#f8f6f0" stroke="#d0ccc0" stroke-width="1.5"/>
      <rect x="136" y="126" width="68" height="62" rx="2" fill="#7dcea0"/>
      <rect x="136" y="126" width="68" height="20" fill="#85c1e9" opacity="0.7"/>
    </g>
    <!-- Middle polaroid -->
    <g transform="rotate(-8, 100, 170)" filter="url(#picGlow)">
      <rect x="65" y="115" width="80" height="95" rx="3" fill="#faf8f2" stroke="#d4d0c4" stroke-width="1.5"/>
      <rect x="71" y="121" width="68" height="62" rx="2" fill="#85c1e9"/>
      <rect x="71" y="121" width="68" height="20" fill="#ff7043" opacity="0.5"/>
    </g>
    <!-- Front polaroid -->
    <g filter="url(#picGlow)">
      <rect x="80" y="118" width="100" height="110" rx="4" fill="#fff" stroke="#e0dcd0" stroke-width="1.5"/>
      <!-- Photo scene -->
      <rect x="88" y="126" width="84" height="68" rx="2" fill="#56b3e8"/>
      <rect x="88" y="126" width="84" height="24" fill="#ff7043" opacity="0.65"/>
      <rect x="88" y="126" width="84" height="12" fill="#ff5252" opacity="0.45"/>
      <!-- Sun -->
      <circle cx="148" cy="138" r="10" fill="#ffd54f"/>
      <circle cx="148" cy="138" r="7" fill="#ffe082"/>
      <!-- Hills -->
      <polygon points="88,168 105,148 120,164 138,144 155,158 172,150 172,194 88,194" fill="#2e7d32" opacity="0.85"/>
      <polygon points="88,174 108,158 126,172 150,160 172,168 172,194 88,194" fill="#1b5e20" opacity="0.75"/>
      <!-- Flowers -->
      <circle cx="102" cy="180" r="3.5" fill="#e91e63" opacity="0.8"/>
      <circle cx="114" cy="184" r="2.5" fill="#ff9800" opacity="0.7"/>
      <circle cx="130" cy="182" r="3" fill="#e91e63" opacity="0.65"/>
      <circle cx="148" cy="178" r="2.5" fill="#ffc107" opacity="0.7"/>
      <circle cx="160" cy="182" r="3" fill="#e91e63" opacity="0.6"/>
      <!-- Polaroid bottom -->
      <rect x="88" y="194" width="84" height="26" fill="#fff"/>
      <!-- Camera lens icon -->
      <circle cx="130" cy="208" r="8" fill="none" stroke="#888" stroke-width="2"/>
      <circle cx="130" cy="208" r="5" fill="none" stroke="#aaa" stroke-width="1"/>
      <circle cx="130" cy="208" r="2" fill="#555"/>
      <circle cx="133" cy="205" r="1.5" fill="#fff" opacity="0.5"/>
    </g>

  </g>
  <path d="M22,98 L238,98 L238,232 Q238,244 226,244 L34,244 Q22,244 22,232 Z" fill="none" stroke="#55bb66" stroke-width="1.5" opacity="0.25"/>
  <rect x="22" y="126" width="216" height="20" fill="#fff" opacity="0.03"/>
  <rect x="22" y="230" width="216" height="14" rx="5" fill="#000" opacity="0.15"/>

</svg>