<?xml version="1.0" encoding="utf-8"?>
<svg xmlns="http://www.w3.org/2000/svg" width="256" height="256" viewBox="21.044 43.62 217.747 200.581" xmlns:bx="https://boxy-svg.com" preserveAspectRatio="none"><defs><linearGradient id="folderBack" x1="0%" y1="0%" x2="15%" y2="100%"><stop offset="0" stop-color="#6a3a00"/><stop offset="0.4" stop-color="#402200"/><stop offset="1" stop-color="#1a0e00"/></linearGradient><linearGradient id="page1grad" x1="0%" y1="0%" x2="0%" y2="100%"><stop offset="0" stop-color="#f2f0ea"/><stop offset="1" stop-color="#ddd9cc"/></linearGradient><linearGradient id="page2grad" x1="0%" y1="0%" x2="0%" y2="100%"><stop offset="0" stop-color="#ccc9bf"/><stop offset="1" stop-color="#b8b4a8"/></linearGradient><linearGradient id="pageEdge" x1="0%" y1="0%" x2="0%" y2="100%"><stop offset="0" stop-color="#fff" stop-opacity="0.6"/><stop offset="1" stop-color="#fff" stop-opacity="0"/></linearGradient><filter id="fShadow" x="-10%" y="-10%" width="130%" height="140%"><feDropShadow dx="0" dy="6" stdDeviation="6" flood-color="#000" flood-opacity="0.5"/></filter><filter id="pShadow" x="-5%" y="-15%" width="115%" height="140%"><feDropShadow dx="0" dy="2" stdDeviation="2.5" flood-color="#000" flood-opacity="0.3"/></filter><linearGradient id="stripG" x1="0%" y1="0%" x2="100%" y2="0%"><stop offset="0" stop-color="#dd8822"/><stop offset="1" stop-color="#aa6611"/></linearGradient><linearGradient id="fmBg" x1="0%" y1="0%" x2="0%" y2="100%"><stop offset="0" stop-color="#1a1008"/><stop offset="1" stop-color="#0e0804"/></linearGradient><filter id="warmGlow" x="-20%" y="-20%" width="140%" height="140%"><feDropShadow dx="0" dy="0" stdDeviation="3" flood-color="#ff8800" flood-opacity="0.5"/></filter><clipPath id="frontClip"><path d="M22,98 L238,98 L238,232 Q238,244 226,244 L34,244 Q22,244 22,232 Z"/></clipPath><radialGradient id="lanternGlow" cx="50%" cy="58%" r="50%"><stop offset="0" stop-color="#fff4a0"/><stop offset="0.25" stop-color="#ffe066"/><stop offset="0.6" stop-color="#f0a030"/><stop offset="1" stop-color="#7a3800"/></radialGradient><linearGradient id="frameGrad" x1="0%" y1="0%" x2="100%" y2="100%"><stop offset="0" stop-color="#6a6a6a"/><stop offset="1" stop-color="#2a2a2a"/></linearGradient><filter id="lanternGlowFilter" x="-40%" y="-40%" width="180%" height="180%"><feDropShadow dx="0" dy="0" stdDeviation="4" flood-color="#f0a030" flood-opacity="0.8"/></filter></defs><g filter="url(#fShadow)" style=""><path d="M22,60 Q22,44 32,44 L102,44 Q112,44 118,56 L134,78 L234,78 Q238,78 238,82 L238,232 Q238,244 226,244 L34,244 Q22,244 22,232 Z" fill="url(#folderBack)"/><line x1="30" y1="100" x2="230" y2="100" stroke="#000" stroke-opacity="0.06" stroke-width="0.5" style=""/><line x1="30" y1="140" x2="230" y2="140" stroke="#000" stroke-opacity="0.04" stroke-width="0.5" style=""/><line x1="30" y1="180" x2="230" y2="180" stroke="#000" stroke-opacity="0.03" stroke-width="0.5" style=""/></g><g filter="url(#pShadow)" transform="matrix(1, 0, 0, 1, -1.701021, 0.340202)" style=""><rect x="38" y="56" width="184" height="22" rx="2" ry="2" fill="url(#page2grad)"/><line x1="58" y1="63" x2="170" y2="63" stroke="#a8a498" stroke-width="1" stroke-opacity="0.5"/><line x1="58" y1="69" x2="145" y2="69" stroke="#a8a498" stroke-width="1" stroke-opacity="0.35"/></g><g filter="url(#pShadow)" transform="matrix(1, 0, 0, 1, -0.1701, 3.402037)" style=""><rect x="28" y="68" width="200" height="26" rx="2" ry="2" fill="url(#page1grad)"/><rect x="28" y="68" width="200" height="4" rx="2" ry="2" fill="url(#pageEdge)"/><line x1="48" y1="76" x2="185" y2="76" stroke="#b0ad9f" stroke-width="1.2" stroke-opacity="0.6"/><line x1="48" y1="82" x2="160" y2="82" stroke="#b0ad9f" stroke-width="1.2" stroke-opacity="0.45"/><line x1="48" y1="88" x2="120" y2="88" stroke="#b0ad9f" stroke-width="1.2" stroke-opacity="0.3"/><path d="M216,68 L228,68 L228,80 Z" fill="#c8c4b4" opacity="0.5"/><path d="M216,68 L228,80 L216,80 Z" fill="#e8e4d8" opacity="0.6"/></g><rect x="22" y="98" width="216" height="28" fill="url(#stripG)"/><rect x="22" y="98" width="216" height="10" fill="#fff" opacity="0.12"/><g clip-path="url(#frontClip)"><rect x="22" y="98" width="216" height="146" fill="url(#fmBg)"/><ellipse cx="130" cy="175" rx="80" ry="50" fill="#ff8800" opacity="0.05"/><ellipse cx="130" cy="170" rx="50" ry="35" fill="#ffaa00" opacity="0.06"/><g filter="url(#warmGlow)" opacity="0.5"><rect x="50" y="160" width="20" height="16" rx="2" fill="#cc8833"/><rect x="50" y="156" width="10" height="6" rx="1" fill="#cc8833"/><rect x="190" y="155" width="20" height="16" rx="2" fill="#cc8833"/><rect x="190" y="151" width="10" height="6" rx="1" fill="#cc8833"/><rect x="60" y="200" width="18" height="14" rx="2" fill="#aa7722"/><rect x="60" y="196" width="9" height="5" rx="1" fill="#aa7722"/><rect x="182" y="196" width="18" height="14" rx="2" fill="#aa7722"/><rect x="182" y="192" width="9" height="5" rx="1" fill="#aa7722"/></g></g><path d="M22,98 L238,98 L238,232 Q238,244 226,244 L34,244 Q22,244 22,232 Z" fill="none" stroke="#dd9930" stroke-width="1.5" opacity="0.25"/><rect x="22" y="126" width="216" height="20" fill="#fff" opacity="0.03"/><rect x="22" y="230" width="216" height="14" rx="5" fill="#000" opacity="0.15"/><g filter="url(#lanternGlowFilter)" transform="matrix(3.674393, 0, 0, 3.155545, -53.802143, -63.776722)" style=""><path d="M43,56 Q50,49 57,56" fill="none" stroke="url(#frameGrad)" stroke-width="2.5" stroke-linecap="round"/><rect x="37" y="55" width="26" height="5" rx="2" fill="#4a4a4a"/><path d="M37,60 L63,60 L60,90 L40,90 Z" fill="#1e1e1e"/><rect x="46" y="79.745" width="8" height="9.255" rx="1.5" fill="#f0ece0" style=""/><rect x="46" y="79.745" width="2.5" height="9.255" rx="1" fill="#d8d4c8" opacity="0.5" style=""/><ellipse cx="50" cy="79.745" rx="4" ry="1.388" fill="#e8e4d8" style=""/><line x1="50" y1="79" x2="50" y2="76.743" stroke="#2a1a0a" stroke-width="1.2" stroke-linecap="round" style=""/><path d="M 50.278 62.998 C 48.538 67.259 43.713 68.818 44.355 73.162 C 44.997 77.505 47.318 79.314 49.761 77.672 C 52.082 79.481 54.525 77.837 55.47 73.55 C 56.416 69.262 51.713 67.369 50.278 62.998 Z" fill="url(#lanternGlow)" opacity="0.97" style="transform-origin: 50.008px 70.666px 0px;"/><path d="M 50.081 65.435 C 49.166 68.861 45.93 70.476 46.602 73.956 C 47.305 76.573 48.863 77.492 49.687 76.656 C 50.45 77.547 52.068 76.74 52.954 74.178 C 53.869 70.753 50.754 68.916 50.081 65.435 Z" fill="#fff8a0" opacity="0.7" style="transform-origin: 49.842px 72.24px 0px;"/><ellipse cx="50.575" cy="63.012" rx="1.589" ry="2.591" fill="#fff" opacity="0.5" style="transform-origin: 50.575px 67.431px 0px;" transform="matrix(-0.99939, -0.034932, 0.03518, -0.999381, -0.567222, 1.28375)"/><line x1="37" y1="60" x2="40" y2="90" stroke="url(#frameGrad)" stroke-width="2"/><line x1="63" y1="60" x2="60" y2="90" stroke="url(#frameGrad)" stroke-width="2"/><line x1="37" y1="60" x2="63" y2="60" stroke="#4a4a4a" stroke-width="1.8"/><line x1="37.5" y1="70" x2="62.5" y2="70" stroke="#4a4a4a" stroke-width="1.8"/><line x1="38.5" y1="80" x2="61.5" y2="80" stroke="#4a4a4a" stroke-width="1.8"/><line x1="40" y1="90" x2="60" y2="90" stroke="#4a4a4a" stroke-width="1.8"/><line x1="37" y1="60" x2="50" y2="70" stroke="#3a3a3a" stroke-width="1" opacity="0.7"/><line x1="63" y1="60" x2="50" y2="70" stroke="#3a3a3a" stroke-width="1" opacity="0.7"/><line x1="40" y1="90" x2="50" y2="80" stroke="#3a3a3a" stroke-width="1" opacity="0.7"/><line x1="60" y1="90" x2="50" y2="80" stroke="#3a3a3a" stroke-width="1" opacity="0.7"/><rect x="38" y="90" width="24" height="4" rx="1.5" fill="#3a3a3a"/><rect x="41" y="94" width="18" height="3" rx="1.5" fill="#2a2a2a"/></g></svg>