<?xml version="1.0" encoding="utf-8"?>
<svg xmlns="http://www.w3.org/2000/svg" width="256" height="256" viewBox="21.044 43.62 217.747 200.581" xmlns:bx="https://boxy-svg.com" preserveAspectRatio="none"><defs><linearGradient id="folderBack" x1="0%" y1="0%" x2="15%" y2="100%"><stop offset="0" stop-color="#2a4060"/><stop offset="0.4" stop-color="#1a2840"/><stop offset="1" stop-color="#0a1420"/></linearGradient><linearGradient id="folderFront" x1="0%" y1="0%" x2="5%" y2="100%"><stop offset="0" style="stop-color: rgb(50, 78, 115);"/><stop offset="0.35" style="stop-color: rgb(32, 52, 80);"/><stop offset="1" stop-color="#0e1e38"/></linearGradient><linearGradient id="folderFrontHighlight" x1="0%" y1="0%" x2="0%" y2="100%"><stop offset="0" stop-color="#d8e8ff" stop-opacity="0.45"/><stop offset="0.15" stop-color="#fff" stop-opacity="0"/></linearGradient><linearGradient id="tabHighlight" x1="0%" y1="0%" x2="0%" y2="100%"><stop offset="0" stop-color="#6699cc" stop-opacity="0.7"/><stop offset="1" stop-color="#2a4060" stop-opacity="0"/></linearGradient><linearGradient id="page1grad" x1="0%" y1="0%" x2="0%" y2="100%"><stop offset="0" stop-color="#f2f0ea"/><stop offset="1" stop-color="#ddd9cc"/></linearGradient><linearGradient id="page2grad" x1="0%" y1="0%" x2="0%" y2="100%"><stop offset="0" stop-color="#ccc9bf"/><stop offset="1" stop-color="#b8b4a8"/></linearGradient><linearGradient id="pageEdge" x1="0%" y1="0%" x2="0%" y2="100%"><stop offset="0" stop-color="#fff" stop-opacity="0.6"/><stop offset="1" stop-color="#fff" stop-opacity="0"/></linearGradient><linearGradient id="innerShadow" x1="0%" y1="0%" x2="0%" y2="100%"><stop offset="0" stop-color="#000" stop-opacity="0.25"/><stop offset="0.12" stop-color="#000" stop-opacity="0"/></linearGradient><filter id="fShadow" x="-10%" y="-10%" width="130%" height="140%"><feDropShadow dx="0" dy="6" stdDeviation="6" flood-color="#000" flood-opacity="0.5"/></filter><filter id="pShadow" x="-5%" y="-15%" width="115%" height="140%"><feDropShadow dx="0" dy="2" stdDeviation="2.5" flood-color="#000" flood-opacity="0.3"/></filter>
    <linearGradient id="stripG" x1="0%" y1="0%" x2="100%" y2="0%"><stop offset="0%" stop-color="#4488cc"/><stop offset="100%" stop-color="#2255aa"/></linearGradient>
    <linearGradient id="deskSky" x1="0%" y1="0%" x2="0%" y2="100%"><stop offset="0%" stop-color="#1a1040"/><stop offset="40%" stop-color="#2a1850"/><stop offset="100%" stop-color="#0a0818"/></linearGradient>
    <filter id="monGlow" x="-20%" y="-20%" width="140%" height="140%"><feDropShadow dx="0" dy="0" stdDeviation="3" flood-color="#4488cc" flood-opacity="0.7"/></filter>
    <filter id="widgetGlow" x="-20%" y="-20%" width="140%" height="140%"><feDropShadow dx="0" dy="0" stdDeviation="2" flood-color="#00ccff" flood-opacity="0.6"/></filter>
    
<clipPath id="frontClip"><path d="M22,98 L238,98 L238,232 Q238,244 226,244 L34,244 Q22,244 22,232 Z"/></clipPath>
  </defs><g filter="url(#fShadow)" style=""><path d="M22,60 Q22,44 32,44 L102,44 Q112,44 118,56 L134,78 L234,78 Q238,78 238,82 L238,232 Q238,244 226,244 L34,244 Q22,244 22,232 Z" fill="url(#folderBack)"/><line x1="30" y1="100" x2="230" y2="100" stroke="#000" stroke-opacity="0.06" stroke-width="0.5" style=""/><line x1="30" y1="140" x2="230" y2="140" stroke="#000" stroke-opacity="0.04" stroke-width="0.5" style=""/><line x1="30" y1="180" x2="230" y2="180" stroke="#000" stroke-opacity="0.03" stroke-width="0.5" style=""/></g><g filter="url(#pShadow)" transform="matrix(1, 0, 0, 1, -1.701021, 0.340202)" style=""><rect x="38" y="56" width="184" height="22" rx="2" ry="2" fill="url(#page2grad)"/><line x1="58" y1="63" x2="170" y2="63" stroke="#a8a498" stroke-width="1" stroke-opacity="0.5"/><line x1="58" y1="69" x2="145" y2="69" stroke="#a8a498" stroke-width="1" stroke-opacity="0.35"/></g><g filter="url(#pShadow)" transform="matrix(1, 0, 0, 1, -0.1701, 3.402037)" style=""><rect x="28" y="68" width="200" height="26" rx="2" ry="2" fill="url(#page1grad)"/><rect x="28" y="68" width="200" height="4" rx="2" ry="2" fill="url(#pageEdge)"/><line x1="48" y1="76" x2="185" y2="76" stroke="#b0ad9f" stroke-width="1.2" stroke-opacity="0.6"/><line x1="48" y1="82" x2="160" y2="82" stroke="#b0ad9f" stroke-width="1.2" stroke-opacity="0.45"/><line x1="48" y1="88" x2="120" y2="88" stroke="#b0ad9f" stroke-width="1.2" stroke-opacity="0.3"/><path d="M216,68 L228,68 L228,80 Z" fill="#c8c4b4" opacity="0.5"/><path d="M216,68 L228,80 L216,80 Z" fill="#e8e4d8" opacity="0.6"/></g>
  <!-- Colored strip -->
  <rect x="22" y="98" width="216" height="28" fill="url(#stripG)"/>
  <rect x="22" y="98" width="216" height="10" fill="#fff" opacity="0.12"/>
  <!-- Scene -->
  <g clip-path="url(#frontClip)">
    
    <rect x="22" y="98" width="216" height="146" fill="url(#deskSky)"/>
    <!-- Wallpaper aurora effect -->
    <ellipse cx="130" cy="140" rx="90" ry="30" fill="#2255aa" opacity="0.3"/>
    <ellipse cx="130" cy="145" rx="60" ry="20" fill="#4488cc" opacity="0.2"/>
    <!-- Monitor -->
    <g filter="url(#monGlow)">
      <rect x="60" y="115" width="140" height="90" rx="6" fill="#1a1a2e" stroke="#4488cc" stroke-width="2"/>
      <!-- Screen -->
      <rect x="68" y="121" width="124" height="72" rx="3" fill="#0d1828"/>
      <!-- Desktop wallpaper gradient -->
      <rect x="68" y="121" width="124" height="30" rx="3" fill="#1a3a60" opacity="0.8"/>
      <rect x="68" y="121" width="124" height="15" rx="3" fill="#2a5580" opacity="0.5"/>
      <!-- Desktop icons grid -->
      <rect x="76" y="130" width="10" height="10" rx="2" fill="#3a6090" opacity="0.6"/>
      <rect x="76" y="146" width="10" height="10" rx="2" fill="#4a7aa0" opacity="0.5"/>
      <rect x="76" y="162" width="10" height="10" rx="2" fill="#3a6090" opacity="0.4"/>
      <rect x="92" y="130" width="10" height="10" rx="2" fill="#4a8ab0" opacity="0.5"/>
      <!-- Terminal window -->
      <g filter="url(#widgetGlow)">
        <rect x="110" y="138" width="74" height="48" rx="3" fill="#0a1420" stroke="#00ccff" stroke-width="1" opacity="0.9"/>
        <rect x="110" y="138" width="74" height="8" rx="3" fill="#1a2838"/>
        <circle cx="116" cy="142" r="2" fill="#ff4444" opacity="0.8"/>
        <circle cx="122" cy="142" r="2" fill="#ffcc00" opacity="0.8"/>
        <circle cx="128" cy="142" r="2" fill="#44cc44" opacity="0.8"/>
        <!-- Terminal text -->
        <rect x="114" y="150" width="40" height="2" rx="1" fill="#00ccff" opacity="0.6"/>
        <rect x="114" y="156" width="55" height="2" rx="1" fill="#44ffaa" opacity="0.5"/>
        <rect x="114" y="162" width="30" height="2" rx="1" fill="#00ccff" opacity="0.4"/>
        <rect x="114" y="168" width="45" height="2" rx="1" fill="#44ffaa" opacity="0.4"/>
        <rect x="114" y="174" width="8" height="2" rx="1" fill="#00ccff" opacity="0.8"/>
      </g>
      <!-- Taskbar -->
      <rect x="68" y="185" width="124" height="8" rx="1" fill="#0a0a18" opacity="0.9"/>
      <circle cx="80" cy="189" r="2.5" fill="#4488cc" opacity="0.7"/>
      <circle cx="90" cy="189" r="2.5" fill="#44aa66" opacity="0.6"/>
      <circle cx="100" cy="189" r="2.5" fill="#cc8844" opacity="0.6"/>
    </g>
    <!-- Monitor chin -->
    <rect x="120" y="205" width="20" height="12" rx="2" fill="#1a1a2e"/>
    <ellipse cx="130" cy="220" rx="30" ry="5" fill="#1a1a2e"/>
    <!-- Keyboard -->
    <rect x="80" y="224" width="100" height="14" rx="3" fill="#1a1a28" stroke="#334" stroke-width="1"/>
    <g fill="#2a2a3e" opacity="0.6">
      <rect x="86" y="227" width="6" height="3" rx="1"/><rect x="95" y="227" width="6" height="3" rx="1"/>
      <rect x="104" y="227" width="6" height="3" rx="1"/><rect x="113" y="227" width="6" height="3" rx="1"/>
      <rect x="122" y="227" width="6" height="3" rx="1"/><rect x="131" y="227" width="6" height="3" rx="1"/>
      <rect x="140" y="227" width="6" height="3" rx="1"/><rect x="149" y="227" width="6" height="3" rx="1"/>
      <rect x="158" y="227" width="6" height="3" rx="1"/><rect x="167" y="227" width="6" height="3" rx="1"/>
      <rect x="95" y="233" width="6" height="3" rx="1"/><rect x="104" y="233" width="6" height="3" rx="1"/>
      <rect x="113" y="233" width="30" height="3" rx="1"/><rect x="149" y="233" width="6" height="3" rx="1"/>
      <rect x="158" y="233" width="6" height="3" rx="1"/>
    </g>

  </g>
  <path d="M22,98 L238,98 L238,232 Q238,244 226,244 L34,244 Q22,244 22,232 Z" fill="none" stroke="#6699cc" stroke-width="1.5" opacity="0.25"/>
  <rect x="22" y="126" width="216" height="20" fill="#fff" opacity="0.03"/>
  <rect x="22" y="230" width="216" height="14" rx="5" fill="#000" opacity="0.15"/>

</svg>