<?xml version="1.0" encoding="utf-8"?>
<svg xmlns="http://www.w3.org/2000/svg" width="256" height="256" viewBox="21.044 43.62 217.747 200.581" xmlns:bx="https://boxy-svg.com" preserveAspectRatio="none"><defs><linearGradient id="folderBack" x1="0%" y1="0%" x2="15%" y2="100%"><stop offset="0" stop-color="#0a4050"/><stop offset="0.4" stop-color="#062a38"/><stop offset="1" stop-color="#021418"/></linearGradient><linearGradient id="folderFront" x1="0%" y1="0%" x2="5%" y2="100%"><stop offset="0" style="stop-color: rgb(14, 78, 98);"/><stop offset="0.35" style="stop-color: rgb(8, 52, 68);"/><stop offset="1" stop-color="#021a28"/></linearGradient><linearGradient id="folderFrontHighlight" x1="0%" y1="0%" x2="0%" y2="100%"><stop offset="0" stop-color="#c8f8ff" stop-opacity="0.45"/><stop offset="0.15" stop-color="#fff" stop-opacity="0"/></linearGradient><linearGradient id="tabHighlight" x1="0%" y1="0%" x2="0%" y2="100%"><stop offset="0" stop-color="#44ccdd" stop-opacity="0.7"/><stop offset="1" stop-color="#0a4050" stop-opacity="0"/></linearGradient><linearGradient id="page1grad" x1="0%" y1="0%" x2="0%" y2="100%"><stop offset="0" stop-color="#f2f0ea"/><stop offset="1" stop-color="#ddd9cc"/></linearGradient><linearGradient id="page2grad" x1="0%" y1="0%" x2="0%" y2="100%"><stop offset="0" stop-color="#ccc9bf"/><stop offset="1" stop-color="#b8b4a8"/></linearGradient><linearGradient id="pageEdge" x1="0%" y1="0%" x2="0%" y2="100%"><stop offset="0" stop-color="#fff" stop-opacity="0.6"/><stop offset="1" stop-color="#fff" stop-opacity="0"/></linearGradient><linearGradient id="innerShadow" x1="0%" y1="0%" x2="0%" y2="100%"><stop offset="0" stop-color="#000" stop-opacity="0.25"/><stop offset="0.12" stop-color="#000" stop-opacity="0"/></linearGradient><filter id="fShadow" x="-10%" y="-10%" width="130%" height="140%"><feDropShadow dx="0" dy="6" stdDeviation="6" flood-color="#000" flood-opacity="0.5"/></filter><filter id="pShadow" x="-5%" y="-15%" width="115%" height="140%"><feDropShadow dx="0" dy="2" stdDeviation="2.5" flood-color="#000" flood-opacity="0.3"/></filter>
    <linearGradient id="stripG" x1="0%" y1="0%" x2="100%" y2="0%"><stop offset="0%" stop-color="#00bbcc"/><stop offset="100%" stop-color="#0088aa"/></linearGradient>
    <linearGradient id="dlBack" x1="0%" y1="0%" x2="0%" y2="100%"><stop offset="0%" stop-color="#041828"/><stop offset="100%" stop-color="#020c14"/></linearGradient>
    <filter id="dlGlow" x="-20%" y="-20%" width="140%" height="140%"><feDropShadow dx="0" dy="0" stdDeviation="4" flood-color="#00ccdd" flood-opacity="0.9"/></filter>
    <filter id="dlGlow2" x="-30%" y="-30%" width="160%" height="160%"><feDropShadow dx="0" dy="0" stdDeviation="3" flood-color="#44ffaa" flood-opacity="0.7"/></filter>
    
<clipPath id="frontClip"><path d="M22,98 L238,98 L238,232 Q238,244 226,244 L34,244 Q22,244 22,232 Z"/></clipPath>
  </defs><g filter="url(#fShadow)" style=""><path d="M22,60 Q22,44 32,44 L102,44 Q112,44 118,56 L134,78 L234,78 Q238,78 238,82 L238,232 Q238,244 226,244 L34,244 Q22,244 22,232 Z" fill="url(#folderBack)"/><line x1="30" y1="100" x2="230" y2="100" stroke="#000" stroke-opacity="0.06" stroke-width="0.5" style=""/><line x1="30" y1="140" x2="230" y2="140" stroke="#000" stroke-opacity="0.04" stroke-width="0.5" style=""/><line x1="30" y1="180" x2="230" y2="180" stroke="#000" stroke-opacity="0.03" stroke-width="0.5" style=""/></g><g filter="url(#pShadow)" transform="matrix(1, 0, 0, 1, -1.701021, 0.340202)" style=""><rect x="38" y="56" width="184" height="22" rx="2" ry="2" fill="url(#page2grad)"/><line x1="58" y1="63" x2="170" y2="63" stroke="#a8a498" stroke-width="1" stroke-opacity="0.5"/><line x1="58" y1="69" x2="145" y2="69" stroke="#a8a498" stroke-width="1" stroke-opacity="0.35"/></g><g filter="url(#pShadow)" transform="matrix(1, 0, 0, 1, -0.1701, 3.402037)" style=""><rect x="28" y="68" width="200" height="26" rx="2" ry="2" fill="url(#page1grad)"/><rect x="28" y="68" width="200" height="4" rx="2" ry="2" fill="url(#pageEdge)"/><line x1="48" y1="76" x2="185" y2="76" stroke="#b0ad9f" stroke-width="1.2" stroke-opacity="0.6"/><line x1="48" y1="82" x2="160" y2="82" stroke="#b0ad9f" stroke-width="1.2" stroke-opacity="0.45"/><line x1="48" y1="88" x2="120" y2="88" stroke="#b0ad9f" stroke-width="1.2" stroke-opacity="0.3"/><path d="M216,68 L228,68 L228,80 Z" fill="#c8c4b4" opacity="0.5"/><path d="M216,68 L228,80 L216,80 Z" fill="#e8e4d8" opacity="0.6"/></g>
  <!-- Colored strip -->
  <rect x="22" y="98" width="216" height="28" fill="url(#stripG)"/>
  <rect x="22" y="98" width="216" height="10" fill="#fff" opacity="0.12"/>
  <!-- Scene -->
  <g clip-path="url(#frontClip)">
    
    <rect x="22" y="98" width="216" height="146" fill="url(#dlBack)"/>
    <!-- Cloud -->
    <g opacity="0.8">
      <ellipse cx="130" cy="128" rx="55" ry="22" fill="#0a2838" stroke="#1a4858" stroke-width="1.5"/>
      <ellipse cx="100" cy="132" rx="30" ry="20" fill="#0a2838"/>
      <ellipse cx="160" cy="132" rx="30" ry="20" fill="#0a2838"/>
      <ellipse cx="130" cy="136" rx="45" ry="16" fill="#0e3040"/>
      <ellipse cx="120" cy="120" rx="25" ry="10" fill="#1a4050" opacity="0.4"/>
    </g>
    <!-- Big download arrow -->
    <g filter="url(#dlGlow)">
      <rect x="120" y="138" width="20" height="50" rx="4" fill="#00bbcc"/>
      <rect x="124" y="138" width="6" height="50" rx="2" fill="#44ddee" opacity="0.5"/>
      <polygon points="100,188 130,220 160,188" fill="#00bbcc"/>
      <polygon points="112,188 130,212 134,188" fill="#44ddee" opacity="0.4"/>
      <!-- Green accent -->
      <rect x="120" y="158" width="20" height="8" rx="2" fill="#22cc88" opacity="0.6"/>
    </g>
    <!-- Speed lines -->
    <g filter="url(#dlGlow2)" opacity="0.5">
      <line x1="80" y1="148" x2="80" y2="178" stroke="#44ffaa" stroke-width="3" stroke-linecap="round"/>
      <line x1="90" y1="155" x2="90" y2="195" stroke="#00ccdd" stroke-width="2.5" stroke-linecap="round"/>
      <line x1="170" y1="148" x2="170" y2="178" stroke="#44ffaa" stroke-width="3" stroke-linecap="round"/>
      <line x1="180" y1="155" x2="180" y2="195" stroke="#00ccdd" stroke-width="2.5" stroke-linecap="round"/>
    </g>
    <!-- Progress bar at bottom -->
    <rect x="50" y="232" width="160" height="6" rx="3" fill="#0a1828"/>
    <rect x="50" y="232" width="110" height="6" rx="3" fill="#00bbcc" opacity="0.7"/>
    <circle cx="160" cy="235" r="4" fill="#00ddee"/>

  </g>
  <path d="M22,98 L238,98 L238,232 Q238,244 226,244 L34,244 Q22,244 22,232 Z" fill="none" stroke="#44ccdd" stroke-width="1.5" opacity="0.25"/>
  <rect x="22" y="126" width="216" height="20" fill="#fff" opacity="0.03"/>
  <rect x="22" y="230" width="216" height="14" rx="5" fill="#000" opacity="0.15"/>

</svg>