<?xml version="1.0" encoding="utf-8"?>
<svg xmlns="http://www.w3.org/2000/svg" width="256" height="256" viewBox="21.044 43.62 217.747 200.581" xmlns:bx="https://boxy-svg.com" preserveAspectRatio="none"><defs><linearGradient id="folderBack" x1="0%" y1="0%" x2="15%" y2="100%"><stop offset="0" stop-color="#5a1020"/><stop offset="0.4" stop-color="#381018"/><stop offset="1" stop-color="#1a0808"/></linearGradient><linearGradient id="page1grad" x1="0%" y1="0%" x2="0%" y2="100%"><stop offset="0" stop-color="#f2f0ea"/><stop offset="1" stop-color="#ddd9cc"/></linearGradient><linearGradient id="page2grad" x1="0%" y1="0%" x2="0%" y2="100%"><stop offset="0" stop-color="#ccc9bf"/><stop offset="1" stop-color="#b8b4a8"/></linearGradient><linearGradient id="pageEdge" x1="0%" y1="0%" x2="0%" y2="100%"><stop offset="0" stop-color="#fff" stop-opacity="0.6"/><stop offset="1" stop-color="#fff" stop-opacity="0"/></linearGradient><filter id="fShadow" x="-10%" y="-10%" width="130%" height="140%"><feDropShadow dx="0" dy="6" stdDeviation="6" flood-color="#000" flood-opacity="0.5"/></filter><filter id="pShadow" x="-5%" y="-15%" width="115%" height="140%"><feDropShadow dx="0" dy="2" stdDeviation="2.5" flood-color="#000" flood-opacity="0.3"/></filter><linearGradient id="stripG" x1="0%" y1="0%" x2="100%" y2="0%"><stop offset="0" stop-color="#cc3344"/><stop offset="1" stop-color="#881122"/></linearGradient><linearGradient id="vidBg" x1="0%" y1="0%" x2="0%" y2="100%"><stop offset="0" stop-color="#140810"/><stop offset="1" stop-color="#0a0408"/></linearGradient><linearGradient id="playBtnG" x1="0%" y1="0%" x2="0%" y2="100%"><stop offset="0" style="stop-color: rgb(142, 0, 0);"/><stop offset="0.5" style="stop-color: rgb(96, 15, 39);"/><stop offset="1" style="stop-color: rgb(26, 1, 8);"/></linearGradient><filter id="playGlow" x="-30%" y="-30%" width="160%" height="160%"><feDropShadow dx="0" dy="0" stdDeviation="5" flood-color="#ff3344" flood-opacity="0.9"/></filter><clipPath id="frontClip"><path d="M22,98 L238,98 L238,232 Q238,244 226,244 L34,244 Q22,244 22,232 Z"/></clipPath><bx:export><bx:file format="svg" path="lntrn-folder-videos.svg"/></bx:export></defs><g filter="url(#fShadow)" style=""><path d="M22,60 Q22,44 32,44 L102,44 Q112,44 118,56 L134,78 L234,78 Q238,78 238,82 L238,232 Q238,244 226,244 L34,244 Q22,244 22,232 Z" fill="url(#folderBack)"/><line x1="30" y1="100" x2="230" y2="100" stroke="#000" stroke-opacity="0.06" stroke-width="0.5" style=""/><line x1="30" y1="140" x2="230" y2="140" stroke="#000" stroke-opacity="0.04" stroke-width="0.5" style=""/><line x1="30" y1="180" x2="230" y2="180" stroke="#000" stroke-opacity="0.03" stroke-width="0.5" style=""/></g><g filter="url(#pShadow)" transform="matrix(1, 0, 0, 1, -1.701021, 0.340202)" style=""><rect x="38" y="56" width="184" height="22" rx="2" ry="2" fill="url(#page2grad)"/><line x1="58" y1="63" x2="170" y2="63" stroke="#a8a498" stroke-width="1" stroke-opacity="0.5"/><line x1="58" y1="69" x2="145" y2="69" stroke="#a8a498" stroke-width="1" stroke-opacity="0.35"/></g><g filter="url(#pShadow)" transform="matrix(1, 0, 0, 1, -0.1701, 3.402037)" style=""><rect x="28" y="68" width="200" height="26" rx="2" ry="2" fill="url(#page1grad)"/><rect x="28" y="68" width="200" height="4" rx="2" ry="2" fill="url(#pageEdge)"/><line x1="48" y1="76" x2="185" y2="76" stroke="#b0ad9f" stroke-width="1.2" stroke-opacity="0.6"/><line x1="48" y1="82" x2="160" y2="82" stroke="#b0ad9f" stroke-width="1.2" stroke-opacity="0.45"/><line x1="48" y1="88" x2="120" y2="88" stroke="#b0ad9f" stroke-width="1.2" stroke-opacity="0.3"/><path d="M216,68 L228,68 L228,80 Z" fill="#c8c4b4" opacity="0.5"/><path d="M216,68 L228,80 L216,80 Z" fill="#e8e4d8" opacity="0.6"/></g><rect x="22" y="98" width="216" height="28" fill="url(#stripG)" style=""/><rect x="22" y="98" width="216" height="10" fill="#fff" opacity="0.12" style=""/><g clip-path="url(#frontClip)" style="transform-origin: 14.049px 85.712px 0px;"><rect x="22" y="98" width="216" height="146" fill="url(#vidBg)" style=""/><rect x="25.314" y="106.164" width="210.359" height="127.467" rx="6" fill="#0a0a18" stroke="#333" stroke-width="2" style=""/><rect x="29.428" y="113.813" width="202.856" height="104.523" rx="3" fill="#0d1828" style=""/><rect x="29.428" y="113.813" width="202.856" height="35.691" fill="#1b3a5c" opacity="0.6" style=""/><rect x="29.428" y="113.813" width="202.856" height="17.845" fill="#2a5f8f" opacity="0.3" style=""/><rect x="29.428" y="192.841" width="202.856" height="25.494" fill="#0a1020" opacity="0.6" style=""/><g filter="url(#playGlow)" style="" transform="matrix(1.706079, 0, 0, 1.593695, -92.886993, -98.518684)"><circle cx="130" cy="164" r="26" fill="url(#playBtnG)" style="stroke-width: 0.606102px;"/><path d="M120,148 Q118,146 120,144 L148,162 Q150,164 148,166 L120,184 Q118,182 120,180 Z" fill="#fff" opacity="0.95"/></g><rect x="39.621" y="216.952" width="183.064" height="5.1" rx="2" style="fill: rgb(101, 101, 106);"/><rect x="39.621" y="216.952" width="117.508" height="5.1" rx="2" opacity="0.8" style="fill: rgb(194, 8, 20);"/><circle cx="151.241" cy="206.915" r="5" style="fill: rgb(85, 13, 34);" transform="matrix(1.236923, 0, 0, 1.274669, -29.945011, -44.246731)"/><circle cx="151.241" cy="206.915" r="3" style="fill: rgb(160, 11, 25);" transform="matrix(1.236923, 0, 0, 1.274669, -30.056633, -44.33498)"/></g><rect x="22" y="126" width="216" height="20" fill="#fff" opacity="0.03"/></svg>