<?xml version="1.0" encoding="utf-8"?>
<svg xmlns="http://www.w3.org/2000/svg" width="256" height="256" viewBox="21.044 43.62 217.747 200.581" xmlns:bx="https://boxy-svg.com" preserveAspectRatio="none"><defs><linearGradient id="folderBack" x1="0%" y1="0%" x2="15%" y2="100%"><stop offset="0" stop-color="#4a1060"/><stop offset="0.4" stop-color="#2e0840"/><stop offset="1" stop-color="#140420"/></linearGradient><linearGradient id="folderFront" x1="0%" y1="0%" x2="5%" y2="100%"><stop offset="0" style="stop-color: rgb(90, 20, 115);"/><stop offset="0.35" style="stop-color: rgb(58, 12, 78);"/><stop offset="1" stop-color="#1e0830"/></linearGradient><linearGradient id="folderFrontHighlight" x1="0%" y1="0%" x2="0%" y2="100%"><stop offset="0" stop-color="#f0d0ff" stop-opacity="0.45"/><stop offset="0.15" stop-color="#fff" stop-opacity="0"/></linearGradient><linearGradient id="tabHighlight" x1="0%" y1="0%" x2="0%" y2="100%"><stop offset="0" stop-color="#aa55dd" stop-opacity="0.7"/><stop offset="1" stop-color="#4a1060" stop-opacity="0"/></linearGradient><linearGradient id="page1grad" x1="0%" y1="0%" x2="0%" y2="100%"><stop offset="0" stop-color="#f2f0ea"/><stop offset="1" stop-color="#ddd9cc"/></linearGradient><linearGradient id="page2grad" x1="0%" y1="0%" x2="0%" y2="100%"><stop offset="0" stop-color="#ccc9bf"/><stop offset="1" stop-color="#b8b4a8"/></linearGradient><linearGradient id="pageEdge" x1="0%" y1="0%" x2="0%" y2="100%"><stop offset="0" stop-color="#fff" stop-opacity="0.6"/><stop offset="1" stop-color="#fff" stop-opacity="0"/></linearGradient><linearGradient id="innerShadow" x1="0%" y1="0%" x2="0%" y2="100%"><stop offset="0" stop-color="#000" stop-opacity="0.25"/><stop offset="0.12" stop-color="#000" stop-opacity="0"/></linearGradient><filter id="fShadow" x="-10%" y="-10%" width="130%" height="140%"><feDropShadow dx="0" dy="6" stdDeviation="6" flood-color="#000" flood-opacity="0.5"/></filter><filter id="pShadow" x="-5%" y="-15%" width="115%" height="140%"><feDropShadow dx="0" dy="2" stdDeviation="2.5" flood-color="#000" flood-opacity="0.3"/></filter>
    <linearGradient id="stripG" x1="0%" y1="0%" x2="100%" y2="0%"><stop offset="0%" stop-color="#aa44ff"/><stop offset="100%" stop-color="#6622aa"/></linearGradient>
    <linearGradient id="musicBg" x1="0%" y1="0%" x2="0%" y2="100%"><stop offset="0%" stop-color="#180828"/><stop offset="100%" stop-color="#0a0414"/></linearGradient>
    <filter id="vinylGlow" x="-20%" y="-20%" width="140%" height="140%"><feDropShadow dx="0" dy="0" stdDeviation="3" flood-color="#aa44ff" flood-opacity="0.7"/></filter>
    <filter id="noteGlow" x="-40%" y="-40%" width="180%" height="180%"><feDropShadow dx="0" dy="0" stdDeviation="3" flood-color="#ff44aa" flood-opacity="0.8"/></filter>
    
<clipPath id="frontClip"><path d="M22,98 L238,98 L238,232 Q238,244 226,244 L34,244 Q22,244 22,232 Z"/></clipPath>
  </defs><g filter="url(#fShadow)" style=""><path d="M22,60 Q22,44 32,44 L102,44 Q112,44 118,56 L134,78 L234,78 Q238,78 238,82 L238,232 Q238,244 226,244 L34,244 Q22,244 22,232 Z" fill="url(#folderBack)"/><line x1="30" y1="100" x2="230" y2="100" stroke="#000" stroke-opacity="0.06" stroke-width="0.5" style=""/><line x1="30" y1="140" x2="230" y2="140" stroke="#000" stroke-opacity="0.04" stroke-width="0.5" style=""/><line x1="30" y1="180" x2="230" y2="180" stroke="#000" stroke-opacity="0.03" stroke-width="0.5" style=""/></g><g filter="url(#pShadow)" transform="matrix(1, 0, 0, 1, -1.701021, 0.340202)" style=""><rect x="38" y="56" width="184" height="22" rx="2" ry="2" fill="url(#page2grad)"/><line x1="58" y1="63" x2="170" y2="63" stroke="#a8a498" stroke-width="1" stroke-opacity="0.5"/><line x1="58" y1="69" x2="145" y2="69" stroke="#a8a498" stroke-width="1" stroke-opacity="0.35"/></g><g filter="url(#pShadow)" transform="matrix(1, 0, 0, 1, -0.1701, 3.402037)" style=""><rect x="28" y="68" width="200" height="26" rx="2" ry="2" fill="url(#page1grad)"/><rect x="28" y="68" width="200" height="4" rx="2" ry="2" fill="url(#pageEdge)"/><line x1="48" y1="76" x2="185" y2="76" stroke="#b0ad9f" stroke-width="1.2" stroke-opacity="0.6"/><line x1="48" y1="82" x2="160" y2="82" stroke="#b0ad9f" stroke-width="1.2" stroke-opacity="0.45"/><line x1="48" y1="88" x2="120" y2="88" stroke="#b0ad9f" stroke-width="1.2" stroke-opacity="0.3"/><path d="M216,68 L228,68 L228,80 Z" fill="#c8c4b4" opacity="0.5"/><path d="M216,68 L228,80 L216,80 Z" fill="#e8e4d8" opacity="0.6"/></g>
  <!-- Colored strip -->
  <rect x="22" y="98" width="216" height="28" fill="url(#stripG)"/>
  <rect x="22" y="98" width="216" height="10" fill="#fff" opacity="0.12"/>
  <!-- Scene -->
  <g clip-path="url(#frontClip)">
    
    <rect x="22" y="98" width="216" height="146" fill="url(#musicBg)"/>
    <!-- Vinyl record -->
    <g filter="url(#vinylGlow)">
      <circle cx="120" cy="180" r="52" fill="#1a1a1a"/>
      <circle cx="120" cy="180" r="48" fill="none" stroke="#2a2a2a" stroke-width="0.8"/>
      <circle cx="120" cy="180" r="42" fill="none" stroke="#252525" stroke-width="0.5"/>
      <circle cx="120" cy="180" r="36" fill="none" stroke="#2a2a2a" stroke-width="0.8"/>
      <circle cx="120" cy="180" r="30" fill="none" stroke="#222" stroke-width="0.5"/>
      <circle cx="120" cy="180" r="44" fill="none" stroke="#333" stroke-width="0.4" stroke-dasharray="2 5"/>
      <circle cx="120" cy="180" r="38" fill="none" stroke="#333" stroke-width="0.4" stroke-dasharray="3 6"/>
      <!-- Label -->
      <circle cx="120" cy="180" r="18" fill="#9b59b6"/>
      <circle cx="120" cy="180" r="15" fill="#7d3c98"/>
      <circle cx="120" cy="180" r="18" fill="none" stroke="#e74c3c" stroke-width="1.5"/>
      <circle cx="120" cy="180" r="4" fill="#1a1a1a"/>
      <circle cx="120" cy="180" r="2.5" fill="#333"/>
      <rect x="110" y="175" width="20" height="3" rx="1" fill="#f1c40f" opacity="0.6"/>
      <rect x="112" y="180" width="16" height="2" rx="1" fill="#fff" opacity="0.3"/>
      <!-- Shine -->
      <path d="M95,155 Q120,148 145,155 Q135,145 105,145 Z" fill="#fff" opacity="0.04"/>
    </g>
    <!-- Floating notes -->
    <g filter="url(#noteGlow)">
      <g transform="translate(180, 130)">
        <line x1="0" y1="0" x2="0" y2="-22" stroke="#ff44aa" stroke-width="3" stroke-linecap="round"/>
        <ellipse cx="-5" cy="1" rx="7" ry="5" fill="#ff44aa" transform="rotate(-15, -5, 1)"/>
      </g>
      <g transform="translate(200, 150)" opacity="0.7">
        <line x1="0" y1="0" x2="0" y2="-18" stroke="#44aaff" stroke-width="2.5" stroke-linecap="round"/>
        <ellipse cx="-4" cy="1" rx="6" ry="4" fill="#44aaff" transform="rotate(-15, -4, 1)"/>
      </g>
      <g transform="translate(50, 140)" opacity="0.6">
        <line x1="0" y1="0" x2="0" y2="-20" stroke="#44ff88" stroke-width="2.5" stroke-linecap="round"/>
        <ellipse cx="-5" cy="1" rx="6" ry="5" fill="#44ff88" transform="rotate(-15, -5, 1)"/>
      </g>
      <g transform="translate(65, 165)" opacity="0.5">
        <line x1="0" y1="0" x2="0" y2="-16" stroke="#ffaa44" stroke-width="2" stroke-linecap="round"/>
        <ellipse cx="-4" cy="1" rx="5" ry="4" fill="#ffaa44" transform="rotate(-15, -4, 1)"/>
      </g>
    </g>
    <!-- Equalizer bars at bottom -->
    <g opacity="0.6">
      <rect x="40" y="226" width="6" height="12" rx="1" fill="#aa44ff"/><rect x="50" y="220" width="6" height="18" rx="1" fill="#cc44ee"/>
      <rect x="60" y="210" width="6" height="28" rx="1" fill="#ff44aa"/><rect x="70" y="216" width="6" height="22" rx="1" fill="#ff6644"/>
      <rect x="80" y="222" width="6" height="16" rx="1" fill="#ffaa44"/><rect x="90" y="212" width="6" height="26" rx="1" fill="#ff44aa"/>
      <rect x="160" y="218" width="6" height="20" rx="1" fill="#aa44ff"/><rect x="170" y="210" width="6" height="28" rx="1" fill="#cc44ee"/>
      <rect x="180" y="224" width="6" height="14" rx="1" fill="#ff44aa"/><rect x="190" y="214" width="6" height="24" rx="1" fill="#ff6644"/>
      <rect x="200" y="220" width="6" height="18" rx="1" fill="#ffaa44"/>
    </g>

  </g>
  <path d="M22,98 L238,98 L238,232 Q238,244 226,244 L34,244 Q22,244 22,232 Z" fill="none" stroke="#aa55dd" stroke-width="1.5" opacity="0.25"/>
  <rect x="22" y="126" width="216" height="20" fill="#fff" opacity="0.03"/>
  <rect x="22" y="230" width="216" height="14" rx="5" fill="#000" opacity="0.15"/>

</svg>