<?xml version="1.0" encoding="utf-8"?>
<svg xmlns="http://www.w3.org/2000/svg" width="256" height="256" viewBox="21.044 43.62 217.747 200.581" xmlns:bx="https://boxy-svg.com" preserveAspectRatio="none"><defs><linearGradient id="folderBack" x1="0%" y1="0%" x2="15%" y2="100%"><stop offset="0" stop-color="#f5c518"/><stop offset="0.4" stop-color="#d4a017"/><stop offset="1" stop-color="#1a1200"/></linearGradient><linearGradient id="folderFront" x1="0%" y1="0%" x2="5%" y2="100%"><stop offset="0" style="stop-color: rgb(229, 185, 25);"/><stop offset="0.35" style="stop-color: rgb(180, 140, 13);"/><stop offset="1" stop-color="#5a3e00"/></linearGradient><linearGradient id="folderFrontHighlight" x1="0%" y1="0%" x2="0%" y2="100%"><stop offset="0" stop-color="#fff8dc" stop-opacity="0.45"/><stop offset="0.15" stop-color="#fff" stop-opacity="0"/></linearGradient><linearGradient id="tabHighlight" x1="0%" y1="0%" x2="0%" y2="100%"><stop offset="0" stop-color="#ffe680" stop-opacity="0.7"/><stop offset="1" stop-color="#d4a017" stop-opacity="0"/></linearGradient><linearGradient id="page1grad" x1="0%" y1="0%" x2="0%" y2="100%"><stop offset="0" stop-color="#f2f0ea"/><stop offset="1" stop-color="#ddd9cc"/></linearGradient><linearGradient id="page2grad" x1="0%" y1="0%" x2="0%" y2="100%"><stop offset="0" stop-color="#ccc9bf"/><stop offset="1" stop-color="#b8b4a8"/></linearGradient><linearGradient id="pageEdge" x1="0%" y1="0%" x2="0%" y2="100%"><stop offset="0" stop-color="#fff" stop-opacity="0.6"/><stop offset="1" stop-color="#fff" stop-opacity="0"/></linearGradient><linearGradient id="innerShadow" x1="0%" y1="0%" x2="0%" y2="100%"><stop offset="0" stop-color="#000" stop-opacity="0.25"/><stop offset="0.12" stop-color="#000" stop-opacity="0"/></linearGradient><filter id="fShadow" x="-10%" y="-10%" width="130%" height="140%"><feDropShadow dx="0" dy="6" stdDeviation="6" flood-color="#000" flood-opacity="0.5"/></filter><filter id="pShadow" x="-5%" y="-15%" width="115%" height="140%"><feDropShadow dx="0" dy="2" stdDeviation="2.5" flood-color="#000" flood-opacity="0.3"/></filter></defs><g filter="url(#fShadow)" style=""><path d="M22,60 Q22,44 32,44 L102,44 Q112,44 118,56 L134,78 L234,78 Q238,78 238,82 L238,232 Q238,244 226,244 L34,244 Q22,244 22,232 Z" fill="url(#folderBack)"/><line x1="30" y1="100" x2="230" y2="100" stroke="#000" stroke-opacity="0.06" stroke-width="0.5" style=""/><line x1="30" y1="140" x2="230" y2="140" stroke="#000" stroke-opacity="0.04" stroke-width="0.5" style=""/><line x1="30" y1="180" x2="230" y2="180" stroke="#000" stroke-opacity="0.03" stroke-width="0.5" style=""/></g><g filter="url(#pShadow)" transform="matrix(1, 0, 0, 1, -1.701021, 0.340202)" style=""><rect x="38" y="56" width="184" height="22" rx="2" ry="2" fill="url(#page2grad)"/><line x1="58" y1="63" x2="170" y2="63" stroke="#a8a498" stroke-width="1" stroke-opacity="0.5"/><line x1="58" y1="69" x2="145" y2="69" stroke="#a8a498" stroke-width="1" stroke-opacity="0.35"/></g><g filter="url(#pShadow)" transform="matrix(1, 0, 0, 1, -0.1701, 3.402037)" style=""><rect x="28" y="68" width="200" height="26" rx="2" ry="2" fill="url(#page1grad)"/><rect x="28" y="68" width="200" height="4" rx="2" ry="2" fill="url(#pageEdge)"/><line x1="48" y1="76" x2="185" y2="76" stroke="#b0ad9f" stroke-width="1.2" stroke-opacity="0.6"/><line x1="48" y1="82" x2="160" y2="82" stroke="#b0ad9f" stroke-width="1.2" stroke-opacity="0.45"/><line x1="48" y1="88" x2="120" y2="88" stroke="#b0ad9f" stroke-width="1.2" stroke-opacity="0.3"/><path d="M216,68 L228,68 L228,80 Z" fill="#c8c4b4" opacity="0.5"/><path d="M216,68 L228,80 L216,80 Z" fill="#e8e4d8" opacity="0.6"/></g><path d="M22,98 L238,98 L238,232 Q238,244 226,244 L34,244 Q22,244 22,232 Z" fill="url(#folderFront)" style=""/><path d="M22,98 L238,98 L238,232 Q238,244 226,244 L34,244 Q22,244 22,232 Z" fill="url(#folderFrontHighlight)" style=""/><rect x="22" y="98" width="216" height="30" fill="url(#innerShadow)" style="" rx="0"/><line x1="23" y1="100" x2="23" y2="240" stroke="#ffe680" stroke-opacity="0.15" stroke-width="1.5" style=""/><line x1="237" y1="100" x2="237" y2="240" stroke="#000" stroke-opacity="0.12" stroke-width="1.5" style=""/><path d="M 30.953 43.84 C 30.953 43.84 33.953 43.84 39.954 43.84 L 102.959 43.84 C 108.96 43.84 113.76 47.859 117.36 55.897 L 131.762 78" fill="url(#tabHighlight)" opacity="0.4" style=""/><g transform="matrix(1.9, 0, 0, 1.9, 119.555328, 174.437271)"><rect x="2.204" y="22.185" width="5.932" height="9.21" rx="1" fill="#3a3a3e" style=""/><rect x="2.946" y="22.185" width="1.483" height="9.21" fill="#4a4a4e" opacity="0.5" style=""/><ellipse cx="5.17" cy="32.93" rx="14.83" ry="3.07" fill="#3a3a3e" style=""/><ellipse cx="5.17" cy="32.163" rx="13.347" ry="2.302" fill="#4a4a50" opacity="0.4" style=""/></g><g transform="matrix(2.105845, 0, 0, 2.153954, 129.816238, 183.20369)" style=""><rect x="-38" y="-36" width="76" height="52" rx="5" ry="5" fill="#2a2a2e"/><rect x="-38.702" y="-36.5" width="77.404" height="53.346" rx="6" ry="6" fill="none" stroke="#444" stroke-width="1.5" style=""/><rect x="-33" y="-31" width="66" height="42" rx="2" fill="#1a1028"/><rect x="-33" y="-31" width="66" height="14" rx="2" fill="#ff6b35" opacity="0.8"/><rect x="-33" y="-31" width="66" height="8" rx="2" fill="#ff4060" opacity="0.6"/><rect x="-33" y="-25" width="66" height="10" fill="#ff9a3c" opacity="0.5"/><circle cx="8" cy="-18" r="8" fill="#ffe066"/><circle cx="8" cy="-18" r="6" fill="#ffcc00"/><circle cx="8" cy="-18" r="11" fill="#ffe066" opacity="0.2"/><polygon points="-33 -2 -21.251 -18 -10.405 -5 0.44 -22 13.094 -8 22.132 -14 32.977 -2 32.977 11 -33 11" fill="#2d1b4e" opacity="0.9" style=""/><polygon points="-33,2 -14,-12 2,0 16,-10 33,2 33,11 -33,11" fill="#1a1028"/><circle cx="-20" cy="-27" r="1" fill="#fff" opacity="0.8"/><circle cx="-10" cy="-29" r="0.7" fill="#fff" opacity="0.6"/><circle cx="24" cy="-28" r="0.8" fill="#fff" opacity="0.7"/><circle cx="28" cy="-25" r="0.5" fill="#fff" opacity="0.5"/><circle cx="0" cy="14" r="2" fill="#555"/></g></svg>