<?xml version="1.0" encoding="utf-8"?>
<svg id="Layer_1" viewBox="8 0 20 48" xmlns="http://www.w3.org/2000/svg" data-name="Layer 1" xmlns:bx="https://boxy-svg.com" width="20px" height="48px"><defs><bx:export><bx:file format="svg" path="temp-hot.svg"/></bx:export></defs><linearGradient id="linear-gradient" gradientUnits="userSpaceOnUse" x1="16.234" x2="27.152" y1="24" y2="24"><stop offset="0" stop-color="#f0f2f2"/><stop offset="1" stop-color="#cacfd0"/></linearGradient><linearGradient id="linear-gradient-2" gradientUnits="userSpaceOnUse" x1="21.5" x2="21.5" y1="3.723" y2="14.895"><stop offset="0" stop-color="#c6cbcc"/><stop offset="1" stop-color="#9fa5a6"/></linearGradient><linearGradient id="linear-gradient-3" gradientUnits="userSpaceOnUse" x1="21.5" x2="21.5" y1="14.191" y2="34.81" gradientTransform="matrix(1, 0, 0, 1.459304, 0.1282, -17.239947)"><stop offset="0" style="stop-color: rgb(227, 28, 0);"/><stop offset="1" style="stop-color: rgb(133, 0, 0);"/></linearGradient><linearGradient id="linear-gradient-4" x1="18.408" x2="24.481" y1="36.408" y2="42.481" href="#linear-gradient-3" gradientTransform="matrix(1, 0, 0, 1, 0, 0)"/><linearGradient id="linear-gradient-5" x1="24.272" x2="32.953" y1="6.689" y2="31.284" href="#linear-gradient-2" gradientTransform="matrix(1.095482, 0, 0, -1, -23.122026, 59.5214)"/><linearGradient id="linear-gradient-6" x1="24.639" x2="33.319" y1="6.559" y2="31.155" href="#linear-gradient-2" gradientTransform="matrix(1.095482, 0, 0, -1, -20.93003, 51.5214)"/><linearGradient id="linear-gradient-7" x1="25.894" x2="34.575" y1="6.116" y2="30.712" href="#linear-gradient-2" gradientTransform="matrix(1.095482, 0, 0, -1, -20.93003, 43.5214)"/><linearGradient id="linear-gradient-8" x1="28.039" x2="36.719" y1="5.359" y2="29.955" href="#linear-gradient-2" gradientTransform="matrix(1.095482, 0, 0, -1, -23.122026, 35.5214)"/><linearGradient id="linear-gradient-9" x1="28.405" x2="37.086" y1="5.23" y2="29.826" href="#linear-gradient-2" gradientTransform="matrix(1.095482, 0, 0, -1, -20.93003, 27.521406)"/><linearGradient id="linear-gradient-10" x1="29.66" x2="38.341" y1="4.787" y2="29.383" href="#linear-gradient-2" gradientTransform="matrix(1.095482, 0, 0, -1, -20.93003, 19.521406)"/><linearGradient id="linear-gradient-11" x1="31.805" x2="40.486" y1="4.03" y2="28.626" href="#linear-gradient-2" gradientTransform="matrix(1.095482, 0, 0, -1, -23.122026, 11.521407)"/><path d="m27 33.026v-27.526c0-3.038-2.462-5.5-5.5-5.5s-5.5 2.462-5.5 5.5v27.526c-1.833 1.559-3 3.879-3 6.474 0 4.694 3.806 8.5 8.5 8.5s8.5-3.806 8.5-8.5c0-2.595-1.167-4.915-3-6.474z" fill="url(#linear-gradient)"/><path d="m21.5 4c.828 0 1.5.672 1.5 1.5v32.5s-3 0-3 0v-32.5c0-.828.672-1.5 1.5-1.5z" fill="url(#linear-gradient-2)"/><path d="M 21.628 3.192 C 22.456 3.192 23.128 4.173 23.128 5.379 L 23.128 38.214 C 23.128 38.214 20.128 38.214 20.128 38.214 L 20.128 5.379 C 20.128 4.173 20.8 3.192 21.628 3.192 Z" fill="url(#linear-gradient-3)" style=""/><circle cx="21.5" cy="39.5" fill="url(#linear-gradient-4)" r="4.5"/><path d="M 14.126 28.522 L 10.839 28.522 C 10.233 28.522 9.744 28.97 9.744 29.522 C 9.744 30.074 10.233 30.522 10.839 30.522 L 14.126 30.522 C 14.731 30.522 15.221 30.074 15.221 29.522 C 15.221 28.97 14.731 28.522 14.126 28.522 Z" fill="url(#linear-gradient-5)" style="transform-origin: 12.482px 29.522px 0px;" transform="matrix(-1, 0, 0, -1, 0, 0)"/><path d="M 14.126 24.522 L 13.03 24.522 C 12.424 24.522 11.935 24.97 11.935 25.522 C 11.935 26.074 12.424 26.522 13.03 26.522 L 14.126 26.522 C 14.731 26.522 15.221 26.074 15.221 25.522 C 15.221 24.97 14.731 24.522 14.126 24.522 Z" fill="url(#linear-gradient-6)" style="transform-origin: 13.578px 25.522px 0px;" transform="matrix(-1, 0, 0, -1, 0, 0)"/><path d="M 14.126 20.522 L 13.03 20.522 C 12.424 20.522 11.935 20.97 11.935 21.522 C 11.935 22.074 12.424 22.522 13.03 22.522 L 14.126 22.522 C 14.731 22.522 15.221 22.074 15.221 21.522 C 15.221 20.97 14.731 20.522 14.126 20.522 Z" fill="url(#linear-gradient-7)" style="transform-origin: 13.578px 21.522px 0px;" transform="matrix(-1, 0, 0, -1, 0, 0)"/><path d="M 14.126 16.522 L 10.839 16.522 C 10.233 16.522 9.744 16.97 9.744 17.522 C 9.744 18.074 10.233 18.522 10.839 18.522 L 14.126 18.522 C 14.731 18.522 15.221 18.074 15.221 17.522 C 15.221 16.97 14.731 16.522 14.126 16.522 Z" fill="url(#linear-gradient-8)" style="transform-origin: 12.482px 17.522px 0px;" transform="matrix(-1, 0, 0, -1, 0, 0)"/><path d="M 14.126 12.522 L 13.03 12.522 C 12.424 12.522 11.935 12.97 11.935 13.522 C 11.935 14.074 12.424 14.522 13.03 14.522 L 14.126 14.522 C 14.731 14.522 15.221 14.074 15.221 13.522 C 15.221 12.97 14.731 12.522 14.126 12.522 Z" fill="url(#linear-gradient-9)" style="transform-origin: 13.578px 13.522px 0px;" transform="matrix(-1, 0, 0, -1, 0, 0)"/><path d="M 14.126 8.522 L 13.03 8.522 C 12.424 8.522 11.935 8.97 11.935 9.522 C 11.935 10.074 12.424 10.522 13.03 10.522 L 14.126 10.522 C 14.731 10.522 15.221 10.074 15.221 9.522 C 15.221 8.97 14.731 8.522 14.126 8.522 Z" fill="url(#linear-gradient-10)" style="transform-origin: 13.578px 9.522px 0px;" transform="matrix(-1, 0, 0, -1, 0, 0)"/><path d="M 14.126 4.522 L 10.839 4.522 C 10.233 4.522 9.744 4.97 9.744 5.522 C 9.744 6.074 10.233 6.522 10.839 6.522 L 14.126 6.522 C 14.731 6.522 15.221 6.074 15.221 5.522 C 15.221 4.97 14.731 4.522 14.126 4.522 Z" fill="url(#linear-gradient-11)" style="transform-origin: 12.482px 5.522px 0px;" transform="matrix(-1, 0, 0, -1, 0, 0)"/></svg>