<?xml version="1.0" encoding="utf-8"?>
<svg xmlns="http://www.w3.org/2000/svg" width="256" height="256" viewBox="21.044 43.62 217.747 200.581" xmlns:bx="https://boxy-svg.com" preserveAspectRatio="none"><defs><linearGradient id="folderBack" x1="0%" y1="0%" x2="15%" y2="100%"><stop offset="0" stop-color="#f5c518"/><stop offset="0.4" stop-color="#d4a017"/><stop offset="1" stop-color="#1a1200"/></linearGradient><linearGradient id="folderFront" x1="0%" y1="0%" x2="5%" y2="100%"><stop offset="0" style="stop-color: rgb(229, 185, 25);"/><stop offset="0.35" style="stop-color: rgb(180, 140, 13);"/><stop offset="1" stop-color="#5a3e00"/></linearGradient><linearGradient id="folderFrontHighlight" x1="0%" y1="0%" x2="0%" y2="100%"><stop offset="0" stop-color="#fff8dc" stop-opacity="0.45"/><stop offset="0.15" stop-color="#fff" stop-opacity="0"/></linearGradient><linearGradient id="tabHighlight" x1="0%" y1="0%" x2="0%" y2="100%"><stop offset="0" stop-color="#ffe680" stop-opacity="0.7"/><stop offset="1" stop-color="#d4a017" stop-opacity="0"/></linearGradient><linearGradient id="page1grad" x1="0%" y1="0%" x2="0%" y2="100%"><stop offset="0" stop-color="#f2f0ea"/><stop offset="1" stop-color="#ddd9cc"/></linearGradient><linearGradient id="page2grad" x1="0%" y1="0%" x2="0%" y2="100%"><stop offset="0" stop-color="#ccc9bf"/><stop offset="1" stop-color="#b8b4a8"/></linearGradient><linearGradient id="pageEdge" x1="0%" y1="0%" x2="0%" y2="100%"><stop offset="0" stop-color="#fff" stop-opacity="0.6"/><stop offset="1" stop-color="#fff" stop-opacity="0"/></linearGradient><linearGradient id="innerShadow" x1="0%" y1="0%" x2="0%" y2="100%"><stop offset="0" stop-color="#000" stop-opacity="0.25"/><stop offset="0.12" stop-color="#000" stop-opacity="0"/></linearGradient><filter id="fShadow" x="-10%" y="-10%" width="130%" height="140%"><feDropShadow dx="0" dy="6" stdDeviation="6" flood-color="#000" flood-opacity="0.5"/></filter><filter id="pShadow" x="-5%" y="-15%" width="115%" height="140%"><feDropShadow dx="0" dy="2" stdDeviation="2.5" flood-color="#000" flood-opacity="0.3"/></filter></defs><g filter="url(#fShadow)" style=""><path d="M22,60 Q22,44 32,44 L102,44 Q112,44 118,56 L134,78 L234,78 Q238,78 238,82 L238,232 Q238,244 226,244 L34,244 Q22,244 22,232 Z" fill="url(#folderBack)"/><line x1="30" y1="100" x2="230" y2="100" stroke="#000" stroke-opacity="0.06" stroke-width="0.5" style=""/><line x1="30" y1="140" x2="230" y2="140" stroke="#000" stroke-opacity="0.04" stroke-width="0.5" style=""/><line x1="30" y1="180" x2="230" y2="180" stroke="#000" stroke-opacity="0.03" stroke-width="0.5" style=""/></g><g filter="url(#pShadow)" transform="matrix(1, 0, 0, 1, -1.701021, 0.340202)" style=""><rect x="38" y="56" width="184" height="22" rx="2" ry="2" fill="url(#page2grad)"/><line x1="58" y1="63" x2="170" y2="63" stroke="#a8a498" stroke-width="1" stroke-opacity="0.5"/><line x1="58" y1="69" x2="145" y2="69" stroke="#a8a498" stroke-width="1" stroke-opacity="0.35"/></g><g filter="url(#pShadow)" transform="matrix(1, 0, 0, 1, -0.1701, 3.402037)" style=""><rect x="28" y="68" width="200" height="26" rx="2" ry="2" fill="url(#page1grad)"/><rect x="28" y="68" width="200" height="4" rx="2" ry="2" fill="url(#pageEdge)"/><line x1="48" y1="76" x2="185" y2="76" stroke="#b0ad9f" stroke-width="1.2" stroke-opacity="0.6"/><line x1="48" y1="82" x2="160" y2="82" stroke="#b0ad9f" stroke-width="1.2" stroke-opacity="0.45"/><line x1="48" y1="88" x2="120" y2="88" stroke="#b0ad9f" stroke-width="1.2" stroke-opacity="0.3"/><path d="M216,68 L228,68 L228,80 Z" fill="#c8c4b4" opacity="0.5"/><path d="M216,68 L228,80 L216,80 Z" fill="#e8e4d8" opacity="0.6"/></g><path d="M22,98 L238,98 L238,232 Q238,244 226,244 L34,244 Q22,244 22,232 Z" fill="url(#folderFront)" style=""/><path d="M 21.917 98 L 237.917 98 L 237.917 232 C 237.917 240 233.917 244 225.917 244 L 33.917 244 C 25.917 244 21.917 240 21.917 232 L 21.917 98 Z" fill="url(#folderFrontHighlight)" style=""/><rect x="22" y="98" width="216" height="30" fill="url(#innerShadow)" rx="0" style=""/><line x1="23" y1="100" x2="23" y2="240" stroke="#ffe680" stroke-opacity="0.15" stroke-width="1.5" style=""/><line x1="237" y1="100" x2="237" y2="240" stroke="#000" stroke-opacity="0.12" stroke-width="1.5" style=""/><path d="M 30.953 43.84 C 30.953 43.84 33.953 43.84 39.954 43.84 L 102.959 43.84 C 108.96 43.84 113.76 47.859 117.36 55.897 L 131.762 78" fill="url(#tabHighlight)" opacity="0.4" style=""/><g transform="matrix(2.492083, 0, 0, 2.540073, 127.29657, 187.460007)" style=""><rect x="-36" y="-34" width="72.402" height="56" rx="4" ry="4" fill="#1e1e2e" stroke="#444" stroke-width="1" style=""/><rect fill="#2d2d3d" x="-36" y="-34" width="72" height="10" rx="3.761" ry="3.761"/><rect x="-36" y="-28" width="72" height="4" fill="#2d2d3d"/><circle cx="-28" cy="-29" r="2.5" fill="#e74c3c"/><circle cx="-20" cy="-29" r="2.5" fill="#f39c12"/><circle cx="-12" cy="-29" r="2.5" fill="#2ecc71"/><rect x="-28" y="-20" width="12" height="2.5" rx="1" fill="#c678dd"/><rect x="-14" y="-20" width="18" height="2.5" rx="1" fill="#61afef"/><rect x="6" y="-20" width="4" height="2.5" rx="1" fill="#e5c07b"/><rect x="-24" y="-15" width="8" height="2.5" rx="1" fill="#c678dd"/><rect x="-14" y="-15" width="24" height="2.5" rx="1" fill="#98c379"/><rect x="-24" y="-10" width="14" height="2.5" rx="1" fill="#e5c07b"/><rect x="-8" y="-10" width="4" height="2.5" rx="1" fill="#56b6c2"/><rect x="-2" y="-10" width="8" height="2.5" rx="1" fill="#d19a66"/><rect x="-24" y="-5" width="30" height="2.5" rx="1" fill="#5c6370"/><rect x="-24" y="0" width="10" height="2.5" rx="1" fill="#c678dd"/><rect x="-12" y="0" width="16" height="2.5" rx="1" fill="#e06c75"/><rect x="-28" y="5" width="6" height="2.5" rx="1" fill="#abb2bf" opacity="0.6"/><rect x="-35.485" y="-24.168" width="6" height="34" fill="#1a1a28" opacity="0.5" style=""/><text x="-34" y="-18" font-size="3" fill="#555" font-family="monospace" style="white-space: pre;">1</text><text x="-34" y="-13" font-size="3" fill="#555" font-family="monospace" style="white-space: pre;">2</text><text x="-34" y="-8" font-size="3" fill="#555" font-family="monospace" style="white-space: pre;">3</text><text x="-34" y="-3" font-size="3" fill="#555" font-family="monospace" style="white-space: pre;">4</text><text x="-34" y="2" font-size="3" fill="#555" font-family="monospace" style="white-space: pre;">5</text><text x="-34" y="7" font-size="3" fill="#555" font-family="monospace" style="white-space: pre;">6</text><g transform="matrix(1, 0, 0, 1, 21.718069, 6.498325)"><circle cx="0" cy="0" r="10" fill="#3a3a4e" stroke="#555" stroke-width="1"/><rect x="-2" y="-12" width="4" height="4" rx="1" fill="#7f8c8d"/><rect x="-2" y="8" width="4" height="4" rx="1" fill="#7f8c8d"/><rect x="-12" y="-2" width="4" height="4" rx="1" fill="#7f8c8d"/><rect x="8" y="-2" width="4" height="4" rx="1" fill="#7f8c8d"/><rect x="6" y="-9" width="4" height="4" rx="1" fill="#7f8c8d" transform="rotate(45, 8, -7)"/><rect x="-10" y="5" width="4" height="4" rx="1" fill="#7f8c8d" transform="rotate(45, -8, 7)"/><rect x="6" y="5" width="4" height="4" rx="1" fill="#7f8c8d" transform="rotate(45, 8, 7)"/><rect x="-10" y="-9" width="4" height="4" rx="1" fill="#7f8c8d" transform="rotate(45, -8, -7)"/><circle cx="0" cy="0" r="6" fill="#2d2d3d"/><circle cx="0" cy="0" r="3" fill="#3498db" opacity="0.6"/><circle cx="0" cy="0" r="1.5" fill="#5dade2" opacity="0.8"/></g></g></svg>