<?xml version="1.0" encoding="utf-8"?>
<svg xmlns="http://www.w3.org/2000/svg" viewBox="0 0 256 256" width="256" height="256" xmlns:bx="https://boxy-svg.com"><defs><linearGradient id="crossGrad" x1="0%" y1="0%" x2="100%" y2="100%"><stop offset="0" stop-color="#ff6644"/><stop offset="1" stop-color="#cc2211"/></linearGradient><linearGradient id="lensBg" x1="0%" y1="0%" x2="0%" y2="100%"><stop offset="0" stop-color="#1a2838"/><stop offset="1" stop-color="#0a1420"/></linearGradient><linearGradient id="lensRing" x1="0%" y1="0%" x2="100%" y2="100%"><stop offset="0" stop-color="#888"/><stop offset="0.3" stop-color="#ccc"/><stop offset="0.6" stop-color="#888"/><stop offset="1" stop-color="#aaa"/></linearGradient><linearGradient id="glassGrad" x1="30%" y1="0%" x2="70%" y2="100%"><stop offset="0" stop-color="#4488cc" stop-opacity="0.3"/><stop offset="1" stop-color="#1a3050" stop-opacity="0.1"/></linearGradient><filter id="mainShadow" x="-15%" y="-10%" width="135%" height="135%"><feDropShadow dx="0" dy="5" stdDeviation="6" flood-color="#000" flood-opacity="0.45"/></filter><filter id="crossGlow" x="-20%" y="-20%" width="140%" height="140%"><feDropShadow dx="0" dy="0" stdDeviation="3" flood-color="#ff4422" flood-opacity="0.7"/></filter><filter id="glassGlow" x="-10%" y="-10%" width="120%" height="120%"><feDropShadow dx="0" dy="0" stdDeviation="4" flood-color="#4488cc" flood-opacity="0.3"/></filter><clipPath id="lensClip"><circle cx="118" cy="118" r="72"/></clipPath><bx:export><bx:file format="svg" path="lntrn-screenshot.svg"/><bx:file format="svg" href="#object-0"/></bx:export><filter id="drop-shadow-filter-0" bx:preset="drop-shadow 1 10 10 0 0.5 rgba(0,0,0,0.3)" color-interpolation-filters="sRGB" x="-50%" y="-50%" width="200%" height="200%"><feGaussianBlur in="SourceAlpha" stdDeviation="0"/><feOffset dx="10" dy="10"/><feComponentTransfer result="offsetblur"><feFuncA id="spread-ctrl" type="linear" slope="1"/></feComponentTransfer><feFlood flood-color="rgba(0,0,0,0.3)"/><feComposite in2="offsetblur" operator="in"/><feMerge><feMergeNode/><feMergeNode in="SourceGraphic"/></feMerge></filter></defs><g filter="url(#mainShadow)" transform="matrix(1.484328, 0, 0, 1.497158, -46.292042, -51.248402)" style=""><circle cx="118" cy="118" r="80" fill="url(#lensRing)"/><circle cx="118" cy="118" r="76" fill="#444"/><circle cx="118" cy="118" r="74" fill="url(#lensBg)"/></g><g clip-path="url(#lensClip)" filter="url(#glassGlow)" transform="matrix(1.484328, 0, 0, 1.497158, -46.292042, -51.248402)" style=""><circle cx="118" cy="118" r="72" fill="url(#lensBg)"/><circle cx="118" cy="118" r="72" fill="url(#glassGrad)"/><g stroke="#2a4060" stroke-width="0.8" opacity="0.4"><line x1="46" y1="78" x2="190" y2="78"/><line x1="46" y1="98" x2="190" y2="98"/><line x1="46" y1="118" x2="190" y2="118"/><line x1="46" y1="138" x2="190" y2="138"/><line x1="46" y1="158" x2="190" y2="158"/><line x1="78" y1="46" x2="78" y2="190"/><line x1="98" y1="46" x2="98" y2="190"/><line x1="118" y1="46" x2="118" y2="190"/><line x1="138" y1="46" x2="138" y2="190"/><line x1="158" y1="46" x2="158" y2="190"/></g><g filter="url(#crossGlow)"><line x1="60" y1="118" x2="104" y2="118" stroke-width="3" stroke-linecap="round" stroke="url(#crossGrad)"/><line x1="132" y1="118" x2="176" y2="118" stroke-width="3" stroke-linecap="round" stroke="url(#crossGrad)"/><line x1="118" y1="60" x2="118" y2="104" stroke-width="3" stroke-linecap="round" stroke="url(#crossGrad)"/><line x1="118" y1="132" x2="118" y2="176" stroke-width="3" stroke-linecap="round" stroke="url(#crossGrad)"/><circle cx="118" cy="118" r="4" fill="#ff4422"/><circle cx="118" cy="118" r="2" fill="#ff8866"/><path d="M88,88 L88,98 M88,88 L98,88" fill="none" stroke-width="2.5" stroke-linecap="round" stroke="#ff6644"/><path d="M148,88 L148,98 M148,88 L138,88" fill="none" stroke-width="2.5" stroke-linecap="round" stroke="#ff6644"/><path d="M88,148 L88,138 M88,148 L98,148" fill="none" stroke-width="2.5" stroke-linecap="round" stroke="#ff6644"/><path d="M148,148 L148,138 M148,148 L138,148" fill="none" stroke-width="2.5" stroke-linecap="round" stroke="#ff6644"/></g><ellipse cx="95" cy="88" rx="30" ry="22" fill="#fff" opacity="0.06"/></g><circle cx="152.722" cy="101.553" r="72" fill="none" stroke="#5a5a6a" stroke-width="1.5" opacity="0.5" style="" transform="matrix(1.484328, 0, 0, 1.497158, -97.831154, -26.624115)"/><path d="M 35.345 68.525 C 97.688 26.604 160.525 26.604 223.855 68.525" fill="none" stroke="#ddd" stroke-width="1.5" opacity="0.15" style=""/><ellipse style="fill: rgb(112, 163, 45); stroke: rgba(0, 0, 0, 0); paint-order: stroke; opacity: 0.64;" cx="143.223" cy="51.825" rx="9.146" ry="8.997"/><ellipse style="fill: rgb(112, 163, 45); stroke: rgba(0, 0, 0, 0); paint-order: stroke; opacity: 0.64; stroke-width: 1px;" cx="114.436" cy="168.707" rx="9.146" ry="8.997"/><ellipse style="fill: rgb(112, 163, 45); stroke: rgba(0, 0, 0, 0); paint-order: stroke; opacity: 0.64; stroke-width: 1px;" cx="48.28" cy="109.321" rx="9.146" ry="8.997"/><rect style="fill: rgb(255, 102, 69); transform-origin: 84.76px 106.712px 0px; stroke: rgb(255, 137, 137); filter: url(&quot;#drop-shadow-filter-0&quot;);" transform="matrix(0.299076, 0.954229, -0.954229, 0.299076, 93.219446, 3.381495)" x="82.444" y="53.55" width="4.631" height="106.321" rx="2" ry="2" id="object-0"/></svg>