<?xml version="1.0" encoding="utf-8"?>
<svg xmlns="http://www.w3.org/2000/svg" viewBox="0 0 256 256" width="256" height="256" xmlns:bx="https://boxy-svg.com"><defs><linearGradient id="globeGrad" x1="0%" y1="0%" x2="100%" y2="100%"><stop offset="0" stop-color="#2288ee"/><stop offset="0.5" stop-color="#1166cc"/><stop offset="1" stop-color="#0a3a88"/></linearGradient><linearGradient id="globeHighlight" x1="30%" y1="0%" x2="70%" y2="100%"><stop offset="0" stop-color="#66ccff" stop-opacity="0.5"/><stop offset="1" stop-color="#fff" stop-opacity="0"/></linearGradient><linearGradient id="ringGrad" x1="0%" y1="0%" x2="100%" y2="100%"><stop offset="0" stop-color="#55ddff"/><stop offset="0.5" stop-color="#2288ee"/><stop offset="1" stop-color="#0055bb"/></linearGradient><filter id="globeShadow" x="-15%" y="-10%" width="135%" height="135%"><feDropShadow dx="0" dy="6" stdDeviation="7" flood-color="#000" flood-opacity="0.45"/></filter><filter id="ringGlow" x="-20%" y="-20%" width="140%" height="140%"><feDropShadow dx="0" dy="0" stdDeviation="4" flood-color="#44bbff" flood-opacity="0.6"/></filter><filter id="landGlow" x="-10%" y="-10%" width="120%" height="120%"><feDropShadow dx="0" dy="0" stdDeviation="2" flood-color="#22cc88" flood-opacity="0.4"/></filter><clipPath id="globeClip"><circle cx="128" cy="128" r="88"/></clipPath><bx:export><bx:file format="svg" path="lntrn-browser.svg"/></bx:export></defs><g filter="url(#globeShadow)"><circle cx="128" cy="128" r="88" fill="url(#globeGrad)"/></g><g clip-path="url(#globeClip)"><circle cx="128" cy="128" r="88" fill="url(#globeGrad)"/><g stroke="#3399dd" stroke-width="1.2" fill="none" opacity="0.35"><ellipse cx="128" cy="128" rx="88" ry="15"/><ellipse cx="128" cy="128" rx="88" ry="42"/><ellipse cx="128" cy="128" rx="88" ry="68"/></g><g stroke="#3399dd" stroke-width="1.2" fill="none" opacity="0.3"><ellipse cx="128" cy="128" rx="15" ry="88"/><ellipse cx="128" cy="128" rx="42" ry="88"/><ellipse cx="128" cy="128" rx="68" ry="88"/></g><g filter="url(#landGlow)"><ellipse cx="100" cy="85" rx="40" ry="30" fill="url(#globeHighlight)" opacity="0.6" style="transform-origin: 100px 85px 0px;" transform="matrix(0.877136, -0.480243, 0.480243, 0.877136, -4.355344, -3.959435)"/><path d="M 71.054 65.527 C 77.721 58.86 85 56 95 58 C 105 59.333 98.382 64.702 95.049 72.702 C 97.049 78.036 104.667 82.667 98 88 C 89.333 90.667 80.145 99.442 73.478 94.775 C 64.811 90.108 65.721 74.194 71.054 65.527 Z" fill="#22cc88" opacity="0.7"/><path d="M 142.169 50.729 C 152.575 46.82 161.247 47.601 168.184 53.076 C 171.653 60.897 167.8 66.053 161.73 72.309 C 156.353 79.397 164.715 96.871 157.778 107.038 C 150.841 114.859 144.338 115.641 138.267 109.385 C 132.196 97.654 121.337 86.457 124.806 74.726 C 127.204 65.716 133.497 58.551 142.169 50.729 Z" fill="#22cc88" opacity="0.65" style=""/><path d="M 84.35 130.063 C 94.179 125.217 104.256 129.048 111.665 137.054 C 127.017 151.593 121.975 166.131 108.717 180.67 C 102.82 193.27 96.432 195.692 89.551 187.939 C 76.474 175.343 86.834 165.858 96.8 154.503 C 104.108 148.22 77.469 134.908 84.35 130.063 Z" fill="#22cc88" opacity="0.6" style=""/><path d="M 168.157 118.388 C 179.931 108.227 188.415 103.472 196.656 121.781 C 202.705 129.321 205.961 137.614 202.18 146.662 C 196.888 150.431 190.462 150.431 182.901 146.662 C 175.341 142.892 173.892 141.118 174.98 133.275 C 176.172 126.352 164.398 121.612 168.157 118.388 Z" fill="#22cc88" opacity="0.55" style=""/><path d="M 136.176 144.056 C 145.613 140.178 153.477 141.341 159.769 147.547 C 161.342 155.305 159.375 160.735 153.871 163.839 C 146.006 166.166 140.108 163.451 136.176 155.693 C 134.603 150.262 134.603 146.384 136.176 144.056 Z" fill="#22cc88" opacity="0.5" style=""/></g><path d="M55,170 Q128,220 200,170 Q200,200 128,216 Q55,200 55,170 Z" fill="#fff" opacity="0.04"/></g><g filter="url(#ringGlow)"><ellipse cx="128" cy="138" rx="115" ry="38" fill="none" stroke="url(#ringGrad)" stroke-width="6" stroke-linecap="round" transform="rotate(-20, 128, 128)"/><ellipse cx="128" cy="138" rx="115" ry="38" fill="none" stroke="#88ddff" stroke-width="2" stroke-linecap="round" opacity="0.3" transform="rotate(-20, 128, 128)"/></g><g transform="matrix(0.939693, -0.34202, 0.34202, 0.939693, -35.889271, 59.826305)"><circle cx="30" cy="110" r="8" fill="#55ddff"/><circle cx="30" cy="110" r="5" fill="#aaeeff"/><circle cx="30" cy="110" r="12" fill="#55ddff" opacity="0.2"/></g><circle cx="128" cy="128" r="88" fill="none" stroke="#1a5a99" stroke-width="2" opacity="0.4"/><g transform="matrix(0.939693, -0.34202, 0.34202, 0.939693, 164.729065, 27.189772)"><circle cx="30" cy="110" r="8" fill="#55ddff"/><circle cx="30" cy="110" r="5" fill="#aaeeff"/><circle cx="30" cy="110" r="12" fill="#55ddff" opacity="0.2"/></g></svg>