<?xml version="1.0" encoding="utf-8"?>
<svg xmlns="http://www.w3.org/2000/svg" viewBox="0 0 100 100" width="256" height="256" xmlns:bx="https://boxy-svg.com"><defs><linearGradient id="bgGrad" x1="0%" y1="0%" x2="10%" y2="100%"><stop offset="0" stop-color="#1a1a1a"/><stop offset="1" stop-color="#0a0a0a"/></linearGradient><linearGradient id="gearGrad" x1="0%" y1="0%" x2="100%" y2="100%"><stop offset="0" style="stop-color: rgb(255, 197, 0);"/><stop offset="0.5" style="stop-color: rgb(52, 34, 25);"/><stop offset="1" style="stop-color: rgb(255, 213, 0);"/></linearGradient><radialGradient id="centerGrad" cx="35%" cy="35%" r="65%"><stop offset="0" style="stop-color: rgb(21, 21, 21);"/><stop offset="1" stop-color="#222"/></radialGradient><filter id="bgShadow" x="-10%" y="-10%" width="120%" height="120%"><feDropShadow dx="0" dy="3" stdDeviation="3.5" flood-color="#000" flood-opacity="0.6"/></filter><filter id="gearGlow" x="-20%" y="-20%" width="140%" height="140%"><feDropShadow dx="0" dy="2" stdDeviation="4" flood-color="#888" flood-opacity="0.5"/></filter><filter id="innerShadow" x="-20%" y="-20%" width="140%" height="140%"><feDropShadow dx="1" dy="1" stdDeviation="2" flood-color="#000" flood-opacity="0.6"/></filter><bx:export><bx:file format="svg" path="lntrn-system-settings.svg"/></bx:export></defs><g filter="url(#bgShadow)"><rect x="6" y="6" width="88" height="88" rx="12" fill="url(#bgGrad)"/></g><rect x="6" y="6" width="88" height="28" rx="12" fill="#fff" opacity="0.03"/><g filter="url(#gearGlow)"><g transform="translate(50,50)"><rect x="-6" y="-38" width="12" height="16" rx="3" fill="url(#gearGrad)"/><rect x="-6" y="-38" width="12" height="16" rx="3" fill="url(#gearGrad)" transform="rotate(45)"/><rect x="-6" y="-38" width="12" height="16" rx="3" fill="url(#gearGrad)" transform="rotate(90)"/><rect x="-6" y="-38" width="12" height="16" rx="3" fill="url(#gearGrad)" transform="rotate(135)"/><rect x="-6" y="-38" width="12" height="16" rx="3" fill="url(#gearGrad)" transform="rotate(180)"/><rect x="-6" y="-38" width="12" height="16" rx="3" fill="url(#gearGrad)" transform="rotate(225)"/><rect x="-6" y="-38" width="12" height="16" rx="3" fill="url(#gearGrad)" transform="rotate(270)"/><rect x="-6" y="-38" width="12" height="16" rx="3" fill="url(#gearGrad)" transform="rotate(315)"/><circle cx="0" cy="0" r="28" fill="url(#gearGrad)" id="object-0"/><circle cx="0" cy="0" r="28" fill="none" stroke="#666" stroke-width="1.5" opacity="0.5"/><circle cx="0" cy="0" r="26" fill="none" stroke="#aaa" stroke-width="0.8" opacity="0.3"/><circle cx="0" cy="0" r="14" fill="url(#centerGrad)" filter="url(#innerShadow)"/><circle cx="0" cy="0" r="14" fill="none" stroke="#222" stroke-width="1.5"/><circle cx="0" cy="0" r="12" fill="none" stroke="#666" stroke-width="0.8" opacity="0.4"/><circle cx="0" cy="0" r="6" style=""/><circle cx="0" cy="0" r="6" fill="none" stroke="#444" stroke-width="1"/><path d="M-18,-18 Q-10,-28 0,-28 Q-5,-20 -12,-14 Z" fill="#aaa" opacity="0.2"/></g></g></svg>