<?xml version="1.0" encoding="utf-8"?>
<svg xmlns="http://www.w3.org/2000/svg" viewBox="0 0 256 256" width="256" height="256" xmlns:bx="https://boxy-svg.com"><defs><linearGradient id="discGrad" x1="0%" y1="0%" x2="100%" y2="100%"><stop offset="0" stop-color="#1a1a24"/><stop offset="0.5" stop-color="#141420"/><stop offset="1" stop-color="#0e0e18"/></linearGradient><linearGradient id="labelGrad" x1="0%" y1="0%" x2="100%" y2="100%" gradientTransform="matrix(0.779422, 0.576351, -0.625196, 0.740815, 0.328912, -0.229064)"><stop offset="0" stop-color="#cc2244"/><stop offset="0.4" style="stop-color: rgb(131, 13, 13);"/><stop offset="1" style="stop-color: rgb(9, 0, 2);"/></linearGradient><linearGradient id="playBtnG" x1="0%" y1="0%" x2="0%" y2="100%"><stop offset="0" stop-color="#ff5555"/><stop offset="0.5" style="stop-color: rgb(167, 12, 8);"/><stop offset="1" style="stop-color: rgb(62, 0, 0);"/></linearGradient><radialGradient id="discShine" cx="35%" cy="35%" r="60%"><stop offset="0" stop-color="#fff" stop-opacity="0.06"/><stop offset="1" stop-color="#fff" stop-opacity="0"/></radialGradient><linearGradient id="rainbow" x1="0%" y1="0%" x2="100%" y2="100%"><stop offset="0" stop-color="#4444aa" stop-opacity="0.08"/><stop offset="0.25" stop-color="#aa44aa" stop-opacity="0.06"/><stop offset="0.5" stop-color="#44aa88" stop-opacity="0.08"/><stop offset="0.75" stop-color="#aaaa44" stop-opacity="0.06"/><stop offset="1" stop-color="#4444aa" stop-opacity="0.08"/></linearGradient><filter id="discShadow" x="-12%" y="-8%" width="130%" height="130%"><feDropShadow dx="0" dy="6" stdDeviation="7" flood-color="#000" flood-opacity="0.5"/></filter><filter id="playGlow" x="-30%" y="-30%" width="160%" height="160%"><feDropShadow dx="0" dy="0" stdDeviation="6" flood-color="#ff3344" flood-opacity="0.85"/></filter><filter id="grooveGlow" x="-5%" y="-5%" width="110%" height="110%"><feDropShadow dx="0" dy="0" stdDeviation="1.5" flood-color="#4466aa" flood-opacity="0.15"/></filter><filter id="noteGlow" x="-40%" y="-40%" width="180%" height="180%"><feDropShadow dx="0" dy="0" stdDeviation="3" flood-color="#ff44aa" flood-opacity="0.7"/></filter><filter id="filmGlow" x="-10%" y="-10%" width="120%" height="120%"><feDropShadow dx="0" dy="0" stdDeviation="2" flood-color="#ffaa33" flood-opacity="0.5"/></filter><clipPath id="discClip"><path d="M128,8 A120,120 0 1,1 127.99,8 Z M128,88 A40,40 0 1,0 128.01,88 Z" clip-rule="evenodd"/></clipPath><bx:export><bx:file format="svg" path="lntrn-media-player.svg"/></bx:export></defs><g filter="url(#discShadow)"><circle cx="128" cy="128" r="120" fill="url(#discGrad)"/><circle cx="128" cy="128" r="40" fill="#080810"/></g><g clip-path="url(#discClip)"><circle cx="128" cy="128" r="120" fill="url(#discGrad)"/><g filter="url(#grooveGlow)"><circle cx="128" cy="128" r="115" fill="none" stroke="#222230" stroke-width="0.6"/><circle cx="128" cy="128" r="110" fill="none" stroke="#1e1e2a" stroke-width="0.5"/><circle cx="128" cy="128" r="105" fill="none" stroke="#222230" stroke-width="0.6"/><circle cx="128" cy="128" r="100" fill="none" stroke="#1e1e2a" stroke-width="0.5"/><circle cx="128" cy="128" r="95" fill="none" stroke="#222230" stroke-width="0.6"/><circle cx="128" cy="128" r="90" fill="none" stroke="#1e1e2a" stroke-width="0.5"/><circle cx="128" cy="128" r="85" fill="none" stroke="#222230" stroke-width="0.6"/><circle cx="128" cy="128" r="80" fill="none" stroke="#1e1e2a" stroke-width="0.5"/><circle cx="128" cy="128" r="75" fill="none" stroke="#222230" stroke-width="0.6"/><circle cx="128" cy="128" r="70" fill="none" stroke="#1e1e2a" stroke-width="0.5"/><circle cx="128" cy="128" r="65" fill="none" stroke="#222230" stroke-width="0.6"/><circle cx="128" cy="128" r="60" fill="none" stroke="#1e1e2a" stroke-width="0.5"/><circle cx="128" cy="128" r="55" fill="none" stroke="#222230" stroke-width="0.6"/><circle cx="128" cy="128" r="50" fill="none" stroke="#1e1e2a" stroke-width="0.5"/><circle cx="128" cy="128" r="45" fill="none" stroke="#222230" stroke-width="0.6"/></g><circle cx="128" cy="128" r="90" fill="none" stroke="url(#rainbow)" stroke-width="40" opacity="0.8"/><circle cx="128" cy="128" r="120" fill="url(#discShine)"/><g filter="url(#filmGlow)" style="opacity: 0.57;"><rect x="125" y="12" width="6" height="10" rx="1" fill="#ffaa33" transform="rotate(0, 128, 128)"/><rect x="125" y="12" width="6" height="10" rx="1" fill="#ffaa33" transform="rotate(24, 128, 128)"/><rect x="125" y="12" width="6" height="10" rx="1" fill="#ffaa33" transform="rotate(48, 128, 128)"/><rect x="125" y="12" width="6" height="10" rx="1" fill="#ffaa33" transform="rotate(72, 128, 128)"/><rect x="125" y="12" width="6" height="10" rx="1" fill="#ffaa33" transform="rotate(96, 128, 128)"/><rect x="125" y="12" width="6" height="10" rx="1" fill="#ffaa33" transform="rotate(120, 128, 128)"/><rect x="125" y="12" width="6" height="10" rx="1" fill="#ffaa33" transform="rotate(144, 128, 128)"/><rect x="125" y="12" width="6" height="10" rx="1" fill="#ffaa33" transform="rotate(168, 128, 128)"/><rect x="125" y="12" width="6" height="10" rx="1" fill="#ffaa33" transform="rotate(192, 128, 128)"/><rect x="125" y="12" width="6" height="10" rx="1" fill="#ffaa33" transform="rotate(216, 128, 128)"/><rect x="125" y="12" width="6" height="10" rx="1" fill="#ffaa33" transform="rotate(240, 128, 128)"/><rect x="125" y="12" width="6" height="10" rx="1" fill="#ffaa33" transform="rotate(264, 128, 128)"/><rect x="125" y="12" width="6" height="10" rx="1" fill="#ffaa33" transform="rotate(288, 128, 128)"/><rect x="125" y="12" width="6" height="10" rx="1" fill="#ffaa33" transform="rotate(312, 128, 128)"/><rect x="125" y="12" width="6" height="10" rx="1" fill="#ffaa33" transform="rotate(336, 128, 128)"/></g></g><circle cx="128.747" cy="124.859" r="75.745" fill="url(#labelGrad)" style="fill-opacity: 0.62;" transform="matrix(0.874209, 0, 0, 0.905657, 18.312559, 12.573618)"/><circle cx="128" cy="128" r="71.958" fill="none" stroke-width="1" opacity="0.5" style="stroke: rgb(96, 3, 22);"/><circle cx="128.747" cy="124.859" r="64.384" fill="none" stroke-width="0.8" opacity="0.4" style="stroke: rgb(121, 0, 0);"/><circle cx="128.747" cy="124.859" r="18.936" fill="#080810" stroke="#2a2a38" stroke-width="1.5" style=""/><circle cx="128.747" cy="124.859" r="11.362" fill="#101018" style=""/><g filter="url(#playGlow)" style="" transform="matrix(2.313101, 0, 0, 2.352425, -167.329941, -176.251419)"><circle cx="128" cy="128" r="22" fill="url(#playBtnG)" opacity="0.9"/><path d="M 116 112 C 123.675 106.561 131.785 107.047 140 112" fill="none" stroke="#ff8a80" stroke-width="1.5" stroke-opacity="0.4" stroke-linecap="round"/><polygon points="122,116 122,140 140,128" fill="#fff" opacity="0.95"/></g><g filter="url(#noteGlow)"><g transform="matrix(2.957603, 0, 0, 2.496038, 68.714394, 75.233276)" opacity="0.75" style=""><line x1="0" y1="0" x2="0" y2="-18" stroke-width="2.5" stroke-linecap="round" style="stroke: rgb(155, 255, 0); fill: rgb(155, 255, 0);"/><ellipse cx="-4" cy="1" rx="4.268" ry="3.545" transform="matrix(0.941792, -0.336195, 0.317531, 0.948455, 0.726011, -0.653026)" style="stroke: rgb(155, 255, 0); fill: rgb(155, 255, 0); transform-origin: -4px 1px 0px;"/></g><g transform="matrix(2.921222, 0, 0, 2.848363, 77.060989, 190.855072)" opacity="0.55" style=""><line x1="0" y1="0" x2="0" y2="-14" stroke="#aa66ff" stroke-width="2" stroke-linecap="round"/><ellipse cx="-3.5" cy="1" rx="5" ry="3.5" fill="#aa66ff" transform="matrix(0.965926, -0.258819, 0.258819, 0.965926, -0.825278, -0.900457)"/></g><g transform="matrix(2.23782, 0, 0, 2.658595, 217.692505, 119.305496)" opacity="0.6" style=""><line x1="0" y1="0" x2="0" y2="-16" stroke="#44aaff" stroke-width="2.5" stroke-linecap="round"/><ellipse cx="-4" cy="1" rx="5.5" ry="4" fill="#44aaff" transform="rotate(-15, -4, 1)"/></g></g><circle cx="128" cy="128" r="120" fill="none" stroke="#2a2a38" stroke-width="2" opacity="0.4"/><circle cx="128" cy="128" r="118" fill="none" stroke="#3a3a48" stroke-width="0.8" opacity="0.2"/></svg>