<?xml version="1.0" encoding="utf-8"?>
<svg xmlns="http://www.w3.org/2000/svg" viewBox="0 0 256 256" width="256" height="256" xmlns:bx="https://boxy-svg.com"><defs><linearGradient id="calcBody" x1="0%" y1="0%" x2="5%" y2="100%"><stop offset="0" stop-color="#2a3038"/><stop offset="0.4" stop-color="#222830"/><stop offset="1" stop-color="#181c22"/></linearGradient><linearGradient id="calcHighlight" x1="0%" y1="0%" x2="0%" y2="100%"><stop offset="0" stop-color="#fff" stop-opacity="0.06"/><stop offset="1" stop-color="#fff" stop-opacity="0"/></linearGradient><linearGradient id="screenGrad" x1="0%" y1="0%" x2="0%" y2="100%"><stop offset="0" stop-color="#0a1a18"/><stop offset="1" stop-color="#061210"/></linearGradient><linearGradient id="screenShine" x1="0%" y1="0%" x2="100%" y2="100%"><stop offset="0" stop-color="#44ddaa" stop-opacity="0.08"/><stop offset="1" stop-color="#44ddaa" stop-opacity="0"/></linearGradient><linearGradient id="tealBtn" x1="0%" y1="0%" x2="0%" y2="100%"><stop offset="0" stop-color="#3abba0"/><stop offset="1" stop-color="#1a8872"/></linearGradient><linearGradient id="darkBtn" x1="0%" y1="0%" x2="0%" y2="100%"><stop offset="0" stop-color="#3a4048"/><stop offset="1" stop-color="#282e34"/></linearGradient><linearGradient id="lightBtn" x1="0%" y1="0%" x2="0%" y2="100%"><stop offset="0" stop-color="#4a5058"/><stop offset="1" stop-color="#363c44"/></linearGradient><filter id="calcShadow" x="-10%" y="-5%" width="125%" height="120%"><feDropShadow dx="0" dy="6" stdDeviation="7" flood-color="#000" flood-opacity="0.5"/></filter><filter id="screenGlow" x="-10%" y="-10%" width="120%" height="120%"><feDropShadow dx="0" dy="0" stdDeviation="4" flood-color="#44ddaa" flood-opacity="0.3"/></filter><filter id="tealGlow" x="-20%" y="-20%" width="140%" height="140%"><feDropShadow dx="0" dy="0" stdDeviation="2" flood-color="#44ddaa" flood-opacity="0.5"/></filter><filter id="textGlow" x="-30%" y="-30%" width="160%" height="160%"><feDropShadow dx="0" dy="0" stdDeviation="3" flood-color="#44ddaa" flood-opacity="0.7"/></filter><bx:export><bx:file format="svg" path="lntrn-calculator.svg"/></bx:export></defs><g filter="url(#calcShadow)"><rect x="48" y="16" width="160" height="224" rx="20" fill="url(#calcBody)"/><rect x="48" y="16" width="160" height="224" rx="20" fill="url(#calcHighlight)"/><rect x="48" y="16" width="160" height="224" rx="20" fill="none" stroke="#3a4248" stroke-width="1.5"/></g><g filter="url(#screenGlow)" style="" transform="matrix(1.073906, 0, 0, 1.147467, -9.700523, -12.977133)"><rect x="64" y="32" width="128" height="56" rx="10" fill="url(#screenGrad)" stroke="#1a3a32" stroke-width="1.5"/><rect x="64" y="32" width="128" height="56" rx="10" fill="url(#screenShine)"/><g filter="url(#textGlow)" transform="matrix(1, 0, 0, 1, 0.378685, 4.544281)"><text x="180" y="72" font-family="monospace" font-size="30" font-weight="bold" fill="#44ddaa" text-anchor="end" opacity="0.95" style="white-space: pre;">3,141</text></g><text x="180" y="48" font-family="monospace" font-size="11" fill="#44ddaa" text-anchor="end" style="white-space: pre;">1,618×1.941=</text><rect x="64" y="32" width="128" height="10" rx="5" fill="#000" opacity="0.15"/></g><g style="opacity: 0.64;" transform="matrix(1.021922, 0, 0, 1.121556, -4.033603, -11.028003)"><rect x="76" y="96" width="24" height="6" rx="1.5" style="fill: rgb(58, 95, 90); stroke: rgb(96, 161, 153); stroke-width: 2px;"/><rect x="104" y="96" width="24" height="6" rx="1.5" style="fill: rgb(58, 95, 90); stroke: rgb(96, 161, 153); stroke-width: 2px;"/><rect x="132" y="96" width="24" height="6" rx="1.5" style="fill: rgb(58, 95, 90); stroke: rgb(96, 161, 153); stroke-width: 2px;"/><rect x="160" y="96" width="24" height="6" rx="1.5" style="fill: rgb(58, 95, 90); stroke: rgb(96, 161, 153); stroke-width: 2px;"/><rect x="78" y="96" width="8" height="3" rx="1" opacity="0.06" style="fill: rgb(58, 95, 90); stroke: rgb(96, 161, 153); stroke-width: 2px;"/><rect x="106" y="96" width="8" height="3" rx="1" opacity="0.06" style="fill: rgb(58, 95, 90); stroke: rgb(96, 161, 153); stroke-width: 2px;"/><rect x="134" y="96" width="8" height="3" rx="1" opacity="0.06" style="fill: rgb(58, 95, 90); stroke: rgb(96, 161, 153); stroke-width: 2px;"/><rect x="162" y="96" width="8" height="3" rx="1" opacity="0.06" style="fill: rgb(58, 95, 90); stroke: rgb(96, 161, 153); stroke-width: 2px;"/></g><g><g filter="url(#tealGlow)"><rect x="64" y="110" width="30" height="24" rx="6" fill="url(#tealBtn)"/><text x="79" y="127" font-family="sans-serif" font-size="13" font-weight="bold" fill="#fff" text-anchor="middle" style="white-space: pre;">C</text></g><rect x="98" y="110" width="30" height="24" rx="6" fill="url(#lightBtn)"/><text x="113" y="127" font-family="sans-serif" font-size="12" fill="#c0c4c8" text-anchor="middle" style="white-space: pre;">±</text><rect x="132" y="110" width="30" height="24" rx="6" fill="url(#lightBtn)"/><text x="147" y="127" font-family="sans-serif" font-size="12" fill="#c0c4c8" text-anchor="middle" style="white-space: pre;">%</text><g filter="url(#tealGlow)"><rect x="166" y="110" width="30" height="24" rx="6" fill="url(#tealBtn)"/><text x="181" y="127" font-family="sans-serif" font-size="14" font-weight="bold" fill="#fff" text-anchor="middle" style="white-space: pre;">÷</text></g></g><g><rect x="64" y="140" width="30" height="24" rx="6" fill="url(#darkBtn)"/><text x="79" y="157" font-family="sans-serif" font-size="13" fill="#e0e2e4" text-anchor="middle" style="white-space: pre;">7</text><rect x="98" y="140" width="30" height="24" rx="6" fill="url(#darkBtn)"/><text x="113" y="157" font-family="sans-serif" font-size="13" fill="#e0e2e4" text-anchor="middle" style="white-space: pre;">8</text><rect x="132" y="140" width="30" height="24" rx="6" fill="url(#darkBtn)"/><text x="147" y="157" font-family="sans-serif" font-size="13" fill="#e0e2e4" text-anchor="middle" style="white-space: pre;">9</text><g filter="url(#tealGlow)"><rect x="166" y="140" width="30" height="24" rx="6" fill="url(#tealBtn)"/><text x="181" y="157" font-family="sans-serif" font-size="14" font-weight="bold" fill="#fff" text-anchor="middle" style="white-space: pre;">×</text></g></g><g><rect x="64" y="170" width="30" height="24" rx="6" fill="url(#darkBtn)"/><text x="79" y="187" font-family="sans-serif" font-size="13" fill="#e0e2e4" text-anchor="middle" style="white-space: pre;">4</text><rect x="98" y="170" width="30" height="24" rx="6" fill="url(#darkBtn)"/><text x="113" y="187" font-family="sans-serif" font-size="13" fill="#e0e2e4" text-anchor="middle" style="white-space: pre;">5</text><rect x="132" y="170" width="30" height="24" rx="6" fill="url(#darkBtn)"/><text x="147" y="187" font-family="sans-serif" font-size="13" fill="#e0e2e4" text-anchor="middle" style="white-space: pre;">6</text><g filter="url(#tealGlow)"><rect x="166" y="170" width="30" height="24" rx="6" fill="url(#tealBtn)"/><text x="181" y="188" font-family="sans-serif" font-size="16" font-weight="bold" fill="#fff" text-anchor="middle" style="white-space: pre;">−</text></g></g><g><rect x="64" y="200" width="30" height="24" rx="6" fill="url(#darkBtn)"/><text x="79" y="217" font-family="sans-serif" font-size="13" fill="#e0e2e4" text-anchor="middle" style="white-space: pre;">1</text><rect x="98" y="200" width="30" height="24" rx="6" fill="url(#darkBtn)"/><text x="113" y="217" font-family="sans-serif" font-size="13" fill="#e0e2e4" text-anchor="middle" style="white-space: pre;">2</text><rect x="132" y="200" width="30" height="24" rx="6" fill="url(#darkBtn)"/><text x="147" y="217" font-family="sans-serif" font-size="13" fill="#e0e2e4" text-anchor="middle" style="white-space: pre;">3</text><g filter="url(#tealGlow)"><rect x="166" y="200" width="30" height="24" rx="6" fill="url(#tealBtn)"/><text x="181" y="217" font-family="sans-serif" font-size="16" font-weight="bold" fill="#fff" text-anchor="middle" style="white-space: pre;">+</text></g></g><rect x="64" y="230" width="128" height="2" rx="1" fill="#44ddaa" opacity="0.08"/></svg>