<?xml version="1.0" encoding="utf-8"?>
<svg xmlns="http://www.w3.org/2000/svg" viewBox="35.007 28.905 207.106 212.321" width="256" height="256" xmlns:bx="https://boxy-svg.com" preserveAspectRatio="none"><defs><linearGradient id="padGrad" x1="0%" y1="0%" x2="5%" y2="100%"><stop offset="0" stop-color="#fff9a0"/><stop offset="1" stop-color="#f0d840"/></linearGradient><linearGradient id="bindingGrad" x1="0%" y1="0%" x2="0%" y2="100%"><stop offset="0" stop-color="#cc3333"/><stop offset="0.4" stop-color="#aa2222"/><stop offset="1" stop-color="#881818"/></linearGradient><linearGradient id="pencilBody" x1="0%" y1="0%" x2="100%" y2="0%"><stop offset="0" stop-color="#e8a020"/><stop offset="0.2" stop-color="#f5c030"/><stop offset="0.5" stop-color="#f0b828"/><stop offset="0.8" stop-color="#f5c030"/><stop offset="1" stop-color="#d89818"/></linearGradient><linearGradient id="ferruleGrad" x1="0%" y1="0%" x2="100%" y2="0%"><stop offset="0" stop-color="#b8b8b8"/><stop offset="0.3" stop-color="#d8d8d8"/><stop offset="0.6" stop-color="#a8a8a8"/><stop offset="1" stop-color="#c0c0c0"/></linearGradient><linearGradient id="eraserGrad" x1="0%" y1="0%" x2="100%" y2="0%"><stop offset="0" stop-color="#e07070"/><stop offset="0.5" stop-color="#d05858"/><stop offset="1" stop-color="#c04848"/></linearGradient><filter id="padShadow" x="-10%" y="-5%" width="125%" height="120%"><feDropShadow dx="0" dy="6" stdDeviation="6" flood-color="#000" flood-opacity="0.45"/></filter><filter id="pencilShadow" x="-10%" y="-10%" width="130%" height="130%"><feDropShadow dx="2" dy="4" stdDeviation="4" flood-color="#000" flood-opacity="0.35"/></filter><view id="view-1"><title>View 1</title></view></defs><g filter="url(#padShadow)"><rect x="40" y="38" width="170" height="200" rx="4" fill="#e8cc30" stroke="#c0a010" stroke-width="0.8"/><rect x="38" y="36" width="170" height="200" rx="4" fill="#ecd438" stroke="#c8a818" stroke-width="0.8"/><rect x="36" y="34" width="170" height="200" rx="5" fill="url(#padGrad)"/><rect x="36" y="30" width="170" height="16" rx="4" fill="url(#bindingGrad)"/><rect x="36" y="38" width="170" height="8" fill="url(#bindingGrad)"/><rect x="40" y="31" width="162" height="4" rx="2" fill="#dd4444" opacity="0.5"/><line x1="36" y1="40" x2="206" y2="40" stroke="#771515" stroke-width="0.8" opacity="0.4"/><rect x="36" y="46" width="170" height="6" rx="2" fill="#fff" opacity="0.2"/><g stroke="#d0a828" stroke-width="1" opacity="0.5"><line x1="50" y1="72" x2="194" y2="72"/><line x1="50" y1="92" x2="194" y2="92"/><line x1="50" y1="112" x2="194" y2="112"/><line x1="50" y1="132" x2="194" y2="132"/><line x1="50" y1="152" x2="194" y2="152"/><line x1="50" y1="172" x2="194" y2="172"/><line x1="50" y1="192" x2="194" y2="192"/><line x1="50" y1="212" x2="194" y2="212"/></g><line x1="72" y1="48" x2="72" y2="232" stroke="#e06060" stroke-width="1.2" opacity="0.45"/><g stroke="#b89020" stroke-width="1.5" fill="none" opacity="0.35" stroke-linecap="round"><path d="M80,70 Q100,68 120,71 Q140,74 155,70"/><path d="M80,90 Q110,88 140,91 Q160,94 180,90"/><path d="M80,110 Q95,108 110,111 Q130,114 145,110"/><path d="M80,130 Q115,128 145,131 Q170,134 190,130"/><path d="M80,150 Q100,148 125,151 Q140,153 155,150"/><path d="M80,170 Q110,168 135,171 Q155,174 175,170"/><path d="M80,190 Q95,188 115,191"/></g></g><g filter="url(#pencilShadow)" transform="matrix(0.819152, 0.573576, -0.573576, 0.819152, 201.979462, 21.986019)"><rect x="30" y="20" width="18" height="130" rx="2" fill="url(#pencilBody)"/><rect x="30" y="20" width="5" height="130" rx="1" fill="#d89018" opacity="0.4"/><rect x="42" y="20" width="4" height="130" rx="1" fill="#ffe060" opacity="0.25"/><rect x="29.252" y="8" width="19.262" height="16" rx="1" fill="url(#ferruleGrad)" style=""/><line x1="29.252" y1="12" x2="48.555" y2="12" stroke="#999" stroke-width="0.8" opacity="0.6" style="transform-origin: 38.903px 12px 0px;"/><line x1="29.122" y1="16" x2="48.094" y2="16" stroke="#999" stroke-width="0.8" opacity="0.6" style="transform-origin: 38.607px 16px 0px;"/><line x1="29.528" y1="20" x2="48.17" y2="20" stroke="#999" stroke-width="0.8" opacity="0.6" style="transform-origin: 38.849px 20px 0px;"/><rect x="28.599" width="20.187" height="12" rx="3" fill="url(#eraserGrad)" style=""/><rect x="32" y="1" width="4" height="10" rx="2" fill="#e88080" opacity="0.4"/><polygon points="30.833 150.055 46.384 150.055 38.609 172.012" fill="#e8c8a0" style="transform-origin: 38.609px 161.033px 0px;"/><polygon points="36.017 165.026 41.201 165.026 38.609 178" fill="#3a3a3a" style="transform-origin: 38.609px 171.513px 0px;"/><polygon points="37.313 168.019 39.904 168.019 38.609 178" fill="#1a1a1a" style="transform-origin: 38.609px 173.01px 0px;"/></g></svg>