<?xml version="1.0" encoding="utf-8"?>
<svg xmlns="http://www.w3.org/2000/svg" viewBox="0 2.768 256 249.234" width="256" height="256" xmlns:bx="https://boxy-svg.com" preserveAspectRatio="none"><defs><filter id="picGlow" x="-15%" y="-15%" width="130%" height="130%"><feDropShadow dx="0" dy="0" stdDeviation="3" flood-color="#55bb66" flood-opacity="0.5"/></filter><filter id="lensGlow" x="-30%" y="-30%" width="160%" height="160%"><feDropShadow dx="0" dy="0" stdDeviation="4" flood-color="#ffffff" flood-opacity="0.3"/></filter><clipPath id="iconClip"><rect x="16" y="16" width="224" height="224" rx="40"/></clipPath><bx:export><bx:file format="svg" path="lntrn-image-viewer.svg"/></bx:export></defs><g transform="matrix(1.011278, -0.183153, 0.178315, 1.038718, -37.987926, 7.051045)" filter="url(#picGlow)" style=""><rect x="30" y="55" width="120" height="150" rx="4" fill="#f5f2ea" stroke="#d0ccc0" stroke-width="1.5"/><rect x="38" y="63" width="104" height="100" rx="2" fill="#85c1e9"/><rect x="38" y="63" width="104" height="30" fill="#ff7043" opacity="0.5"/><polygon points="38,130 68,100 90,118 120,90 142,115 142,163 38,163" fill="#1b5e20" opacity="0.5"/></g><g transform="matrix(0.996376, 0.255165, -0.248425, 1.023411, 27.615013, -49.698532)" filter="url(#picGlow)" style=""><rect x="120" y="50" width="120" height="150" rx="4" fill="#f0ece0" stroke="#c8c4b4" stroke-width="1.5"/><rect x="128" y="58" width="104" height="100" rx="2" fill="#7dcea0"/><rect x="128" y="58" width="104" height="35" fill="#85c1e9" opacity="0.7"/><polygon points="128,120 160,90 185,110 210,85 232,105 232,158 128,158" fill="#2e7d32" opacity="0.6"/></g><g clip-path="url(#iconClip)" style="" transform="matrix(1.026878, 0, 0, 1.054742, -4.750328, -11.836391)"><g filter="url(#picGlow)" style="" transform="matrix(1, 0, 0, 1.019421, 0, -0.776859)"><rect x="48" y="40" width="160" height="175.941" rx="5" fill="#fff" stroke="#ddd8cc" stroke-width="2" style=""/><rect x="58" y="50" width="140" height="115" rx="3" fill="#56b3e8"/><rect x="58" y="50" width="140" height="40" rx="3" fill="#ff7043" opacity="0.65"/><rect x="58" y="50" width="140" height="20" rx="3" fill="#ff5252" opacity="0.45"/><circle cx="158" cy="68" r="16" fill="#ffd54f"/><circle cx="158" cy="68" r="12" fill="#ffe082"/><circle cx="158" cy="68" r="20" fill="#ffd54f" opacity="0.15"/><polygon points="58,120 80,85 100,110 125,78 148,100 170,88 198,108 198,165 58,165" fill="#2e7d32" opacity="0.85"/><polygon points="58,130 85,105 110,125 140,108 175,120 198,112 198,165 58,165" fill="#1b5e20" opacity="0.75"/><circle cx="80" cy="145" r="4.5" fill="#e91e63" opacity="0.85"/><circle cx="96" cy="150" r="3.5" fill="#ff9800" opacity="0.75"/><circle cx="115" cy="148" r="4" fill="#e91e63" opacity="0.7"/><circle cx="140" cy="142" r="3.5" fill="#ffc107" opacity="0.75"/><circle cx="160" cy="148" r="4.5" fill="#e91e63" opacity="0.65"/><circle cx="178" cy="144" r="3" fill="#ff9800" opacity="0.6"/><rect x="58" y="161.136" width="140" height="50.16" fill="#fff" style=""/><g filter="url(#lensGlow)" transform="matrix(1, 0, 0, 1, -0.469671, -5.875551)"><circle cx="128" cy="194" r="14" fill="none" stroke="#777" stroke-width="2.5"/><circle cx="128" cy="194" r="9" fill="none" stroke="#999" stroke-width="1.5"/><circle cx="128" cy="194" r="4" fill="#444"/><circle cx="133" cy="189" r="2.5" fill="#fff" opacity="0.45"/><circle cx="128" cy="194" r="6.5" fill="none" stroke="#888" stroke-width="0.6" stroke-dasharray="4 3"/></g></g></g></svg>