<?xml version="1.0" encoding="utf-8"?>
<svg xmlns="http://www.w3.org/2000/svg" viewBox="5.903 5.946 88.503 88.46" width="256" height="256" xmlns:bx="https://boxy-svg.com" preserveAspectRatio="none"><defs><linearGradient id="bgGrad" x1="0%" y1="0%" x2="10%" y2="100%"><stop offset="0" stop-color="#0a0a0a"/><stop offset="1" stop-color="#0a0a0a"/></linearGradient><linearGradient id="promptGrad" x1="0%" y1="0%" x2="100%" y2="100%"><stop offset="0" stop-color="#ffe066"/><stop offset="1" stop-color="#c07010"/></linearGradient><filter id="bgShadow" x="-10%" y="-10%" width="120%" height="120%"><feDropShadow dx="0" dy="3" stdDeviation="3.5" flood-color="#000" flood-opacity="0.6"/></filter><filter id="promptGlow" x="-30%" y="-30%" width="160%" height="160%"><feDropShadow dx="0" dy="0" stdDeviation="3.5" flood-color="#f0a030" flood-opacity="0.9"/></filter><radialGradient gradientUnits="userSpaceOnUse" cx="53.69" cy="80.005" r="15.535" id="gradient-0" gradientTransform="matrix(0.967056, 0, 0, 1, -0.242439, 5.027001)"><stop offset="0" stop-color="#ffe066"/><stop offset="1" stop-color="#c07010"/></radialGradient><bx:export><bx:file format="svg" path="terminal.svg"/><bx:file format="png" excluded="true"/></bx:export></defs><g filter="url(#bgShadow)"><rect x="6" y="6" width="88" height="88" rx="12" fill="url(#bgGrad)"/></g><path d="M22,24 C26,22 30,26 34,24 C38,22 42,26 46,24 C50,22 54,26 58,24 C62,22 66,26 70,24 C72,23 74,24 76,24" fill="none" stroke="#d8d4cc" stroke-width="1.8" stroke-linecap="round" opacity="0.7"/><path d="M22,32 C27,30 31,34 36,32 C40,30 44,34 49,32 C53,30 57,34 61,32 C64,30 67,32 70,32" fill="none" stroke="#d8d4cc" stroke-width="1.8" stroke-linecap="round" opacity="0.55"/><path d="M22,40 C26,38 30,42 35,40 C39,38 43,42 47,40 C51,38 54,40 58,40" fill="none" stroke="#d8d4cc" stroke-width="1.8" stroke-linecap="round" opacity="0.4"/><line x1="14" y1="50" x2="86" y2="50" stroke="#3a3a3a" stroke-width="1" opacity="0.8"/><g filter="url(#promptGlow)"><path d="M16,62 L34,72 L16,82" fill="none" stroke="url(#promptGrad)" stroke-width="5.5" stroke-linecap="round" stroke-linejoin="round"/><path stroke-linecap="round" d="M 36.656 85 C 46.656 85.024 56.655 85.049 66.656 85.073" style="stroke: url(&quot;#gradient-0&quot;); transform-origin: 51.406px 85.174px 0px;" stroke-width="5"/></g></svg>