<?xml version="1.0" encoding="utf-8"?>
<svg xmlns="http://www.w3.org/2000/svg" viewBox="0 0 256 256" width="256" height="256" xmlns:bx="https://boxy-svg.com"><defs><linearGradient id="diskGrad" x1="0%" y1="0%" x2="0%" y2="100%"><stop offset="0" stop-color="#3a4a5a"/><stop offset="0.4" stop-color="#2a3644"/><stop offset="1" stop-color="#1a2430"/></linearGradient><linearGradient id="diskHighlight" x1="30%" y1="0%" x2="70%" y2="100%"><stop offset="0" stop-color="#5a6a7a" stop-opacity="0.4"/><stop offset="1" stop-color="#fff" stop-opacity="0"/></linearGradient><linearGradient id="platterGrad" x1="0%" y1="0%" x2="100%" y2="100%"><stop offset="0" stop-color="#556070"/><stop offset="0.3" stop-color="#3a4858"/><stop offset="0.6" stop-color="#4a5868"/><stop offset="1" stop-color="#344050"/></linearGradient><linearGradient id="armGrad" x1="0%" y1="0%" x2="100%" y2="0%"><stop offset="0" stop-color="#8090a0"/><stop offset="0.5" stop-color="#a0b0c0"/><stop offset="1" stop-color="#7888a0"/></linearGradient><linearGradient id="arrowGrad" x1="0%" y1="0%" x2="100%" y2="100%"><stop offset="0" stop-color="#44ddaa"/><stop offset="1" stop-color="#22aa77"/></linearGradient><linearGradient id="shieldGrad" x1="0%" y1="0%" x2="0%" y2="100%"><stop offset="0" stop-color="#44ddaa"/><stop offset="1" stop-color="#1a8855"/></linearGradient><filter id="diskShadow" x="-12%" y="-8%" width="130%" height="130%"><feDropShadow dx="0" dy="6" stdDeviation="7" flood-color="#000" flood-opacity="0.5"/></filter><filter id="platterGlow" x="-10%" y="-10%" width="120%" height="120%"><feDropShadow dx="0" dy="0" stdDeviation="2" flood-color="#6688aa" flood-opacity="0.3"/></filter><filter id="arrowGlow" x="-30%" y="-30%" width="160%" height="160%"><feDropShadow dx="0" dy="0" stdDeviation="5" flood-color="#44ddaa" flood-opacity="0.8"/></filter><filter id="checkGlow" x="-40%" y="-40%" width="180%" height="180%"><feDropShadow dx="0" dy="0" stdDeviation="3" flood-color="#44ffaa" flood-opacity="0.9"/></filter><clipPath id="diskClip"><rect x="18" y="38" width="220" height="180" rx="16"/></clipPath><bx:export><bx:file format="svg" path="lntrn-snapshot.svg"/></bx:export></defs><g filter="url(#diskShadow)"><rect x="18" y="38" width="220" height="180" rx="16" fill="url(#diskGrad)"/><rect x="30.225" y="38" width="196.357" height="6" rx="3" fill="#4a5a6a" opacity="0.5" style=""/><rect x="18" y="206" width="220" height="12" rx="8" fill="#0e1820" opacity="0.5"/><rect x="18" y="38" width="220" height="180" rx="16" fill="url(#diskHighlight)" opacity="0.3"/></g><g clip-path="url(#diskClip)" style=""><g filter="url(#platterGlow)"><circle cx="118" cy="120" r="68" fill="url(#platterGrad)"/><circle cx="118" cy="120" r="62" fill="none" stroke="#4a5a6a" stroke-width="0.8" opacity="0.5"/><circle cx="118" cy="120" r="52" fill="none" stroke="#4a5a6a" stroke-width="0.6" opacity="0.4"/><circle cx="118" cy="120" r="42" fill="none" stroke="#4a5a6a" stroke-width="0.6" opacity="0.35"/><circle cx="118" cy="120" r="32" fill="none" stroke="#4a5a6a" stroke-width="0.5" opacity="0.3"/><circle cx="118" cy="120" r="22" fill="none" stroke="#4a5a6a" stroke-width="0.5" opacity="0.25"/><ellipse cx="100" cy="95" rx="35" ry="20" fill="#fff" opacity="0.04" style="transform-origin: 100px 95px 0px;" transform="matrix(0.908939, -0.41693, 0.41693, 0.908939, -3.623771, -17.295224)"/><circle cx="118" cy="120" r="12" fill="#2a3644" stroke="#5a6a7a" stroke-width="1.5"/><circle cx="118" cy="120" r="7" fill="#3a4858"/><circle cx="118" cy="120" r="3" fill="#5a6a7a"/></g><g><path d="M200,65 L140,112" fill="none" stroke="url(#armGrad)" stroke-width="5" stroke-linecap="round"/><path d="M140,112 L130,118" fill="none" stroke="#a0b0c0" stroke-width="3" stroke-linecap="round"/><rect x="126" y="114" width="10" height="6" rx="2" fill="#8898a8" transform="rotate(-35, 131, 117)"/><circle cx="200" cy="65" r="8" fill="#2a3644" stroke="#5a6a7a" stroke-width="1.5"/><circle cx="200" cy="65" r="4" fill="#4a5a6a"/></g><circle cx="34" cy="54" r="4" fill="#1a2430" stroke="#3a4858" stroke-width="1"/><circle cx="34" cy="54" r="1.5" fill="#3a4858"/><circle cx="222" cy="54" r="4" fill="#1a2430" stroke="#3a4858" stroke-width="1"/><circle cx="222" cy="54" r="1.5" fill="#3a4858"/><circle cx="34" cy="202" r="4" fill="#1a2430" stroke="#3a4858" stroke-width="1"/><circle cx="34" cy="202" r="1.5" fill="#3a4858"/><circle cx="222" cy="202" r="4" fill="#1a2430" stroke="#3a4858" stroke-width="1"/><circle cx="222" cy="202" r="1.5" fill="#3a4858"/><rect x="46.08" y="198.432" width="99.129" height="6.501" rx="2" fill="#1a2430" style=""/><rect x="46.08" y="198.432" width="69.39" height="6.501" rx="2" fill="#44ddaa" opacity="0.5" style=""/><rect x="150" y="180" width="72" height="26" rx="3" fill="#e8e4d8" opacity="0.08"/><rect x="4.613" y="127.137" width="99.129" height="6.501" rx="2" fill="#1a2430" style="stroke-width: 1px; transform-origin: 54.178px 130.387px 0px;" transform="matrix(0.008021, -0.999968, 0.999968, 0.008021, -20.480539, -11.702513)"/><rect x="4.613" y="127.137" width="69.39" height="6.501" rx="2" fill="#44ddaa" opacity="0.5" style="stroke-width: 1px; transform-origin: 54.178px 130.387px 0px;" transform="matrix(0.008021, -0.999968, 0.999968, 0.008021, -20.480539, -11.702513)"/></g><g filter="url(#arrowGlow)" transform="matrix(1, 0, 0, 1, 143.328979, 169.016068)"><path d="M 15.891 -65.166 C 28.029 -54.724 46.212 -52.62 60.843 -59.966 C 75.474 -67.31 83.184 -82.408 79.909 -97.3 C 76.633 -112.19 63.117 -123.43 46.503 -125.11 C 29.89 -126.78 13.991 -118.49 7.208 -104.62" fill="none" stroke="url(#arrowGrad)" stroke-width="7" stroke-linecap="round" style="transform-origin: 36.217px -89.582px 0px;" transform="matrix(0.963432, -0.267954, 0.267954, 0.963432, 0, 0)"/><polygon points="1.531 -112.69 17.133 -103.45 0.255 -97.055" fill="#44ddaa" style="transform-origin: 36.217px -89.582px 0px;" transform="matrix(0.963432, -0.267954, 0.267954, 0.963432, 0, 0)"/><g stroke="#44ddaa" stroke-width="2" opacity="0.4" stroke-linecap="round" transform="matrix(2.145887, -0.58334, 0.564792, 2.077656, -25.737061, -50.255806)" style="transform-origin: -1.42109e-14px 0px 0px;"><line x1="0" y1="-28" x2="0" y2="-22"/><line x1="24" y1="-14" x2="20" y2="-10"/><line x1="28" y1="10" x2="23" y2="8"/><line x1="14" y1="28" x2="11" y2="23"/><line x1="-14" y1="28" x2="-11" y2="23"/><line x1="-28" y1="10" x2="-23" y2="8"/><line x1="-24" y1="-14" x2="-20" y2="-10"/></g><circle cx="-25.889" cy="-49.647" r="3" fill="#44ddaa" opacity="0.6" style="transform-origin: -25.8893px -49.6466px 0px;" transform="matrix(2.145887, -0.58334, 0.564792, 2.077656, 0.152304, -0.609172)"/><line x1="-25.737" y1="-50.256" x2="-25.737" y2="-84.707" stroke="#44ddaa" stroke-width="2.5" stroke-linecap="round" opacity="0.8" style="transform-origin: -25.737px -50.256px 0px;" transform="matrix(0.964981, -0.262321, 0.262321, 0.964981, 0, 0)"/><line x1="-25.737" y1="-50.256" x2="0.948" y2="-37.339" stroke="#44ddaa" stroke-width="2" stroke-linecap="round" opacity="0.6" style="transform-origin: -25.737px -50.256px 0px;" transform="matrix(0.964981, -0.262321, 0.262321, 0.964981, 0, 0)"/></g><g filter="url(#checkGlow)" transform="matrix(1, 0, 0, 1, 207.751587, 154.182159)"><circle cx="0" cy="0" r="16" fill="url(#shieldGrad)" opacity="0.9"/><circle cx="0" cy="0" r="12" fill="#1a4030" opacity="0.5"/><polyline points="-6,0 -2,5 7,-5" fill="none" stroke="#44ffaa" stroke-width="3.5" stroke-linecap="round" stroke-linejoin="round"/></g><rect x="18" y="38" width="220" height="180" rx="16" fill="none" stroke="#4a5a6a" stroke-width="1.5" opacity="0.3"/></svg>