<svg xmlns="http://www.w3.org/2000/svg" viewBox="0 0 100 100" width="256" height="256">
  <defs>
    
    <linearGradient id="obsBack" x1="0%" y1="0%" x2="0%" y2="100%">
      <stop offset="0%" stop-color="#02040f"/><stop offset="100%" stop-color="#010208"/>
    </linearGradient>
    <linearGradient id="domeG" x1="0%" y1="0%" x2="100%" y2="100%">
      <stop offset="0%" stop-color="#2a3a5a"/><stop offset="100%" stop-color="#111a2a"/>
    </linearGradient>
    <linearGradient id="stripG" x1="0%" y1="0%" x2="100%" y2="0%">
      <stop offset="0%" stop-color="#aaaaff"/><stop offset="100%" stop-color="#4444cc"/>
    </linearGradient>
    <filter id="starG" x="-80%" y="-80%" width="260%" height="260%">
      <feDropShadow dx="0" dy="0" stdDeviation="1" flood-color="#fff" flood-opacity="1"/>
    </filter>
    <filter id="scopeGlow" x="-20%" y="-20%" width="140%" height="140%">
      <feDropShadow dx="0" dy="0" stdDeviation="2.5" flood-color="#aaaaff" flood-opacity="0.8"/>
    </filter>
    <filter id="beamGlow" x="-20%" y="-20%" width="140%" height="140%">
      <feDropShadow dx="0" dy="0" stdDeviation="3" flood-color="#ffffff" flood-opacity="0.7"/>
    </filter>
    <linearGradient id="page1grad" x1="0%" y1="0%" x2="0%" y2="100%">
      <stop offset="0%" stop-color="#f0ece0"/><stop offset="100%" stop-color="#d8d4c8"/>
    </linearGradient>
    <linearGradient id="page2grad" x1="0%" y1="0%" x2="0%" y2="100%">
      <stop offset="0%" stop-color="#e4e0d4"/><stop offset="100%" stop-color="#c8c4b8"/>
    </linearGradient>
    <filter id="fShadow">
      <feDropShadow dx="0" dy="3" stdDeviation="3.5" flood-color="#000" flood-opacity="0.7"/>
    </filter>
    <filter id="pShadow">
      <feDropShadow dx="0" dy="1" stdDeviation="1.5" flood-color="#000" flood-opacity="0.35"/>
    </filter>
  </defs>
  <g filter="url(#fShadow)">
    <path d="M7,22 Q7,17 12,17 L40,17 Q45,17 47,22 L53,30 L93,30 L93,93 Q93,98 88,98 L12,98 Q7,98 7,93 Z" fill="#02040f"/>
  </g>
  <g filter="url(#pShadow)">
    <rect x="14" y="27" width="72" height="5" rx="1.5" fill="url(#page2grad)"/>
  </g>
  <g filter="url(#pShadow)">
    <rect x="14" y="31" width="72" height="5" rx="1.5" fill="url(#page1grad)"/>
  </g>
  <rect x="7" y="36" width="86" height="12" fill="url(#stripG)"/><rect x="7" y="36" width="86" height="4.5" fill="#fff" opacity="0.1"/>
  <clipPath id="bodyClip"><rect x="7" y="48" width="86" height="50" rx="5"/></clipPath>
  <rect x="7" y="48" width="86" height="50" rx="5" fill="#010208"/>
  
  <g clip-path="url(#bodyClip)">
    <rect x="7" y="48" width="86" height="50" fill="url(#obsBack)"/>
    <!-- Constellation lines -->
    <g stroke="#334466" stroke-width="0.7" opacity="0.6">
      <line x1="15" y1="52" x2="25" y2="58"/><line x1="25" y1="58" x2="20" y2="66"/>
      <line x1="25" y1="58" x2="35" y2="62"/><line x1="70" y1="50" x2="80" y2="56"/>
      <line x1="80" y1="56" x2="88" y2="52"/><line x1="80" y1="56" x2="76" y2="64"/>
    </g>
    <!-- Stars -->
    <g filter="url(#starG)">
      <circle cx="15" cy="52" r="1"   fill="#fff"/>
      <circle cx="25" cy="58" r="1.5" fill="#fff"/>
      <circle cx="20" cy="66" r="1"   fill="#aaaaff"/>
      <circle cx="35" cy="62" r="1"   fill="#aaaaff"/>
      <circle cx="70" cy="50" r="1.2" fill="#fff"/>
      <circle cx="80" cy="56" r="1.5" fill="#fff"/>
      <circle cx="88" cy="52" r="1"   fill="#aaaaff"/>
      <circle cx="76" cy="64" r="1"   fill="#aaaaff"/>
      <circle cx="55" cy="52" r="0.8" fill="#fff" opacity="0.7"/>
      <circle cx="45" cy="60" r="0.8" fill="#fff" opacity="0.6"/>
      <circle cx="60" cy="64" r="0.8" fill="#fff" opacity="0.7"/>
    </g>
    <!-- Observatory dome building -->
    <g filter="url(#scopeGlow)">
      <rect x="28" y="80" width="44" height="18" rx="2" fill="url(#domeG)" stroke="#4444aa" stroke-width="1"/>
      <path d="M28,80 A22,22 0 0,1 72,80 Z" fill="url(#domeG)" stroke="#4444aa" stroke-width="1"/>
      <!-- Dome slit -->
      <rect x="48" y="62" width="4" height="18" rx="1" fill="#000010"/>
      <!-- Windows -->
      <rect x="33" y="84" width="6" height="5" rx="1" fill="#000828" stroke="#6666aa" stroke-width="0.8"/>
      <rect x="42" y="84" width="6" height="5" rx="1" fill="#000828" stroke="#6666aa" stroke-width="0.8"/>
      <rect x="58" y="84" width="6" height="5" rx="1" fill="#000828" stroke="#6666aa" stroke-width="0.8"/>
    </g>
    <!-- Telescope beam -->
    <g filter="url(#beamGlow)" opacity="0.6">
      <line x1="50" y1="68" x2="30" y2="50" stroke="#ffffff" stroke-width="1.5" stroke-linecap="round"/>
    </g>
    <!-- Planet being observed -->
    <g filter="url(#starG)">
      <circle cx="30" cy="50" r="4" fill="#332255" stroke="#8866ff" stroke-width="1"/>
      <ellipse cx="30" cy="50" rx="6.5" ry="1.8" fill="none" stroke="#aa88ff" stroke-width="1" opacity="0.8"/>
    </g>
  </g>
  <rect x="7" y="48" width="86" height="50" rx="5" fill="none" stroke="#6666cc" stroke-width="1.2" opacity="0.3"/>
  <rect x="7" y="48" width="86" height="12" rx="5" fill="#fff" opacity="0.04"/>
  <rect x="7" y="90" width="86" height="8" rx="5" fill="#000" opacity="0.2"/>
</svg>