<svg xmlns="http://www.w3.org/2000/svg" viewBox="0 0 100 100" width="256" height="256">
  <defs>
    
    <linearGradient id="iceBack" x1="0%" y1="0%" x2="0%" y2="100%">
      <stop offset="0%" stop-color="#040d1a"/><stop offset="100%" stop-color="#020810"/>
    </linearGradient>
    <linearGradient id="glacierG" x1="0%" y1="0%" x2="100%" y2="100%">
      <stop offset="0%" stop-color="#88ddff"/><stop offset="100%" stop-color="#2266aa"/>
    </linearGradient>
    <linearGradient id="stripG" x1="0%" y1="0%" x2="100%" y2="0%">
      <stop offset="0%" stop-color="#44ccff"/><stop offset="100%" stop-color="#0088cc"/>
    </linearGradient>
    <filter id="iceGlow" x="-20%" y="-20%" width="140%" height="140%">
      <feDropShadow dx="0" dy="0" stdDeviation="3" flood-color="#44ccff" flood-opacity="0.8"/>
    </filter>
    <filter id="auroraG" x="-10%" y="-10%" width="120%" height="120%">
      <feGaussianBlur stdDeviation="2"/>
    </filter>
    <linearGradient id="page1grad" x1="0%" y1="0%" x2="0%" y2="100%">
      <stop offset="0%" stop-color="#f0ece0"/><stop offset="100%" stop-color="#d8d4c8"/>
    </linearGradient>
    <linearGradient id="page2grad" x1="0%" y1="0%" x2="0%" y2="100%">
      <stop offset="0%" stop-color="#e4e0d4"/><stop offset="100%" stop-color="#c8c4b8"/>
    </linearGradient>
    <filter id="fShadow">
      <feDropShadow dx="0" dy="3" stdDeviation="3.5" flood-color="#000" flood-opacity="0.7"/>
    </filter>
    <filter id="pShadow">
      <feDropShadow dx="0" dy="1" stdDeviation="1.5" flood-color="#000" flood-opacity="0.35"/>
    </filter>
  </defs>
  <g filter="url(#fShadow)">
    <path d="M7,22 Q7,17 12,17 L40,17 Q45,17 47,22 L53,30 L93,30 L93,93 Q93,98 88,98 L12,98 Q7,98 7,93 Z" fill="#040d1a"/>
  </g>
  <g filter="url(#pShadow)">
    <rect x="14" y="27" width="72" height="5" rx="1.5" fill="url(#page2grad)"/>
  </g>
  <g filter="url(#pShadow)">
    <rect x="14" y="31" width="72" height="5" rx="1.5" fill="url(#page1grad)"/>
  </g>
  <rect x="7" y="36" width="86" height="12" fill="url(#stripG)"/><rect x="7" y="36" width="86" height="4.5" fill="#fff" opacity="0.15"/>
  <clipPath id="bodyClip"><rect x="7" y="48" width="86" height="50" rx="5"/></clipPath>
  <rect x="7" y="48" width="86" height="50" rx="5" fill="#020810"/>
  
  <g clip-path="url(#bodyClip)">
    <rect x="7" y="48" width="86" height="50" fill="url(#iceBack)"/>
    <!-- Faint aurora -->
    <g filter="url(#auroraG)" opacity="0.4">
      <path d="M7,58 Q30,52 50,58 Q70,64 93,55" fill="none" stroke="#00ffaa" stroke-width="8"/>
      <path d="M7,62 Q35,56 55,63 Q75,70 93,60" fill="none" stroke="#0088ff" stroke-width="5"/>
    </g>
    <!-- Stars -->
    <circle cx="15" cy="52" r="0.8" fill="#cceeff" opacity="0.8"/>
    <circle cx="28" cy="50" r="0.6" fill="#cceeff" opacity="0.7"/>
    <circle cx="44" cy="53" r="0.8" fill="#cceeff" opacity="0.6"/>
    <circle cx="62" cy="50" r="0.6" fill="#cceeff" opacity="0.8"/>
    <circle cx="78" cy="52" r="0.8" fill="#cceeff" opacity="0.7"/>
    <circle cx="88" cy="50" r="0.6" fill="#cceeff" opacity="0.6"/>
    <!-- Glacier -->
    <g filter="url(#iceGlow)">
      <polygon points="7,98 7,78 20,60 30,72 42,55 52,68 62,52 72,65 82,58 93,70 93,98" fill="url(#glacierG)" opacity="0.9"/>
      <!-- Ice cracks -->
      <line x1="25" y1="72" x2="30" y2="85" stroke="#fff" stroke-width="0.8" opacity="0.4"/>
      <line x1="50" y1="70" x2="55" y2="88" stroke="#fff" stroke-width="0.8" opacity="0.4"/>
      <line x1="70" y1="68" x2="73" y2="82" stroke="#fff" stroke-width="0.8" opacity="0.4"/>
      <!-- Snow top highlights -->
      <polygon points="7,78 20,60 30,72 42,55 52,68 62,52 72,65 82,58 93,70 93,75 80,63 70,70 60,56 50,72 40,59 28,76 18,65 7,82" fill="#cceeff" opacity="0.3"/>
    </g>
    <!-- Polar bear -->
    <g opacity="0.85">
      <ellipse cx="22" cy="88" rx="8" ry="5" fill="#ddeeff"/>
      <circle cx="22" cy="83" r="4" fill="#ddeeff"/>
      <ellipse cx="18" cy="85" rx="2" ry="3.5" fill="#ddeeff"/>
      <ellipse cx="26" cy="85" rx="2" ry="3.5" fill="#ddeeff"/>
      <circle cx="20" cy="82" r="0.8" fill="#334455"/>
      <circle cx="24" cy="82" r="0.8" fill="#334455"/>
      <ellipse cx="22" cy="84" rx="1.5" ry="1" fill="#bbccdd"/>
    </g>
    <!-- Ocean water -->
    <rect x="7" y="93" width="86" height="5" fill="#001833" opacity="0.7"/>
    <path d="M7,93 Q25,91 40,93 Q55,95 70,92 Q80,90 93,93" fill="none" stroke="#44aaff" stroke-width="0.8" opacity="0.5"/>
  </g>
  <rect x="7" y="48" width="86" height="50" rx="5" fill="none" stroke="#44ccff" stroke-width="1.2" opacity="0.3"/>
  <rect x="7" y="48" width="86" height="12" rx="5" fill="#fff" opacity="0.04"/>
  <rect x="7" y="90" width="86" height="8" rx="5" fill="#000" opacity="0.2"/>
</svg>