<svg xmlns="http://www.w3.org/2000/svg" viewBox="0 0 100 100" width="256" height="256">
  <defs>
    
    <linearGradient id="desertSky" x1="0%" y1="0%" x2="0%" y2="100%">
      <stop offset="0%" stop-color="#1a0520"/><stop offset="30%" stop-color="#8a1a00"/><stop offset="60%" stop-color="#dd5500"/><stop offset="100%" stop-color="#ff8800"/>
    </linearGradient>
    <radialGradient id="sunDesert" cx="50%" cy="100%" r="60%">
      <stop offset="0%" stop-color="#ffee44"/><stop offset="40%" stop-color="#ff8800"/><stop offset="100%" stop-color="#ff4400" stop-opacity="0"/>
    </radialGradient>
    <linearGradient id="sandG" x1="0%" y1="0%" x2="0%" y2="100%">
      <stop offset="0%" stop-color="#331500"/><stop offset="100%" stop-color="#1a0a00"/>
    </linearGradient>
    <linearGradient id="stripG" x1="0%" y1="0%" x2="100%" y2="0%">
      <stop offset="0%" stop-color="#ff6600"/><stop offset="100%" stop-color="#ffaa00"/>
    </linearGradient>
    <filter id="sunGlowD" x="-30%" y="-30%" width="160%" height="160%">
      <feDropShadow dx="0" dy="0" stdDeviation="5" flood-color="#ff8800" flood-opacity="0.9"/>
    </filter>
    <filter id="cactiGlow" x="-20%" y="-20%" width="140%" height="140%">
      <feDropShadow dx="0" dy="0" stdDeviation="1.5" flood-color="#004400" flood-opacity="0.5"/>
    </filter>
    <linearGradient id="page1grad" x1="0%" y1="0%" x2="0%" y2="100%">
      <stop offset="0%" stop-color="#f0ece0"/><stop offset="100%" stop-color="#d8d4c8"/>
    </linearGradient>
    <linearGradient id="page2grad" x1="0%" y1="0%" x2="0%" y2="100%">
      <stop offset="0%" stop-color="#e4e0d4"/><stop offset="100%" stop-color="#c8c4b8"/>
    </linearGradient>
    <filter id="fShadow">
      <feDropShadow dx="0" dy="3" stdDeviation="3.5" flood-color="#000" flood-opacity="0.7"/>
    </filter>
    <filter id="pShadow">
      <feDropShadow dx="0" dy="1" stdDeviation="1.5" flood-color="#000" flood-opacity="0.35"/>
    </filter>
  </defs>
  <g filter="url(#fShadow)">
    <path d="M7,22 Q7,17 12,17 L40,17 Q45,17 47,22 L53,30 L93,30 L93,93 Q93,98 88,98 L12,98 Q7,98 7,93 Z" fill="#1a0520"/>
  </g>
  <g filter="url(#pShadow)">
    <rect x="14" y="27" width="72" height="5" rx="1.5" fill="url(#page2grad)"/>
  </g>
  <g filter="url(#pShadow)">
    <rect x="14" y="31" width="72" height="5" rx="1.5" fill="url(#page1grad)"/>
  </g>
  <rect x="7" y="36" width="86" height="12" fill="url(#stripG)"/><rect x="7" y="36" width="86" height="4.5" fill="#fff" opacity="0.12"/>
  <clipPath id="bodyClip"><rect x="7" y="48" width="86" height="50" rx="5"/></clipPath>
  <rect x="7" y="48" width="86" height="50" rx="5" fill="#100310"/>
  
  <g clip-path="url(#bodyClip)">
    <rect x="7" y="48" width="86" height="50" fill="url(#desertSky)"/>
    <!-- Sun glow at horizon -->
    <g filter="url(#sunGlowD)">
      <ellipse cx="50" cy="80" rx="22" ry="10" fill="url(#sunDesert)" opacity="0.8"/>
      <ellipse cx="50" cy="80" rx="8" ry="4" fill="#ffee44" opacity="0.6"/>
    </g>
    <!-- Horizon rays -->
    <g opacity="0.25" stroke="#ff8800" stroke-width="0.8">
      <line x1="50" y1="80" x2="20" y2="55"/>
      <line x1="50" y1="80" x2="30" y2="50"/>
      <line x1="50" y1="80" x2="42" y2="48"/>
      <line x1="50" y1="80" x2="58" y2="48"/>
      <line x1="50" y1="80" x2="70" y2="50"/>
      <line x1="50" y1="80" x2="80" y2="55"/>
    </g>
    <!-- Sand dunes -->
    <path d="M7,80 Q25,72 40,78 Q55,84 70,76 Q82,70 93,78 L93,98 L7,98 Z" fill="url(#sandG)"/>
    <path d="M7,84 Q20,78 35,82 Q50,86 65,80 Q78,75 93,82 L93,98 L7,98 Z" fill="#2a1000" opacity="0.8"/>
    <!-- Cacti -->
    <g filter="url(#cactiGlow)">
      <!-- Left cactus -->
      <rect x="18" y="65" width="4" height="18" rx="2" fill="#1a4a00"/>
      <rect x="12" y="70" width="8" height="3.5" rx="2" fill="#1a4a00"/>
      <rect x="12" y="68" width="3" height="5" rx="1.5" fill="#1a4a00"/>
      <!-- Right cactus -->
      <rect x="76" y="62" width="4" height="20" rx="2" fill="#1a4a00"/>
      <rect x="72" y="67" width="10" height="3.5" rx="2" fill="#1a4a00"/>
      <rect x="79" y="65" width="3" height="6" rx="1.5" fill="#1a4a00"/>
      <!-- Small cactus -->
      <rect x="58" y="74" width="3" height="10" rx="1.5" fill="#1a4a00"/>
      <rect x="55" y="77" width="6" height="2.5" rx="1.5" fill="#1a4a00"/>
    </g>
    <!-- Stars appearing -->
    <circle cx="25" cy="52" r="0.8" fill="#ffeecc" opacity="0.7"/>
    <circle cx="65" cy="51" r="1"   fill="#ffeecc" opacity="0.6"/>
    <circle cx="82" cy="54" r="0.8" fill="#ffeecc" opacity="0.5"/>
  </g>
  <rect x="7" y="48" width="86" height="50" rx="5" fill="none" stroke="#ff6600" stroke-width="1.2" opacity="0.3"/>
  <rect x="7" y="48" width="86" height="12" rx="5" fill="#fff" opacity="0.04"/>
  <rect x="7" y="90" width="86" height="8" rx="5" fill="#000" opacity="0.2"/>
</svg>